<svg width="16" height="16" viewBox="0 0 16 16" fill="none" xmlns="http://www.w3.org/2000/svg">
<path d="M11 7C10.2089 7 9.43552 7.2346 8.77772 7.67412C8.11992 8.11365 7.60723 8.73836 7.30448 9.46927C7.00173 10.2002 6.92252 11.0044 7.07686 11.7804C7.2312 12.5563 7.61216 13.269 8.17157 13.8284C8.73098 14.3878 9.44372 14.7688 10.2196 14.9231C10.9956 15.0775 11.7998 14.9983 12.5307 14.6955C13.2616 14.3928 13.8864 13.8801 14.3259 13.2223C14.7654 12.5645 15 11.7911 15 11C14.9988 9.93951 14.577 8.9228 13.8271 8.17292C13.0772 7.42304 12.0605 7.00122 11 7ZM13.955 10.5H12.9782C12.9132 9.74603 12.7065 9.01108 12.369 8.33375C12.7832 8.54715 13.1421 8.85395 13.4174 9.22991C13.6926 9.60586 13.8767 10.0407 13.955 10.5ZM10.0278 10.5C10.1197 9.59629 10.4558 8.73462 11 8.0073C11.5443 8.73458 11.8804 9.59626 11.9724 10.5H10.0278ZM11.9728 11.5C11.8807 12.4038 11.5445 13.2655 11 13.9927C10.4557 13.2654 10.1196 12.4037 10.0276 11.5H11.9728ZM9.6312 8.334C9.29357 9.01122 9.08681 9.74608 9.02175 10.5H8.045C8.12334 10.0407 8.30739 9.60598 8.58261 9.23007C8.85784 8.85416 9.21705 8.54739 9.6312 8.334ZM8.045 11.5H9.0216C9.08655 12.2539 9.2932 12.9888 9.6307 13.666C9.21658 13.4526 8.85775 13.1458 8.58255 12.7699C8.30735 12.394 8.12332 11.9592 8.045 11.5ZM12.3691 13.666C12.7067 12.9888 12.9133 12.2539 12.9783 11.5H13.955C13.8767 11.9593 13.6927 12.394 13.4175 12.77C13.1423 13.1459 12.7833 13.4526 12.3691 13.666Z" fill="#40C8AE"/>
<path d="M7.3887 7H4V8H7.3887V7Z" fill="white"/>
<path d="M10 3H4V4H10V3Z" fill="white"/>
<path d="M10 5H4V6H10V5Z" fill="white"/>
<path d="M6.3887 9H4V10H6.3887V9Z" fill="white"/>
<path d="M7 15H3C2.73487 14.9997 2.48068 14.8943 2.2932 14.7068C2.10572 14.5193 2.00028 14.2651 2 14V2C2.00028 1.73487 2.10572 1.48068 2.2932 1.2932C2.48068 1.10572 2.73487 1.00028 3 1H11C11.2651 1.00028 11.5193 1.10572 11.7068 1.2932C11.8943 1.48068 11.9997 1.73487 12 2V6H11V2H3V14H7V15Z" fill="white"/>
<path d="M5.8887 11H4V12H5.8887V11Z" fill="white"/>
</svg>
