<svg width="16" height="17" viewBox="0 0 16 17" fill="none" xmlns="http://www.w3.org/2000/svg">
<path d="M11 7.00195C10.2089 7.00195 9.43552 7.23655 8.77772 7.67607C8.11992 8.1156 7.60723 8.74031 7.30448 9.47122C7.00173 10.2021 6.92252 11.0064 7.07686 11.7823C7.2312 12.5582 7.61216 13.271 8.17157 13.8304C8.73098 14.3898 9.44372 14.7708 10.2196 14.9251C10.9956 15.0794 11.7998 15.0002 12.5307 14.6975C13.2616 14.3947 13.8864 13.882 14.3259 13.2242C14.7654 12.5664 15 11.7931 15 11.002C14.9988 9.94146 14.577 8.92475 13.8271 8.17487C13.0772 7.42499 12.0605 7.00317 11 7.00195ZM13.955 10.502H12.9782C12.9132 9.74798 12.7065 9.01304 12.369 8.3357C12.7832 8.5491 13.1421 8.8559 13.4174 9.23186C13.6926 9.60782 13.8767 10.0426 13.955 10.502ZM10.0278 10.502C10.1197 9.59824 10.4558 8.73657 11 8.00925C11.5443 8.73654 11.8804 9.59822 11.9724 10.502H10.0278ZM11.9728 11.502C11.8807 12.4057 11.5445 13.2674 11 13.9947C10.4557 13.2674 10.1196 12.4057 10.0276 11.502H11.9728ZM9.6312 8.33595C9.29357 9.01317 9.08681 9.74804 9.02175 10.502H8.045C8.12334 10.0427 8.30739 9.60793 8.58261 9.23202C8.85784 8.85611 9.21705 8.54934 9.6312 8.33595ZM8.045 11.502H9.0216C9.08655 12.2558 9.2932 12.9907 9.6307 13.668C9.21658 13.4545 8.85775 13.1478 8.58255 12.7719C8.30735 12.3959 8.12332 11.9612 8.045 11.502ZM12.3691 13.668C12.7067 12.9907 12.9133 12.2559 12.9783 11.502H13.955C13.8767 11.9612 13.6927 12.396 13.4175 12.7719C13.1423 13.1478 12.7833 13.4546 12.3691 13.668Z" fill="#40C8AE"/>
<path d="M7.3887 7.00195H4V8.00195H7.3887V7.00195Z" fill="#292929"/>
<path d="M10 3.00195H4V4.00195H10V3.00195Z" fill="#292929"/>
<path d="M10 5.00195H4V6.00195H10V5.00195Z" fill="#292929"/>
<path d="M6.3887 9.00195H4V10.002H6.3887V9.00195Z" fill="#292929"/>
<path d="M7 15.002H3C2.73487 15.0017 2.48068 14.8962 2.2932 14.7088C2.10572 14.5213 2.00028 14.2671 2 14.002V2.00195C2.00028 1.73682 2.10572 1.48263 2.2932 1.29515C2.48068 1.10768 2.73487 1.00223 3 1.00195H11C11.2651 1.00223 11.5193 1.10768 11.7068 1.29515C11.8943 1.48263 11.9997 1.73682 12 2.00195V6.00195H11V2.00195H3V14.002H7V15.002Z" fill="#292929"/>
<path d="M5.8887 11.002H4V12.002H5.8887V11.002Z" fill="#292929"/>
</svg>
