<svg width="16" height="17" viewBox="0 0 16 17" fill="none" xmlns="http://www.w3.org/2000/svg">
<path d="M8.8887 7.50195H4V8.50195H8.8887V7.50195Z" fill="#292929"/>
<path d="M10 3.50195H4V4.50195H10V3.50195Z" fill="#292929"/>
<path d="M10 5.50195H4V6.50195H10V5.50195Z" fill="#292929"/>
<path d="M7.8887 9.50195H4V10.502H7.8887V9.50195Z" fill="#292929"/>
<path d="M7 15.502H3C2.73487 15.5017 2.48068 15.3962 2.2932 15.2088C2.10572 15.0213 2.00028 14.7671 2 14.502V2.50195C2.00028 2.23682 2.10572 1.98263 2.2932 1.79515C2.48068 1.60768 2.73487 1.50223 3 1.50195H11C11.2651 1.50223 11.5193 1.60768 11.7068 1.79515C11.8943 1.98263 11.9997 2.23682 12 2.50195V7.50195H11V2.50195H3V14.502H7V15.502Z" fill="#292929"/>
<path d="M7 11.502H4V12.502H7V11.502Z" fill="#292929"/>
<path fill-rule="evenodd" clip-rule="evenodd" d="M11 14.002V7.50195H12V14.002C12 14.8304 11.3284 15.502 10.5 15.502H7V14.502H10.5C10.7761 14.502 11 14.2781 11 14.002Z" fill="#292929"/>
</svg>
