<svg width="16" height="16" viewBox="0 0 16 16" fill="none" xmlns="http://www.w3.org/2000/svg">
<path d="M8.8887 7H4V8H8.8887V7Z" fill="white"/>
<path d="M10 3H4V4H10V3Z" fill="white"/>
<path d="M10 5H4V6H10V5Z" fill="white"/>
<path d="M7.8887 9H4V10H7.8887V9Z" fill="white"/>
<path d="M7 15H3C2.73487 14.9997 2.48068 14.8943 2.2932 14.7068C2.10572 14.5193 2.00028 14.2651 2 14V2C2.00028 1.73487 2.10572 1.48068 2.2932 1.2932C2.48068 1.10572 2.73487 1.00028 3 1H11C11.2651 1.00028 11.5193 1.10572 11.7068 1.2932C11.8943 1.48068 11.9997 1.73487 12 2V7H11V2H3V14H7V15Z" fill="white"/>
<path d="M7 11H4V12H7V11Z" fill="white"/>
<path fill-rule="evenodd" clip-rule="evenodd" d="M11 13.5V7H12V13.5C12 14.3284 11.3284 15 10.5 15H7V14H10.5C10.7761 14 11 13.7761 11 13.5Z" fill="white"/>
</svg>
