<svg width="15" height="14" viewBox="0 0 15 14" fill="none" xmlns="http://www.w3.org/2000/svg">
<path fill-rule="evenodd" clip-rule="evenodd" d="M7.27734 14C11.1433 14 14.2773 10.866 14.2773 7C14.2773 3.13401 11.1433 0 7.27734 0C3.41135 0 0.277344 3.13401 0.277344 7C0.277344 10.866 3.41135 14 7.27734 14ZM9.95368 9.45401C10.1815 9.22622 10.1815 8.85697 9.95368 8.62918L8.32442 6.99993L9.95368 5.37068C10.1815 5.14289 10.1815 4.77364 9.95368 4.54584C9.72588 4.31805 9.35663 4.31805 9.12884 4.54584L7.49959 6.17509L5.91292 4.58843C5.68513 4.36064 5.31588 4.36064 5.08809 4.58843C4.8603 4.81622 4.8603 5.18547 5.08809 5.41326L6.67476 6.99993L5.04551 8.62918C4.81772 8.85697 4.81772 9.22622 5.04551 9.45401C5.15955 9.56805 5.30859 9.62493 5.45792 9.62493C5.60726 9.62493 5.7563 9.56805 5.87034 9.45401L7.49959 7.82476L9.12884 9.45401C9.24288 9.56805 9.39192 9.62493 9.54126 9.62493C9.69059 9.62493 9.83963 9.56805 9.95368 9.45401Z" fill="#EB5757"/>
</svg>
