<svg width="15" height="14" viewBox="0 0 15 14" fill="none" xmlns="http://www.w3.org/2000/svg">
<path d="M7.5 0C3.63438 0 0.5 3.13438 0.5 7C0.5 10.8656 3.63438 14 7.5 14C11.3656 14 14.5 10.8656 14.5 7C14.5 3.13438 11.3656 0 7.5 0ZM8 10.375C8 10.4438 7.94375 10.5 7.875 10.5H7.125C7.05625 10.5 7 10.4438 7 10.375V6.125C7 6.05625 7.05625 6 7.125 6H7.875C7.94375 6 8 6.05625 8 6.125V10.375ZM7.5 5C7.30374 4.99599 7.11687 4.91522 6.97948 4.775C6.8421 4.63478 6.76515 4.4463 6.76515 4.25C6.76515 4.0537 6.8421 3.86522 6.97948 3.725C7.11687 3.58478 7.30374 3.50401 7.5 3.5C7.69626 3.50401 7.88313 3.58478 8.02052 3.725C8.1579 3.86522 8.23485 4.0537 8.23485 4.25C8.23485 4.4463 8.1579 4.63478 8.02052 4.775C7.88313 4.91522 7.69626 4.99599 7.5 5Z" fill="#00BCEB"/>
</svg>
