<svg width="15" height="14" viewBox="0 0 15 14" fill="none" xmlns="http://www.w3.org/2000/svg">
<path d="M14.4332 12.375L7.93321 1.125C7.83633 0.957813 7.66915 0.875 7.50039 0.875C7.33165 0.875 7.16289 0.957813 7.06758 1.125L0.567583 12.375C0.375396 12.7094 0.616021 13.125 1.0004 13.125H14.0004C14.3848 13.125 14.6254 12.7094 14.4332 12.375ZM7.00039 5.5C7.00039 5.43125 7.05664 5.375 7.12539 5.375H7.87539C7.94414 5.375 8.00039 5.43125 8.00039 5.5V8.375C8.00039 8.44375 7.94414 8.5 7.87539 8.5H7.12539C7.05664 8.5 7.00039 8.44375 7.00039 8.375V5.5ZM7.50039 11C7.30413 10.996 7.11726 10.9152 6.97988 10.775C6.8425 10.6348 6.76555 10.4463 6.76555 10.25C6.76555 10.0537 6.8425 9.86522 6.97988 9.725C7.11726 9.58478 7.30413 9.50401 7.50039 9.5C7.69666 9.50401 7.88353 9.58478 8.02091 9.725C8.15829 9.86522 8.23524 10.0537 8.23524 10.25C8.23524 10.4463 8.15829 10.6348 8.02091 10.775C7.88353 10.9152 7.69666 10.996 7.50039 11Z" fill="#F0AD42"/>
</svg>
