<svg width="15" height="20" viewBox="0 0 15 20" fill="none" xmlns="http://www.w3.org/2000/svg">
<path d="M12.02 11.46C11.54 11.94 11.14 12.5 10.82 13.14C10.5533 13.78 10.42 14.4467 10.42 15.14V17.54C10.42 17.9133 10.3133 18.2867 10.1 18.66C9.88667 18.98 9.59333 19.22 9.22 19.38C9.00667 19.4867 8.76667 19.5133 8.5 19.46H6.1C5.51333 19.5133 5.03333 19.3533 4.66 18.98C4.28667 18.5533 4.1 18.0733 4.1 17.54V15.14C4.1 14.4467 3.96667 13.78 3.7 13.14C3.43333 12.5 3.06 11.94 2.58 11.46C1.94 10.8733 1.43333 10.18 1.06 9.38C0.686667 8.52667 0.5 7.64667 0.5 6.74C0.5 5.51333 0.82 4.39333 1.46 3.38C1.72667 2.84667 2.04667 2.39333 2.42 2.02C2.84667 1.59333 3.3 1.24667 3.78 0.979999C4.31333 0.659999 4.87333 0.42 5.46 0.26C6.04667 0.0999999 6.66 0.02 7.3 0.02C8.52667 0.02 9.64667 0.313333 10.66 0.899999C11.7267 1.48667 12.5533 2.31333 13.14 3.38C13.7267 4.39333 14.02 5.51333 14.02 6.74C14.02 7.7 13.8333 8.58 13.46 9.38C13.14 10.18 12.66 10.8733 12.02 11.46ZM8.9 14.26H5.62V17.54C5.62 17.6467 5.64667 17.7533 5.7 17.86C5.80667 17.9667 5.94 18.02 6.1 18.02H8.5C8.60667 18.02 8.68667 17.9933 8.74 17.94C8.84667 17.8333 8.9 17.7 8.9 17.54V14.26Z" fill="white"/>
</svg>
