<svg width="49" height="44" viewBox="0 0 49 44" fill="none" xmlns="http://www.w3.org/2000/svg">
<path d="M24.3509 12.7349C25.2463 12.7349 25.9925 11.9888 25.9925 11.0933V1.64161C25.9925 0.746188 25.2463 0 24.3509 0C23.4555 0 22.7093 0.746188 22.7093 1.64161V11.0933C22.7093 12.0136 23.4306 12.7349 24.3509 12.7349ZM35.3448 12.6852C35.8422 12.6852 36.3148 12.4613 36.6133 12.0883L40.3691 7.46188C40.6427 7.11366 40.7671 6.69082 40.7173 6.26798C40.6676 5.84514 40.4686 5.44717 40.1204 5.17357C39.8219 4.92484 39.4737 4.80048 39.1006 4.80048C38.6031 4.80048 38.1305 5.02433 37.8321 5.39743L34.0762 10.0238C33.8275 10.3223 33.7031 10.6705 33.7031 11.0685C33.7031 11.939 34.4493 12.6852 35.3448 12.6852ZM12.2378 11.939C12.5363 12.337 13.0089 12.5608 13.5312 12.5608C13.9043 12.5608 14.2525 12.4365 14.551 12.2126C15.2474 11.6405 15.3718 10.6207 14.7997 9.89943L11.1185 5.24819C10.7952 4.85022 10.3475 4.62637 9.82512 4.62637C9.45203 4.62637 9.1038 4.75073 8.80533 4.97459C8.10889 5.54667 7.98452 6.56646 8.5566 7.28777L12.2378 11.939ZM49 30.5191C49 30.3201 48.9254 29.2506 48.6767 28.3054C48.4279 27.3354 47.9056 26.3404 47.8061 26.1415C47.7812 26.0917 47.7564 26.0668 47.7315 26.0171L42.5828 17.8836C42.5579 17.8339 42.533 17.7842 42.4833 17.7593C42.3341 17.5603 41.4884 16.5156 40.4437 15.9187C39.3493 15.2969 37.9315 15.1725 37.6828 15.1476H10.2977C9.92461 15.1476 8.68096 15.1974 7.61143 15.8441C6.61651 16.4659 5.89519 17.4857 5.74596 17.6847C5.72108 17.7095 5.69621 17.7593 5.67134 17.7842L1.36832 25.445C1.24395 25.6689 0.746495 26.5146 0.373401 27.7831C-0.0245659 29.1262 0.000307074 30.3201 0.000307074 30.6683V39.349C0.02518 39.6475 0.149545 41.2393 1.31857 42.3337C2.46273 43.4033 4.17896 43.5276 4.50231 43.5276H44.2244C44.697 43.5276 46.3635 43.453 47.5822 42.3337C48.8756 41.1647 48.9503 39.5977 48.9503 39.15V30.544L49 30.5191ZM4.15409 27.211C4.15409 27.211 4.17896 27.1861 4.17896 27.1613L4.22871 27.0866L8.53173 19.4755L8.5566 19.4506C8.70584 19.2517 9.07893 18.8039 9.37741 18.605C9.60126 18.4557 10.0738 18.406 10.3226 18.406H37.5833C37.9067 18.4309 38.5534 18.5552 38.8767 18.7293C39.2498 18.9283 39.6975 19.4258 39.8965 19.6496L39.9214 19.6745L44.697 27.2359H30.7433C29.8478 27.2359 29.1016 27.9821 29.1016 28.8775C29.1016 31.4643 27.0621 33.479 24.4255 33.479C21.789 33.479 19.7494 31.4643 19.7494 28.8775C19.7494 27.9821 19.0032 27.2359 18.1078 27.2359H4.12922C4.12922 27.2359 4.12922 27.211 4.15409 27.211ZM45.4432 39.9459C45.1944 40.1698 44.5975 40.2942 44.2741 40.2942H4.6018C4.40282 40.2942 3.83074 40.1947 3.60688 40.0206L3.58201 39.9957L3.55714 39.9708C3.38303 39.7967 3.30841 39.4236 3.28354 39.2744V30.6435V30.5688H16.6154L16.6901 30.8424C17.5855 34.3495 20.7692 36.812 24.4255 36.812C28.0819 36.812 31.2407 34.3495 32.1361 30.8424L32.2108 30.5688H45.7416V39.2992C45.7168 39.3739 45.667 39.7221 45.4432 39.9459Z" fill="#CCCCCC"/>
</svg>
