<svg width="56" height="56" viewBox="0 0 56 56" fill="none" xmlns="http://www.w3.org/2000/svg">
<path d="M27.8318 17.808C28.8398 17.808 29.6798 16.968 29.6798 15.96V5.32005C29.6798 4.31205 28.8398 3.47205 27.8318 3.47205C26.8238 3.47205 25.9838 4.31205 25.9838 5.32005V15.96C25.9838 16.996 26.7958 17.808 27.8318 17.808V17.808ZM40.2078 17.752C40.7678 17.752 41.2998 17.5 41.6358 17.08L45.8638 11.872C46.1718 11.48 46.3118 11.004 46.2558 10.528C46.1998 10.052 45.9758 9.60405 45.5838 9.29605C45.2478 9.01605 44.8558 8.87605 44.4358 8.87605C43.8758 8.87605 43.3438 9.12805 43.0078 9.54805L38.7798 14.756C38.4998 15.092 38.3598 15.484 38.3598 15.932C38.3598 16.912 39.1998 17.752 40.2078 17.752V17.752ZM14.1958 16.912C14.5318 17.36 15.0638 17.612 15.6518 17.612C16.0718 17.612 16.4638 17.472 16.7998 17.22C17.5838 16.576 17.7238 15.428 17.0798 14.616L12.9358 9.38005C12.5718 8.93205 12.0678 8.68005 11.4798 8.68005C11.0598 8.68005 10.6678 8.82005 10.3318 9.07205C9.54778 9.71605 9.40778 10.864 10.0518 11.676L14.1958 16.912V16.912ZM55.5798 37.828C55.5798 37.604 55.4958 36.4 55.2158 35.336C54.9358 34.244 54.3478 33.124 54.2358 32.9C54.2078 32.844 54.1798 32.816 54.1518 32.76L48.3558 23.604C48.3278 23.548 48.2998 23.492 48.2438 23.464C48.0758 23.24 47.1238 22.064 45.9478 21.392C44.7158 20.692 43.1198 20.552 42.8398 20.524H12.0118C11.5918 20.524 10.1918 20.58 8.98778 21.308C7.86778 22.008 7.05578 23.156 6.88778 23.38C6.85978 23.408 6.83178 23.464 6.80378 23.492L1.95978 32.116C1.81978 32.368 1.25978 33.32 0.839779 34.748C0.391779 36.26 0.419779 37.604 0.419779 37.996V47.768C0.447779 48.104 0.587779 49.896 1.90378 51.128C3.19178 52.332 5.12378 52.472 5.48778 52.472H50.2038C50.7358 52.472 52.6118 52.388 53.9838 51.128C55.4398 49.812 55.5238 48.048 55.5238 47.544V37.856L55.5798 37.828V37.828ZM5.09578 34.104C5.09578 34.104 5.12378 34.076 5.12378 34.048L5.17978 33.964L10.0238 25.396L10.0518 25.368C10.2198 25.144 10.6398 24.64 10.9758 24.416C11.2278 24.248 11.7598 24.192 12.0398 24.192H42.7278C43.0918 24.22 43.8198 24.36 44.1838 24.556C44.6038 24.78 45.1078 25.34 45.3318 25.592L45.3598 25.62L50.7358 34.132H35.0278C34.0198 34.132 33.1798 34.972 33.1798 35.98C33.1798 38.892 30.8838 41.16 27.9158 41.16C24.9478 41.16 22.6518 38.892 22.6518 35.98C22.6518 34.972 21.8118 34.132 20.8038 34.132H5.06778C5.06778 34.132 5.06778 34.104 5.09578 34.104V34.104ZM51.5758 48.44C51.2958 48.692 50.6238 48.832 50.2598 48.832H5.59978C5.37578 48.832 4.73178 48.72 4.47978 48.524L4.45178 48.496L4.42378 48.468C4.22778 48.272 4.14378 47.852 4.11578 47.684V37.968V37.884H19.1238L19.2078 38.192C20.2158 42.14 23.7998 44.912 27.9158 44.912C32.0318 44.912 35.5878 42.14 36.5958 38.192L36.6798 37.884H51.9118V47.712C51.8838 47.796 51.8278 48.188 51.5758 48.44V48.44Z" fill="#606060"/>
</svg>
