<svg width="56" height="36" viewBox="0 0 56 36" fill="none" xmlns="http://www.w3.org/2000/svg">
<path d="M0 35.25C0 35.0511 0.0776315 34.8603 0.215816 34.7197C0.354001 34.579 0.541419 34.5 0.736842 34.5H48.6316C48.827 34.5 49.0144 34.579 49.1526 34.7197C49.2908 34.8603 49.3684 35.0511 49.3684 35.25C49.3684 35.4489 49.2908 35.6397 49.1526 35.7803C49.0144 35.921 48.827 36 48.6316 36H0.736842C0.541419 36 0.354001 35.921 0.215816 35.7803C0.0776315 35.6397 0 35.4489 0 35.25ZM51.5789 35.25C51.5789 35.0511 51.6566 34.8603 51.7948 34.7197C51.9329 34.579 52.1204 34.5 52.3158 34.5H55.2632C55.4586 34.5 55.646 34.579 55.7842 34.7197C55.9224 34.8603 56 35.0511 56 35.25C56 35.4489 55.9224 35.6397 55.7842 35.7803C55.646 35.921 55.4586 36 55.2632 36H52.3158C52.1204 36 51.9329 35.921 51.7948 35.7803C51.6566 35.6397 51.5789 35.4489 51.5789 35.25Z" fill="#A9ABB6"/>
<path fill-rule="evenodd" clip-rule="evenodd" d="M16.9475 13.5H12.5265C11.7448 13.5 10.9951 13.8161 10.4424 14.3787C9.88963 14.9413 9.5791 15.7044 9.5791 16.5V31.5H19.8949V16.5C19.8949 15.7044 19.5844 14.9413 19.0316 14.3787C18.4789 13.8161 17.7292 13.5 16.9475 13.5ZM18.4212 30H11.0528V16.5C11.0528 15.675 11.7159 15 12.5265 15H16.9475C17.3384 15 17.7132 15.158 17.9896 15.4393C18.2659 15.7206 18.4212 16.1022 18.4212 16.5V30ZM43.4738 6H39.0528C38.2711 6 37.5214 6.31607 36.9687 6.87868C36.4159 7.44129 36.1054 8.20435 36.1054 9V31.5H46.4212V9C46.4212 8.20435 46.1107 7.44129 45.5579 6.87868C45.0052 6.31607 44.2555 6 43.4738 6ZM44.9475 30H37.5791V9C37.5791 8.175 38.2423 7.5 39.0528 7.5H43.4738C43.8647 7.5 44.2395 7.65803 44.5159 7.93934C44.7923 8.22064 44.9475 8.60218 44.9475 9V30ZM30.2107 0H25.7896C25.0079 0 24.2583 0.316071 23.7055 0.87868C23.1528 1.44129 22.8423 2.20435 22.8423 3V31.5H33.158V3C33.158 2.20435 32.8475 1.44129 32.2948 0.87868C31.742 0.316071 30.9924 0 30.2107 0ZM31.6844 30H24.3159V3C24.3159 2.175 24.9791 1.5 25.7896 1.5H30.2107C30.6015 1.5 30.9764 1.65804 31.2527 1.93934C31.5291 2.22064 31.6844 2.60218 31.6844 3V30Z" fill="#A9ABB6"/>
<path d="M24.3154 30H31.6839V3C31.6839 2.60218 31.5286 2.22064 31.2522 1.93934C30.9759 1.65804 30.601 1.5 30.2102 1.5H25.7891C25.3983 1.5 25.0234 1.65804 24.7471 1.93934C24.4707 2.22064 24.3154 2.60218 24.3154 3V30Z" fill="#A9ABB6"/>
<path d="M10.5815 20.2723C10.5325 20.185 10.5012 20.0886 10.4895 19.9888C10.4778 19.889 10.486 19.7878 10.5135 19.6912C10.541 19.5947 10.5872 19.5047 10.6496 19.4268C10.7119 19.3488 10.789 19.2843 10.8762 19.2373L17.9131 15.4423C17.9989 15.3847 18.0956 15.346 18.1969 15.3287C18.2983 15.3114 18.4021 15.3159 18.5017 15.3418C18.6012 15.3678 18.6943 15.4147 18.7751 15.4794C18.8558 15.5442 18.9223 15.6255 18.9703 15.718C19.0183 15.8105 19.0468 15.9122 19.0539 16.0165C19.061 16.1209 19.0466 16.2256 19.0115 16.324C18.9765 16.4223 18.9216 16.5121 18.8505 16.5876C18.7793 16.6631 18.6934 16.7226 18.5983 16.7623L11.5615 20.5573C11.3935 20.6475 11.1979 20.6682 11.0153 20.6151C10.8327 20.562 10.6773 20.4392 10.5815 20.2723ZM9.74887 25.9048C9.69866 25.8172 9.66642 25.7202 9.6541 25.6196C9.64177 25.5189 9.64962 25.4168 9.67717 25.3194C9.70472 25.2219 9.7514 25.1312 9.81438 25.0526C9.87736 24.9741 9.95534 24.9093 10.0436 24.8623L18.7531 20.3023C18.9262 20.2187 19.1246 20.207 19.306 20.2698C19.4875 20.3325 19.6378 20.4648 19.725 20.6385C19.8123 20.8122 19.8296 21.0136 19.7733 21.2001C19.717 21.3866 19.5916 21.5434 19.4236 21.6373L10.7289 26.1973C10.56 26.2868 10.3637 26.3064 10.181 26.2519C9.99832 26.1974 9.84345 26.073 9.74887 25.9048ZM10.412 30.9298C10.3153 30.7585 10.289 30.5553 10.3386 30.3643C10.3883 30.1733 10.51 30.01 10.6773 29.9098L18.7826 25.0498C18.9504 24.9524 19.1492 24.9261 19.3359 24.9764C19.5227 25.0267 19.6826 25.1497 19.7811 25.3189C19.8797 25.488 19.909 25.6898 19.8628 25.8808C19.8166 26.0717 19.6986 26.2366 19.5341 26.3398L11.4289 31.1998C11.3449 31.2509 11.2518 31.2844 11.155 31.2985C11.0581 31.3126 10.9595 31.3069 10.8648 31.2817C10.7702 31.2566 10.6814 31.2125 10.6037 31.1521C10.5259 31.0917 10.4608 31.0161 10.412 30.9298Z" fill="#A9ABB6"/>
</svg>
