<svg width="14" height="14" viewBox="0 0 14 14" fill="none" xmlns="http://www.w3.org/2000/svg">
<path d="M10.5258 0.10687L13.8388 3.41985L13.9991 3.79389V13.5191L13.4648 14H9.99147V12.9847H12.9838V4.96947H9.45712L8.9762 4.48855V0.961832H2.93804V4.96947H1.9762V0.480916L2.45712 0H10.2052L10.5258 0.10687ZM9.99147 4.00763H12.9838L9.99147 0.961832V4.00763ZM8.44185 5.98473H1.44185L0.960938 6.51908V13.5191L1.44185 14H8.44185L8.9762 13.5191V6.51908L8.44185 5.98473ZM7.96094 12.9847H1.9762V7H7.96094V12.9847ZM6.94567 8.49618V11.4885H5.98384V9.72519L3.31208 12.3435L2.61743 11.6489L5.23575 8.9771H3.47239V8.01527H6.46475L6.94567 8.49618Z" fill="#CCCCCC"/>
</svg>
