<svg width="13" height="14" viewBox="0 0 13 14" fill="none" xmlns="http://www.w3.org/2000/svg">
<path d="M9.51056 0.10687L12.8235 3.41985L12.9838 3.79389V13.5191L12.4495 14H1.44185L0.960938 13.5191V0.480916L1.44185 0H9.18995L9.51056 0.10687ZM8.9762 4.00763H11.9686L8.9762 0.961832V4.00763ZM1.92277 0.961832V12.9847H11.9686V4.96947H8.44185L7.96094 4.48855V0.961832H1.92277ZM4.00674 8.54962L5.82353 6.67939L5.12888 5.98473L2.93804 8.17557V8.87023L5.12888 11.0611L5.82353 10.3664L4.00674 8.54962ZM7.7472 6.73282L8.44185 5.98473L10.6327 8.17557V8.87023L8.44185 11.0611L7.7472 10.3664L9.56399 8.54962L7.7472 6.73282Z" fill="#CCCCCC"/>
</svg>
