<svg width="632" height="404" viewBox="0 0 632 404" fill="none" xmlns="http://www.w3.org/2000/svg">
<g filter="url(#filter0_d_7488_184100)">
<g clip-path="url(#clip0_7488_184100)">
<rect x="16" y="14" width="600" height="372" rx="12" fill="white"/>
<path d="M16 26C16 19.3726 21.3726 14 28 14H604C610.627 14 616 19.3726 616 26V38H16V26Z" fill="#E5E5E5"/>
<path d="M32 30C34.2092 30 36 28.2092 36 26C36 23.7908 34.2092 22 32 22C29.7908 22 28 23.7908 28 26C28 28.2092 29.7908 30 32 30Z" fill="#EE7773"/>
<path d="M46 30C48.2092 30 50 28.2092 50 26C50 23.7908 48.2092 22 46 22C43.7908 22 42 23.7908 42 26C42 28.2092 43.7908 30 46 30Z" fill="#F3DA92"/>
<path d="M60 30C62.2092 30 64 28.2092 64 26C64 23.7908 62.2092 22 60 22C57.7908 22 56 23.7908 56 26C56 28.2092 57.7908 30 60 30Z" fill="#B9DBC0"/>
<path d="M16 38H56V386H28C21.3726 386 16 380.627 16 374V38Z" fill="#333333"/>
<rect x="26" y="168" width="20" height="20" rx="10" fill="white"/>
<rect x="26" y="72" width="20" height="20" rx="10" fill="#606060"/>
<rect x="26" y="104" width="20" height="20" rx="10" fill="#606060"/>
<rect x="26" y="136" width="20" height="20" rx="10" fill="#606060"/>
<rect x="16" y="168" width="2" height="20" fill="white"/>
<rect x="56" y="38" width="124" height="348" fill="#EEEEEE"/>
<rect x="68.5" y="82.5" width="99" height="121" rx="1.5" fill="white" stroke="white"/>
<rect x="78" y="110" width="80" height="12" fill="#EEEEEE"/>
<rect x="78" y="92" width="80" height="12" fill="#007ACC"/>
<rect x="78" y="128" width="80" height="12" fill="#EEEEEE"/>
<rect x="78" y="146" width="80" height="12" fill="#EEEEEE"/>
<rect x="78" y="164" width="80" height="12" fill="#EEEEEE"/>
<rect x="78" y="182" width="80" height="12" fill="#EEEEEE"/>
<rect x="68" y="58" width="100" height="18" rx="2" fill="white"/>
<rect x="68" y="210" width="100" height="18" rx="2" fill="white"/>
<rect x="68" y="234" width="100" height="18" rx="2" fill="white"/>
<rect x="68" y="258" width="100" height="18" rx="2" fill="white"/>
<rect x="68" y="282" width="100" height="18" rx="2" fill="white"/>
<rect x="68" y="306" width="100" height="18" rx="2" fill="white"/>
<rect x="258" y="70" width="77" height="12" fill="#C6C6C6"/>
<path d="M515.5 75C515.5 74.1716 516.172 73.5 517 73.5H590C590.828 73.5 591.5 74.1716 591.5 75V89C591.5 89.8284 590.828 90.5 590 90.5H517C516.172 90.5 515.5 89.8284 515.5 89V75Z" fill="white" stroke="#CCCCCC"/>
<rect x="258" y="88" width="171" height="6" fill="#C6C6C6"/>
<path d="M225.5 58C231.564 58 237.394 60.3444 241.77 64.5429C246.146 68.7414 248.729 74.469 248.98 80.5282C249.231 86.5873 247.129 92.5088 243.115 97.0546C239.101 101.6 233.486 104.418 227.442 104.92C221.398 105.421 215.395 103.566 210.687 99.7436C205.979 95.9211 202.931 90.4265 202.181 84.4089C201.43 78.3912 203.035 72.3162 206.659 67.4543C210.284 62.5924 215.648 59.3198 221.629 58.321L222.546 63.8093C217.981 64.5716 213.887 67.0693 211.12 70.78C208.354 74.4908 207.129 79.1273 207.702 83.7201C208.275 88.3129 210.601 92.5065 214.195 95.4239C217.788 98.3414 222.37 99.7569 226.982 99.3744C231.595 98.9919 235.881 96.8411 238.944 93.3716C242.008 89.9022 243.612 85.3827 243.42 80.7583C243.229 76.1338 241.257 71.7624 237.917 68.5579C234.578 65.3535 230.128 63.5643 225.5 63.5643V58Z" fill="#7ADF2B"/>
<path d="M219.591 75.1705C220.189 75.1705 220.765 75.2708 221.318 75.4716C221.875 75.6686 222.371 75.9886 222.807 76.4318C223.246 76.875 223.593 77.4621 223.847 78.1932C224.104 78.9205 224.235 79.8163 224.239 80.8807C224.235 81.8693 224.121 82.7519 223.898 83.5284C223.678 84.3011 223.362 84.9583 222.949 85.5C222.536 86.0417 222.038 86.4545 221.455 86.7386C220.875 87.0189 220.225 87.1591 219.506 87.1591C218.729 87.1591 218.044 87.0095 217.449 86.7102C216.854 86.4072 216.375 85.9962 216.011 85.4773C215.652 84.9545 215.434 84.3674 215.358 83.7159H217.784C217.879 84.1402 218.078 84.4697 218.381 84.7045C218.684 84.9356 219.059 85.0511 219.506 85.0511C220.263 85.0511 220.839 84.7216 221.233 84.0625C221.627 83.3996 221.826 82.4924 221.83 81.3409H221.75C221.576 81.6818 221.341 81.9754 221.045 82.2216C220.75 82.464 220.411 82.6515 220.028 82.7841C219.65 82.9167 219.246 82.983 218.818 82.983C218.133 82.983 217.519 82.822 216.977 82.5C216.439 82.178 216.015 81.7348 215.705 81.1705C215.394 80.6023 215.241 79.9545 215.244 79.2273C215.241 78.4394 215.42 77.7405 215.784 77.1307C216.148 76.517 216.655 76.036 217.307 75.6875C217.962 75.339 218.723 75.1667 219.591 75.1705ZM219.608 77.1023C219.225 77.1023 218.884 77.1932 218.585 77.375C218.29 77.5568 218.055 77.803 217.881 78.1136C217.71 78.4242 217.627 78.7727 217.631 79.1591C217.627 79.5455 217.708 79.892 217.875 80.1989C218.045 80.5057 218.278 80.75 218.574 80.9318C218.869 81.1098 219.206 81.1989 219.585 81.1989C219.869 81.1989 220.131 81.1458 220.369 81.0398C220.612 80.9337 220.822 80.7879 221 80.6023C221.182 80.4129 221.324 80.1951 221.426 79.9489C221.528 79.6989 221.581 79.4318 221.585 79.1477C221.581 78.7727 221.494 78.4299 221.324 78.1193C221.153 77.8087 220.919 77.5625 220.619 77.3807C220.32 77.1951 219.983 77.1023 219.608 77.1023ZM230.153 75.1705C230.752 75.1705 231.328 75.2708 231.881 75.4716C232.438 75.6686 232.934 75.9886 233.369 76.4318C233.809 76.875 234.155 77.4621 234.409 78.1932C234.667 78.9205 234.797 79.8163 234.801 80.8807C234.797 81.8693 234.684 82.7519 234.46 83.5284C234.241 84.3011 233.924 84.9583 233.511 85.5C233.098 86.0417 232.6 86.4545 232.017 86.7386C231.438 87.0189 230.788 87.1591 230.068 87.1591C229.292 87.1591 228.606 87.0095 228.011 86.7102C227.417 86.4072 226.938 85.9962 226.574 85.4773C226.214 84.9545 225.996 84.3674 225.92 83.7159H228.347C228.441 84.1402 228.64 84.4697 228.943 84.7045C229.246 84.9356 229.621 85.0511 230.068 85.0511C230.826 85.0511 231.402 84.7216 231.795 84.0625C232.189 83.3996 232.388 82.4924 232.392 81.3409H232.312C232.138 81.6818 231.903 81.9754 231.608 82.2216C231.313 82.464 230.973 82.6515 230.591 82.7841C230.212 82.9167 229.809 82.983 229.381 82.983C228.695 82.983 228.081 82.822 227.54 82.5C227.002 82.178 226.578 81.7348 226.267 81.1705C225.956 80.6023 225.803 79.9545 225.807 79.2273C225.803 78.4394 225.983 77.7405 226.347 77.1307C226.71 76.517 227.218 76.036 227.869 75.6875C228.525 75.339 229.286 75.1667 230.153 75.1705ZM230.17 77.1023C229.788 77.1023 229.447 77.1932 229.148 77.375C228.852 77.5568 228.617 77.803 228.443 78.1136C228.273 78.4242 228.189 78.7727 228.193 79.1591C228.189 79.5455 228.271 79.892 228.438 80.1989C228.608 80.5057 228.841 80.75 229.136 80.9318C229.432 81.1098 229.769 81.1989 230.148 81.1989C230.432 81.1989 230.693 81.1458 230.932 81.0398C231.174 80.9337 231.384 80.7879 231.562 80.6023C231.744 80.4129 231.886 80.1951 231.989 79.9489C232.091 79.6989 232.144 79.4318 232.148 79.1477C232.144 78.7727 232.057 78.4299 231.886 78.1193C231.716 77.8087 231.481 77.5625 231.182 77.3807C230.883 77.1951 230.545 77.1023 230.17 77.1023Z" fill="#7ADF2B"/>
<rect x="202" y="154" width="66" height="6" fill="#CCCCCC"/>
<rect x="202" y="166" width="390" height="6" fill="#CCCCCC"/>
<rect x="202" y="178" width="390" height="6" fill="#CCCCCC"/>
<rect x="202.5" y="203.5" width="389" height="30" rx="3.5" fill="white" stroke="#CCCCCC"/>
<path d="M221.5 208C224.256 208 226.902 209.084 228.866 211.017C230.83 212.951 231.955 215.579 231.999 218.335C232.042 221.091 231 223.753 229.097 225.748C227.195 227.742 224.585 228.908 221.83 228.995C219.075 229.081 216.397 228.081 214.373 226.21C212.349 224.339 211.141 221.748 211.012 218.995C210.882 216.241 211.84 213.548 213.679 211.495C215.518 209.441 218.09 208.194 220.841 208.021L220.973 210.117C218.772 210.255 216.714 211.253 215.243 212.896C213.772 214.538 213.005 216.693 213.109 218.896C213.213 221.098 214.179 223.172 215.798 224.668C217.417 226.165 219.56 226.965 221.764 226.896C223.968 226.827 226.056 225.894 227.578 224.298C229.1 222.703 229.934 220.573 229.899 218.368C229.864 216.163 228.964 214.061 227.393 212.514C225.822 210.967 223.705 210.1 221.5 210.1V208Z" fill="#CCCCCC"/>
<path d="M218.917 216.085C219.216 216.085 219.504 216.135 219.78 216.236C220.059 216.334 220.307 216.494 220.525 216.716C220.744 216.938 220.917 217.231 221.044 217.597C221.173 217.96 221.239 218.408 221.24 218.94C221.239 219.435 221.182 219.876 221.07 220.264C220.96 220.651 220.802 220.979 220.596 221.25C220.389 221.521 220.14 221.727 219.848 221.869C219.559 222.009 219.234 222.08 218.874 222.08C218.486 222.08 218.143 222.005 217.846 221.855C217.548 221.704 217.309 221.498 217.127 221.239C216.947 220.977 216.838 220.684 216.8 220.358H218.013C218.06 220.57 218.16 220.735 218.311 220.852C218.463 220.968 218.65 221.026 218.874 221.026C219.253 221.026 219.541 220.861 219.738 220.531C219.935 220.2 220.034 219.746 220.036 219.17H219.996C219.909 219.341 219.792 219.488 219.644 219.611C219.496 219.732 219.327 219.826 219.135 219.892C218.946 219.958 218.744 219.991 218.53 219.991C218.187 219.991 217.881 219.911 217.61 219.75C217.341 219.589 217.129 219.367 216.973 219.085C216.818 218.801 216.741 218.477 216.743 218.114C216.741 217.72 216.831 217.37 217.013 217.065C217.195 216.759 217.449 216.518 217.775 216.344C218.102 216.17 218.483 216.083 218.917 216.085ZM218.925 217.051C218.734 217.051 218.563 217.097 218.414 217.188C218.266 217.278 218.149 217.402 218.061 217.557C217.976 217.712 217.935 217.886 217.936 218.08C217.935 218.273 217.975 218.446 218.059 218.599C218.144 218.753 218.26 218.875 218.408 218.966C218.556 219.055 218.724 219.099 218.914 219.099C219.056 219.099 219.186 219.073 219.306 219.02C219.427 218.967 219.532 218.894 219.621 218.801C219.712 218.706 219.783 218.598 219.834 218.474C219.885 218.349 219.912 218.216 219.914 218.074C219.912 217.886 219.868 217.715 219.783 217.56C219.698 217.404 219.58 217.281 219.431 217.19C219.281 217.098 219.113 217.051 218.925 217.051ZM222.093 222V221.114L224.164 219.196C224.34 219.026 224.488 218.872 224.607 218.736C224.728 218.599 224.82 218.466 224.882 218.335C224.945 218.203 224.976 218.06 224.976 217.906C224.976 217.736 224.937 217.589 224.86 217.466C224.782 217.341 224.676 217.245 224.542 217.179C224.407 217.111 224.255 217.077 224.084 217.077C223.906 217.077 223.751 217.113 223.618 217.185C223.486 217.257 223.383 217.36 223.311 217.494C223.239 217.629 223.203 217.789 223.203 217.974H222.036C222.036 217.594 222.122 217.263 222.294 216.983C222.467 216.703 222.708 216.486 223.019 216.332C223.329 216.179 223.687 216.102 224.093 216.102C224.509 216.102 224.872 216.176 225.181 216.324C225.491 216.47 225.733 216.672 225.905 216.932C226.078 217.191 226.164 217.489 226.164 217.824C226.164 218.044 226.12 218.26 226.033 218.474C225.948 218.688 225.795 218.926 225.576 219.188C225.356 219.447 225.046 219.759 224.647 220.122L223.797 220.955V220.994H226.24V222H222.093Z" fill="#CCCCCC"/>
<path d="M525.714 225L525.559 225.475L525.854 225.572L526.071 225.35L525.714 225ZM529.143 221.5L528.935 221.045L528.85 221.084L528.786 221.15L529.143 221.5ZM541.143 216L541.345 215.543L541.139 215.452L540.935 215.545L541.143 216ZM553.571 221.5L553.369 221.957L553.386 221.965L553.404 221.971L553.571 221.5ZM563.429 225L563.261 225.471L563.525 225.565L563.743 225.389L563.429 225ZM569 220.5L569.314 220.889L569.335 220.872L569.354 220.854L569 220.5ZM579 211C579 210.724 578.776 210.5 578.5 210.5H574C573.724 210.5 573.5 210.724 573.5 211C573.5 211.276 573.724 211.5 574 211.5H578V215.5C578 215.776 578.224 216 578.5 216C578.776 216 579 215.776 579 215.5V211ZM514.845 221.975L525.559 225.475L525.87 224.525L515.155 221.025L514.845 221.975ZM526.071 225.35L529.5 221.85L528.786 221.15L525.357 224.65L526.071 225.35ZM529.351 221.955L541.351 216.455L540.935 215.545L528.935 221.045L529.351 221.955ZM540.941 216.457L553.369 221.957L553.774 221.043L541.345 215.543L540.941 216.457ZM553.404 221.971L563.261 225.471L563.596 224.529L553.739 221.029L553.404 221.971ZM563.743 225.389L569.314 220.889L568.686 220.111L563.114 224.611L563.743 225.389ZM569.354 220.854L578.854 211.354L578.146 210.646L568.646 220.146L569.354 220.854Z" fill="#CCCCCC"/>
<path d="M237.172 223H236.337L239.511 214.273H240.364L243.538 223H242.703L239.967 215.308H239.908L237.172 223ZM237.773 219.655H242.102V220.371H237.773V219.655ZM245.034 223V214.273H247.851C248.47 214.273 248.987 214.392 249.402 214.631C249.82 214.866 250.134 215.188 250.344 215.594C250.557 216 250.663 216.457 250.663 216.966C250.663 217.474 250.558 217.933 250.348 218.342C250.138 218.749 249.825 219.071 249.411 219.31C248.996 219.545 248.48 219.663 247.864 219.663H245.648V218.947H247.842C248.3 218.947 248.679 218.862 248.98 218.692C249.281 218.518 249.506 218.283 249.653 217.984C249.804 217.686 249.879 217.347 249.879 216.966C249.879 216.585 249.804 216.246 249.653 215.947C249.506 215.649 249.28 215.415 248.976 215.244C248.675 215.074 248.293 214.989 247.83 214.989H245.831V223H245.034ZM253.331 214.273V223H252.534V214.273H253.331ZM259.039 214.273L261.766 221.964H261.843L264.57 214.273H265.406L262.231 223H261.379L258.204 214.273H259.039ZM269.462 223.119C269.102 223.116 268.749 223.044 268.406 222.902C268.062 222.757 267.752 222.526 267.477 222.207C267.201 221.886 266.982 221.463 266.82 220.938C266.658 220.412 266.577 219.766 266.577 218.999C266.577 218.286 266.64 217.634 266.765 217.043C266.89 216.449 267.077 215.936 267.327 215.504C267.577 215.07 267.89 214.734 268.265 214.499C268.64 214.26 269.079 214.141 269.582 214.141C270.053 214.141 270.469 214.239 270.83 214.435C271.191 214.631 271.484 214.902 271.708 215.249C271.933 215.595 272.073 215.997 272.13 216.455H271.346C271.266 215.989 271.077 215.607 270.779 215.308C270.481 215.007 270.082 214.857 269.582 214.857C268.866 214.857 268.312 215.189 267.92 215.854C267.528 216.518 267.33 217.463 267.327 218.688H267.383C267.522 218.429 267.701 218.206 267.92 218.018C268.141 217.828 268.393 217.68 268.674 217.575C268.955 217.467 269.251 217.413 269.56 217.413C270.046 217.413 270.491 217.537 270.894 217.784C271.298 218.028 271.62 218.365 271.862 218.794C272.103 219.22 272.224 219.707 272.224 220.256C272.224 220.776 272.109 221.254 271.879 221.692C271.651 222.129 271.33 222.477 270.915 222.736C270.504 222.994 270.019 223.122 269.462 223.119ZM269.462 222.403C269.843 222.403 270.183 222.307 270.481 222.114C270.782 221.92 271.019 221.662 271.192 221.338C271.366 221.011 271.452 220.651 271.452 220.256C271.452 219.861 271.366 219.503 271.192 219.182C271.019 218.861 270.782 218.605 270.481 218.415C270.183 218.224 269.843 218.129 269.462 218.129C269.173 218.129 268.903 218.189 268.653 218.308C268.403 218.425 268.185 218.585 268.001 218.79C267.819 218.991 267.68 219.223 267.583 219.484C267.489 219.746 267.454 220.02 267.477 220.307C267.508 220.707 267.612 221.067 267.788 221.385C267.967 221.7 268.2 221.949 268.487 222.131C268.776 222.312 269.102 222.403 269.462 222.403Z" fill="#CCCCCC"/>
<rect x="202.5" y="242.5" width="389" height="30" rx="3.5" fill="white" stroke="#CCCCCC"/>
<path d="M221.5 247C223.297 247 225.063 247.461 226.631 248.339C228.198 249.217 229.514 250.482 230.453 252.014C231.391 253.546 231.921 255.293 231.992 257.088C232.062 258.883 231.671 260.666 230.856 262.267C230.04 263.868 228.827 265.232 227.333 266.23C225.84 267.229 224.115 267.827 222.324 267.968C220.533 268.109 218.736 267.788 217.104 267.036C215.473 266.283 214.061 265.125 213.005 263.672L214.704 262.437C215.549 263.6 216.678 264.527 217.983 265.128C219.288 265.73 220.726 265.987 222.159 265.874C223.592 265.761 224.972 265.283 226.167 264.484C227.362 263.686 228.332 262.594 228.984 261.314C229.637 260.033 229.95 258.606 229.894 257.17C229.837 255.734 229.413 254.336 228.662 253.111C227.911 251.886 226.858 250.873 225.604 250.171C224.35 249.469 222.937 249.1 221.5 249.1V247Z" fill="#CCCCCC"/>
<path d="M218.986 261.08C218.687 261.078 218.398 261.027 218.119 260.929C217.843 260.83 217.595 260.67 217.375 260.449C217.157 260.227 216.984 259.934 216.855 259.568C216.728 259.203 216.664 258.754 216.662 258.222C216.664 257.729 216.72 257.289 216.83 256.901C216.941 256.512 217.1 256.184 217.307 255.915C217.515 255.644 217.764 255.438 218.054 255.298C218.344 255.156 218.669 255.085 219.028 255.085C219.417 255.085 219.759 255.161 220.057 255.312C220.354 255.464 220.593 255.67 220.773 255.929C220.955 256.188 221.064 256.481 221.102 256.807H219.889C219.842 256.595 219.742 256.431 219.591 256.315C219.439 256.198 219.252 256.139 219.028 256.139C218.65 256.139 218.362 256.305 218.165 256.636C217.97 256.966 217.87 257.419 217.866 257.994H217.906C217.993 257.822 218.111 257.675 218.259 257.554C218.408 257.431 218.578 257.337 218.767 257.273C218.958 257.206 219.16 257.173 219.372 257.173C219.717 257.173 220.024 257.255 220.293 257.418C220.562 257.579 220.774 257.8 220.929 258.082C221.084 258.365 221.162 258.687 221.162 259.051C221.162 259.445 221.07 259.795 220.886 260.102C220.705 260.409 220.45 260.65 220.122 260.824C219.796 260.996 219.418 261.081 218.986 261.08ZM218.98 260.114C219.17 260.114 219.339 260.068 219.489 259.977C219.638 259.886 219.756 259.763 219.841 259.608C219.926 259.453 219.969 259.278 219.969 259.085C219.969 258.892 219.926 258.719 219.841 258.565C219.758 258.412 219.642 258.29 219.494 258.199C219.347 258.108 219.178 258.062 218.989 258.062C218.847 258.062 218.715 258.089 218.594 258.142C218.474 258.195 218.369 258.269 218.278 258.364C218.189 258.458 218.119 258.568 218.068 258.693C218.017 258.816 217.991 258.948 217.991 259.088C217.991 259.276 218.034 259.447 218.119 259.602C218.206 259.758 218.324 259.882 218.472 259.974C218.621 260.067 218.791 260.114 218.98 260.114ZM224.159 261.08C223.758 261.08 223.4 261.006 223.085 260.858C222.773 260.71 222.525 260.507 222.341 260.247C222.157 259.988 222.062 259.69 222.054 259.355H223.247C223.26 259.58 223.355 259.763 223.531 259.903C223.707 260.044 223.917 260.114 224.159 260.114C224.352 260.114 224.523 260.071 224.67 259.986C224.82 259.899 224.937 259.778 225.02 259.625C225.105 259.47 225.148 259.292 225.148 259.091C225.148 258.886 225.104 258.706 225.017 258.551C224.932 258.396 224.813 258.275 224.662 258.188C224.51 258.1 224.337 258.056 224.142 258.054C223.972 258.054 223.806 258.089 223.645 258.159C223.486 258.229 223.362 258.325 223.273 258.446L222.179 258.25L222.455 255.182H226.011V256.188H223.469L223.318 257.645H223.352C223.455 257.501 223.609 257.382 223.815 257.287C224.022 257.192 224.253 257.145 224.509 257.145C224.859 257.145 225.171 257.227 225.446 257.392C225.721 257.557 225.938 257.783 226.097 258.071C226.256 258.357 226.334 258.687 226.332 259.06C226.334 259.452 226.243 259.8 226.06 260.105C225.878 260.408 225.623 260.647 225.295 260.821C224.97 260.993 224.591 261.08 224.159 261.08Z" fill="#CCCCCC"/>
<path d="M525.714 264L525.559 264.475L525.854 264.572L526.071 264.35L525.714 264ZM529.143 260.5L528.935 260.045L528.85 260.084L528.786 260.15L529.143 260.5ZM541.143 255L541.345 254.543L541.139 254.452L540.935 254.545L541.143 255ZM553.571 260.5L553.369 260.957L553.386 260.965L553.404 260.971L553.571 260.5ZM563.429 264L563.261 264.471L563.525 264.565L563.743 264.389L563.429 264ZM569 259.5L569.314 259.889L569.335 259.872L569.354 259.854L569 259.5ZM579 250C579 249.724 578.776 249.5 578.5 249.5H574C573.724 249.5 573.5 249.724 573.5 250C573.5 250.276 573.724 250.5 574 250.5H578V254.5C578 254.776 578.224 255 578.5 255C578.776 255 579 254.776 579 254.5V250ZM514.845 260.975L525.559 264.475L525.87 263.525L515.155 260.025L514.845 260.975ZM526.071 264.35L529.5 260.85L528.786 260.15L525.357 263.65L526.071 264.35ZM529.351 260.955L541.351 255.455L540.935 254.545L528.935 260.045L529.351 260.955ZM540.941 255.457L553.369 260.957L553.774 260.043L541.345 254.543L540.941 255.457ZM553.404 260.971L563.261 264.471L563.596 263.529L553.739 260.029L553.404 260.971ZM563.743 264.389L569.314 259.889L568.686 259.111L563.114 263.611L563.743 264.389ZM569.354 259.854L578.854 250.354L578.146 249.646L568.646 259.146L569.354 259.854Z" fill="#CCCCCC"/>
<path d="M237.172 262H236.337L239.511 253.273H240.364L243.538 262H242.703L239.967 254.308H239.908L237.172 262ZM237.773 258.655H242.102V259.371H237.773V258.655ZM245.034 262V253.273H247.851C248.47 253.273 248.987 253.392 249.402 253.631C249.82 253.866 250.134 254.188 250.344 254.594C250.557 255 250.663 255.457 250.663 255.966C250.663 256.474 250.558 256.933 250.348 257.342C250.138 257.749 249.825 258.071 249.411 258.31C248.996 258.545 248.48 258.663 247.864 258.663H245.648V257.947H247.842C248.3 257.947 248.679 257.862 248.98 257.692C249.281 257.518 249.506 257.283 249.653 256.984C249.804 256.686 249.879 256.347 249.879 255.966C249.879 255.585 249.804 255.246 249.653 254.947C249.506 254.649 249.28 254.415 248.976 254.244C248.675 254.074 248.293 253.989 247.83 253.989H245.831V262H245.034ZM253.331 253.273V262H252.534V253.273H253.331ZM259.039 253.273L261.766 260.964H261.843L264.57 253.273H265.406L262.231 262H261.379L258.204 253.273H259.039ZM269.266 262.119C268.781 262.119 268.346 262.021 267.962 261.825C267.582 261.626 267.278 261.354 267.05 261.007C266.826 260.661 266.707 260.264 266.692 259.818H267.464C267.489 260.281 267.671 260.662 268.009 260.96C268.347 261.256 268.766 261.403 269.266 261.403C269.656 261.403 270.002 261.311 270.306 261.126C270.61 260.939 270.847 260.683 271.018 260.359C271.191 260.033 271.278 259.665 271.278 259.256C271.275 258.83 271.183 258.455 271.001 258.131C270.819 257.804 270.572 257.548 270.259 257.364C269.95 257.179 269.602 257.087 269.215 257.087C268.923 257.084 268.636 257.132 268.354 257.232C268.073 257.331 267.839 257.459 267.651 257.615L266.854 257.513L267.379 253.273H271.691V253.989H268.048L267.698 256.908H267.741C267.934 256.746 268.168 256.614 268.444 256.511C268.722 256.409 269.016 256.358 269.326 256.358C269.84 256.358 270.302 256.482 270.711 256.729C271.123 256.976 271.448 257.317 271.687 257.751C271.928 258.183 272.049 258.68 272.049 259.243C272.049 259.794 271.928 260.287 271.687 260.722C271.448 261.153 271.119 261.494 270.698 261.744C270.281 261.994 269.803 262.119 269.266 262.119Z" fill="#CCCCCC"/>
<rect x="202.5" y="281.5" width="389" height="30" rx="3.5" fill="white" stroke="#CCCCCC"/>
<path d="M221.5 286C224 286 226.418 286.892 228.319 288.516C230.22 290.139 231.48 292.388 231.871 294.857C232.262 297.327 231.759 299.855 230.453 301.986C229.146 304.118 227.122 305.714 224.745 306.486L224.096 304.489C225.998 303.871 227.617 302.594 228.662 300.889C229.707 299.184 230.109 297.161 229.797 295.186C229.484 293.211 228.476 291.412 226.955 290.113C225.435 288.814 223.5 288.1 221.5 288.1V286Z" fill="#CCCCCC"/>
<path d="M216.594 298.977V298.009L219.023 294.182H219.859V295.523H219.364L217.833 297.946V297.991H221.285V298.977H216.594ZM219.387 300V298.682L219.41 298.253V294.182H220.563V300H219.387ZM224.229 300.08C223.828 300.08 223.47 300.006 223.156 299.858C222.843 299.71 222.595 299.507 222.411 299.247C222.228 298.988 222.132 298.69 222.124 298.355H223.317C223.331 298.58 223.425 298.763 223.602 298.903C223.778 299.044 223.987 299.114 224.229 299.114C224.423 299.114 224.593 299.071 224.741 298.986C224.89 298.899 225.007 298.778 225.09 298.625C225.175 298.47 225.218 298.292 225.218 298.091C225.218 297.886 225.174 297.706 225.087 297.551C225.002 297.396 224.884 297.275 224.732 297.188C224.581 297.1 224.407 297.056 224.212 297.054C224.042 297.054 223.876 297.089 223.715 297.159C223.556 297.229 223.432 297.325 223.343 297.446L222.249 297.25L222.525 294.182H226.082V295.188H223.539L223.388 296.645H223.423C223.525 296.501 223.679 296.382 223.886 296.287C224.092 296.192 224.323 296.145 224.579 296.145C224.929 296.145 225.242 296.227 225.516 296.392C225.791 296.557 226.008 296.783 226.167 297.071C226.326 297.357 226.405 297.687 226.403 298.06C226.405 298.452 226.314 298.8 226.13 299.105C225.948 299.408 225.693 299.647 225.366 299.821C225.04 299.993 224.661 300.08 224.229 300.08Z" fill="#CCCCCC"/>
<path d="M525.714 303L525.559 303.475L525.854 303.572L526.071 303.35L525.714 303ZM529.143 299.5L528.935 299.045L528.85 299.084L528.786 299.15L529.143 299.5ZM541.143 294L541.345 293.543L541.139 293.452L540.935 293.545L541.143 294ZM553.571 299.5L553.369 299.957L553.386 299.965L553.404 299.971L553.571 299.5ZM563.429 303L563.261 303.471L563.525 303.565L563.743 303.389L563.429 303ZM569 298.5L569.314 298.889L569.335 298.872L569.354 298.854L569 298.5ZM579 289C579 288.724 578.776 288.5 578.5 288.5H574C573.724 288.5 573.5 288.724 573.5 289C573.5 289.276 573.724 289.5 574 289.5H578V293.5C578 293.776 578.224 294 578.5 294C578.776 294 579 293.776 579 293.5V289ZM514.845 299.975L525.559 303.475L525.87 302.525L515.155 299.025L514.845 299.975ZM526.071 303.35L529.5 299.85L528.786 299.15L525.357 302.65L526.071 303.35ZM529.351 299.955L541.351 294.455L540.935 293.545L528.935 299.045L529.351 299.955ZM540.941 294.457L553.369 299.957L553.774 299.043L541.345 293.543L540.941 294.457ZM553.404 299.971L563.261 303.471L563.596 302.529L553.739 299.029L553.404 299.971ZM563.743 303.389L569.314 298.889L568.686 298.111L563.114 302.611L563.743 303.389ZM569.354 298.854L578.854 289.354L578.146 288.646L568.646 298.146L569.354 298.854Z" fill="#CCCCCC"/>
<path d="M237.172 301H236.337L239.511 292.273H240.364L243.538 301H242.703L239.967 293.308H239.908L237.172 301ZM237.773 297.655H242.102V298.371H237.773V297.655ZM245.034 301V292.273H247.851C248.47 292.273 248.987 292.392 249.402 292.631C249.82 292.866 250.134 293.188 250.344 293.594C250.557 294 250.663 294.457 250.663 294.966C250.663 295.474 250.558 295.933 250.348 296.342C250.138 296.749 249.825 297.071 249.411 297.31C248.996 297.545 248.48 297.663 247.864 297.663H245.648V296.947H247.842C248.3 296.947 248.679 296.862 248.98 296.692C249.281 296.518 249.506 296.283 249.653 295.984C249.804 295.686 249.879 295.347 249.879 294.966C249.879 294.585 249.804 294.246 249.653 293.947C249.506 293.649 249.28 293.415 248.976 293.244C248.675 293.074 248.293 292.989 247.83 292.989H245.831V301H245.034ZM253.331 292.273V301H252.534V292.273H253.331ZM259.039 292.273L261.766 299.964H261.843L264.57 292.273H265.406L262.231 301H261.379L258.204 292.273H259.039ZM266.095 299.125V298.477L269.985 292.273H270.463V293.359H270.109L266.985 298.354V298.409H272.086V299.125H266.095ZM270.169 301V298.92V298.622V292.273H270.927V301H270.169Z" fill="#CCCCCC"/>
<rect x="202.5" y="320.5" width="389" height="30" rx="3.5" fill="white" stroke="#CCCCCC"/>
<path d="M221.5 325C223.717 325 225.878 325.702 227.672 327.005C229.466 328.309 230.801 330.146 231.486 332.255C232.171 334.364 232.171 336.636 231.486 338.745C230.801 340.854 229.466 342.691 227.672 343.995L226.437 342.296C227.873 341.253 228.941 339.783 229.489 338.096C230.037 336.409 230.037 334.591 229.489 332.904C228.941 331.217 227.873 329.747 226.437 328.704C225.002 327.662 223.274 327.1 221.5 327.1V325Z" fill="#CCCCCC"/>
<path d="M216.419 337.977V337.009L218.848 333.182H219.683V334.523H219.189L217.657 336.946V336.991H221.109V337.977H216.419ZM219.211 339V337.682L219.234 337.253V333.182H220.387V339H219.211ZM224.21 339.128C223.721 339.126 223.301 339.006 222.949 338.767C222.598 338.528 222.328 338.183 222.139 337.73C221.951 337.277 221.859 336.733 221.86 336.097C221.86 335.462 221.954 334.921 222.142 334.474C222.331 334.027 222.601 333.687 222.951 333.455C223.304 333.22 223.723 333.102 224.21 333.102C224.697 333.102 225.115 333.22 225.466 333.455C225.818 333.689 226.089 334.03 226.278 334.477C226.467 334.922 226.561 335.462 226.559 336.097C226.559 336.735 226.465 337.28 226.275 337.733C226.088 338.186 225.819 338.531 225.468 338.77C225.118 339.009 224.699 339.128 224.21 339.128ZM224.21 338.108C224.543 338.108 224.809 337.94 225.008 337.605C225.207 337.27 225.306 336.767 225.304 336.097C225.304 335.655 225.258 335.288 225.167 334.994C225.078 334.701 224.951 334.48 224.787 334.332C224.624 334.185 224.431 334.111 224.21 334.111C223.878 334.111 223.613 334.277 223.414 334.608C223.216 334.939 223.115 335.436 223.113 336.097C223.113 336.544 223.158 336.917 223.247 337.216C223.338 337.513 223.466 337.737 223.63 337.886C223.795 338.034 223.988 338.108 224.21 338.108Z" fill="#CCCCCC"/>
<path d="M525.714 342L525.559 342.475L525.854 342.572L526.071 342.35L525.714 342ZM529.143 338.5L528.935 338.045L528.85 338.084L528.786 338.15L529.143 338.5ZM541.143 333L541.345 332.543L541.139 332.452L540.935 332.545L541.143 333ZM553.571 338.5L553.369 338.957L553.386 338.965L553.404 338.971L553.571 338.5ZM563.429 342L563.261 342.471L563.525 342.565L563.743 342.389L563.429 342ZM569 337.5L569.314 337.889L569.335 337.872L569.354 337.854L569 337.5ZM579 328C579 327.724 578.776 327.5 578.5 327.5H574C573.724 327.5 573.5 327.724 573.5 328C573.5 328.276 573.724 328.5 574 328.5H578V332.5C578 332.776 578.224 333 578.5 333C578.776 333 579 332.776 579 332.5V328ZM514.845 338.975L525.559 342.475L525.87 341.525L515.155 338.025L514.845 338.975ZM526.071 342.35L529.5 338.85L528.786 338.15L525.357 341.65L526.071 342.35ZM529.351 338.955L541.351 333.455L540.935 332.545L528.935 338.045L529.351 338.955ZM540.941 333.457L553.369 338.957L553.774 338.043L541.345 332.543L540.941 333.457ZM553.404 338.971L563.261 342.471L563.596 341.529L553.739 338.029L553.404 338.971ZM563.743 342.389L569.314 337.889L568.686 337.111L563.114 341.611L563.743 342.389ZM569.354 337.854L578.854 328.354L578.146 327.646L568.646 337.146L569.354 337.854Z" fill="#CCCCCC"/>
<path d="M237.172 340H236.337L239.511 331.273H240.364L243.538 340H242.703L239.967 332.308H239.908L237.172 340ZM237.773 336.655H242.102V337.371H237.773V336.655ZM245.034 340V331.273H247.851C248.47 331.273 248.987 331.392 249.402 331.631C249.82 331.866 250.134 332.188 250.344 332.594C250.557 333 250.663 333.457 250.663 333.966C250.663 334.474 250.558 334.933 250.348 335.342C250.138 335.749 249.825 336.071 249.411 336.31C248.996 336.545 248.48 336.663 247.864 336.663H245.648V335.947H247.842C248.3 335.947 248.679 335.862 248.98 335.692C249.281 335.518 249.506 335.283 249.653 334.984C249.804 334.686 249.879 334.347 249.879 333.966C249.879 333.585 249.804 333.246 249.653 332.947C249.506 332.649 249.28 332.415 248.976 332.244C248.675 332.074 248.293 331.989 247.83 331.989H245.831V340H245.034ZM253.331 331.273V340H252.534V331.273H253.331ZM259.039 331.273L261.766 338.964H261.843L264.57 331.273H265.406L262.231 340H261.379L258.204 331.273H259.039ZM269.548 340.119C269.011 340.119 268.531 340.023 268.107 339.83C267.684 339.634 267.349 339.362 267.102 339.016C266.854 338.669 266.724 338.27 266.71 337.818H267.515C267.529 338.136 267.627 338.415 267.809 338.653C267.991 338.889 268.232 339.074 268.533 339.207C268.835 339.338 269.17 339.403 269.539 339.403C269.942 339.403 270.298 339.328 270.604 339.178C270.914 339.027 271.156 338.821 271.329 338.56C271.505 338.295 271.593 337.997 271.593 337.665C271.593 337.312 271.504 337.001 271.325 336.732C271.146 336.462 270.888 336.251 270.553 336.101C270.221 335.95 269.823 335.875 269.36 335.875H268.849V335.159H269.36C269.738 335.159 270.072 335.091 270.362 334.955C270.654 334.815 270.884 334.621 271.052 334.371C271.219 334.121 271.303 333.827 271.303 333.489C271.303 333.168 271.231 332.885 271.086 332.641C270.941 332.396 270.737 332.205 270.472 332.065C270.211 331.926 269.906 331.857 269.556 331.857C269.218 331.857 268.908 331.922 268.627 332.053C268.346 332.183 268.119 332.368 267.945 332.607C267.775 332.845 267.684 333.128 267.673 333.455H266.901C266.913 333 267.038 332.601 267.276 332.257C267.518 331.911 267.837 331.641 268.235 331.447C268.636 331.251 269.079 331.153 269.565 331.153C270.079 331.153 270.523 331.259 270.898 331.469C271.273 331.679 271.563 331.959 271.768 332.308C271.975 332.655 272.079 333.037 272.079 333.455C272.079 333.952 271.944 334.378 271.674 334.733C271.404 335.085 271.04 335.33 270.583 335.466V335.521C271.14 335.632 271.577 335.879 271.896 336.263C272.217 336.643 272.377 337.111 272.377 337.665C272.377 338.131 272.255 338.55 272.011 338.922C271.766 339.291 271.431 339.584 271.005 339.8C270.582 340.013 270.096 340.119 269.548 340.119Z" fill="#CCCCCC"/>
<rect x="179" y="121" width="437" height="2" fill="#EEEEEE"/>
<g filter="url(#filter1_d_7488_184100)">
<rect x="78" y="110" width="600" height="320" rx="12" fill="#1E1E1E"/>
<path d="M78 122C78 115.373 83.3726 110 90 110H666C672.627 110 678 115.373 678 122V134H78V122Z" fill="#3A3D41"/>
<path d="M94 126C96.2092 126 98 124.209 98 122C98 119.791 96.2092 118 94 118C91.7908 118 90 119.791 90 122C90 124.209 91.7908 126 94 126Z" fill="#EE7773"/>
<path d="M108 126C110.209 126 112 124.209 112 122C112 119.791 110.209 118 108 118C105.791 118 104 119.791 104 122C104 124.209 105.791 126 108 126Z" fill="#F3DA92"/>
<path d="M122 126C124.209 126 126 124.209 126 122C126 119.791 124.209 118 122 118C119.791 118 118 119.791 118 122C118 124.209 119.791 126 122 126Z" fill="#B9DBC0"/>
<path d="M78 134H118V430H90C83.3726 430 78 424.627 78 418V134Z" fill="#333333"/>
<rect x="88" y="168" width="20" height="20" rx="10" fill="#606060"/>
<rect x="88" y="200" width="20" height="20" rx="10" fill="#606060"/>
<rect x="88" y="232" width="20" height="20" rx="10" fill="#606060"/>
<rect x="88" y="264" width="20" height="20" rx="10" fill="white"/>
<rect x="78" y="264" width="2" height="20" fill="white"/>
<rect x="118" y="134" width="124" height="296" fill="#292929"/>
<rect x="130" y="178" width="100" height="118" rx="2" fill="#3C3C3C"/>
<rect x="140" y="204" width="80" height="12" fill="#454545"/>
<rect x="140" y="186" width="80" height="12" fill="#606060"/>
<rect x="140" y="222" width="80" height="12" fill="#454545"/>
<rect x="140" y="240" width="80" height="12" fill="#454545"/>
<rect x="140" y="258" width="80" height="12" fill="#454545"/>
<rect x="140" y="276" width="80" height="12" fill="#454545"/>
<rect x="130" y="154" width="100" height="18" rx="2" fill="#3C3C3C"/>
<rect x="130" y="302" width="100" height="18" rx="2" fill="#3C3C3C"/>
<rect x="130" y="326" width="100" height="18" rx="2" fill="#3C3C3C"/>
<rect x="130" y="350" width="100" height="18" rx="2" fill="#3C3C3C"/>
<rect x="130" y="374" width="100" height="18" rx="2" fill="#3C3C3C"/>
<rect x="320" y="166" width="77" height="12" fill="#3A3D41"/>
<rect x="577" y="169" width="77" height="18" fill="#3A3D41"/>
<rect x="320" y="184" width="171" height="6" fill="#292929"/>
<path d="M287.5 154C293.564 154 299.394 156.344 303.77 160.543C308.146 164.741 310.729 170.469 310.98 176.528C311.231 182.587 309.129 188.509 305.115 193.055C301.101 197.6 295.486 200.418 289.442 200.92C283.398 201.421 277.395 199.566 272.687 195.744C267.979 191.921 264.931 186.427 264.181 180.409C263.43 174.391 265.035 168.316 268.659 163.454C272.284 158.592 277.648 155.32 283.629 154.321L284.546 159.809C279.981 160.572 275.887 163.069 273.12 166.78C270.354 170.491 269.129 175.127 269.702 179.72C270.275 184.313 272.601 188.506 276.195 191.424C279.788 194.341 284.37 195.757 288.982 195.374C293.595 194.992 297.881 192.841 300.944 189.372C304.008 185.902 305.612 181.383 305.42 176.758C305.229 172.134 303.257 167.762 299.917 164.558C296.578 161.354 292.128 159.564 287.5 159.564V154Z" fill="#7ADF2B"/>
<path d="M281.591 171.17C282.189 171.17 282.765 171.271 283.318 171.472C283.875 171.669 284.371 171.989 284.807 172.432C285.246 172.875 285.593 173.462 285.847 174.193C286.104 174.92 286.235 175.816 286.239 176.881C286.235 177.869 286.121 178.752 285.898 179.528C285.678 180.301 285.362 180.958 284.949 181.5C284.536 182.042 284.038 182.455 283.455 182.739C282.875 183.019 282.225 183.159 281.506 183.159C280.729 183.159 280.044 183.009 279.449 182.71C278.854 182.407 278.375 181.996 278.011 181.477C277.652 180.955 277.434 180.367 277.358 179.716H279.784C279.879 180.14 280.078 180.47 280.381 180.705C280.684 180.936 281.059 181.051 281.506 181.051C282.263 181.051 282.839 180.722 283.233 180.062C283.627 179.4 283.826 178.492 283.83 177.341H283.75C283.576 177.682 283.341 177.975 283.045 178.222C282.75 178.464 282.411 178.652 282.028 178.784C281.65 178.917 281.246 178.983 280.818 178.983C280.133 178.983 279.519 178.822 278.977 178.5C278.439 178.178 278.015 177.735 277.705 177.17C277.394 176.602 277.241 175.955 277.244 175.227C277.241 174.439 277.42 173.741 277.784 173.131C278.148 172.517 278.655 172.036 279.307 171.688C279.962 171.339 280.723 171.167 281.591 171.17ZM281.608 173.102C281.225 173.102 280.884 173.193 280.585 173.375C280.29 173.557 280.055 173.803 279.881 174.114C279.71 174.424 279.627 174.773 279.631 175.159C279.627 175.545 279.708 175.892 279.875 176.199C280.045 176.506 280.278 176.75 280.574 176.932C280.869 177.11 281.206 177.199 281.585 177.199C281.869 177.199 282.131 177.146 282.369 177.04C282.612 176.934 282.822 176.788 283 176.602C283.182 176.413 283.324 176.195 283.426 175.949C283.528 175.699 283.581 175.432 283.585 175.148C283.581 174.773 283.494 174.43 283.324 174.119C283.153 173.809 282.919 173.562 282.619 173.381C282.32 173.195 281.983 173.102 281.608 173.102ZM292.153 171.17C292.752 171.17 293.328 171.271 293.881 171.472C294.438 171.669 294.934 171.989 295.369 172.432C295.809 172.875 296.155 173.462 296.409 174.193C296.667 174.92 296.797 175.816 296.801 176.881C296.797 177.869 296.684 178.752 296.46 179.528C296.241 180.301 295.924 180.958 295.511 181.5C295.098 182.042 294.6 182.455 294.017 182.739C293.438 183.019 292.788 183.159 292.068 183.159C291.292 183.159 290.606 183.009 290.011 182.71C289.417 182.407 288.938 181.996 288.574 181.477C288.214 180.955 287.996 180.367 287.92 179.716H290.347C290.441 180.14 290.64 180.47 290.943 180.705C291.246 180.936 291.621 181.051 292.068 181.051C292.826 181.051 293.402 180.722 293.795 180.062C294.189 179.4 294.388 178.492 294.392 177.341H294.312C294.138 177.682 293.903 177.975 293.608 178.222C293.313 178.464 292.973 178.652 292.591 178.784C292.212 178.917 291.809 178.983 291.381 178.983C290.695 178.983 290.081 178.822 289.54 178.5C289.002 178.178 288.578 177.735 288.267 177.17C287.956 176.602 287.803 175.955 287.807 175.227C287.803 174.439 287.983 173.741 288.347 173.131C288.71 172.517 289.218 172.036 289.869 171.688C290.525 171.339 291.286 171.167 292.153 171.17ZM292.17 173.102C291.788 173.102 291.447 173.193 291.148 173.375C290.852 173.557 290.617 173.803 290.443 174.114C290.273 174.424 290.189 174.773 290.193 175.159C290.189 175.545 290.271 175.892 290.438 176.199C290.608 176.506 290.841 176.75 291.136 176.932C291.432 177.11 291.769 177.199 292.148 177.199C292.432 177.199 292.693 177.146 292.932 177.04C293.174 176.934 293.384 176.788 293.562 176.602C293.744 176.413 293.886 176.195 293.989 175.949C294.091 175.699 294.144 175.432 294.148 175.148C294.144 174.773 294.057 174.43 293.886 174.119C293.716 173.809 293.481 173.562 293.182 173.381C292.883 173.195 292.545 173.102 292.17 173.102Z" fill="#7ADF2B"/>
<rect x="264" y="250" width="66" height="6" fill="#292929"/>
<rect x="264" y="262" width="390" height="6" fill="#292929"/>
<rect x="264" y="274" width="390" height="6" fill="#292929"/>
<rect x="264" y="299" width="390" height="31" rx="4" fill="#292929"/>
<path d="M283.5 304C286.256 304 288.902 305.084 290.866 307.017C292.83 308.951 293.955 311.579 293.999 314.335C294.042 317.091 293 319.753 291.097 321.748C289.195 323.742 286.585 324.908 283.83 324.995C281.075 325.081 278.397 324.081 276.373 322.21C274.349 320.339 273.141 317.748 273.012 314.995C272.882 312.241 273.84 309.548 275.679 307.495C277.518 305.441 280.09 304.194 282.841 304.021L282.973 306.117C280.772 306.255 278.714 307.253 277.243 308.896C275.772 310.538 275.005 312.693 275.109 314.896C275.213 317.098 276.179 319.172 277.798 320.668C279.417 322.165 281.56 322.965 283.764 322.896C285.968 322.827 288.056 321.894 289.578 320.298C291.1 318.703 291.934 316.573 291.899 314.368C291.864 312.163 290.964 310.061 289.393 308.514C287.822 306.967 285.705 306.1 283.5 306.1V304Z" fill="#7ADF2B"/>
<path d="M280.795 311.085C281.095 311.085 281.383 311.135 281.659 311.236C281.938 311.334 282.186 311.494 282.403 311.716C282.623 311.938 282.796 312.231 282.923 312.597C283.052 312.96 283.117 313.408 283.119 313.94C283.117 314.435 283.061 314.876 282.949 315.264C282.839 315.651 282.681 315.979 282.474 316.25C282.268 316.521 282.019 316.727 281.727 316.869C281.438 317.009 281.113 317.08 280.753 317.08C280.365 317.08 280.022 317.005 279.724 316.855C279.427 316.704 279.188 316.498 279.006 316.239C278.826 315.977 278.717 315.684 278.679 315.358H279.892C279.939 315.57 280.039 315.735 280.19 315.852C280.342 315.968 280.529 316.026 280.753 316.026C281.132 316.026 281.42 315.861 281.616 315.531C281.813 315.2 281.913 314.746 281.915 314.17H281.875C281.788 314.341 281.67 314.488 281.523 314.611C281.375 314.732 281.205 314.826 281.014 314.892C280.825 314.958 280.623 314.991 280.409 314.991C280.066 314.991 279.759 314.911 279.489 314.75C279.22 314.589 279.008 314.367 278.852 314.085C278.697 313.801 278.62 313.477 278.622 313.114C278.62 312.72 278.71 312.37 278.892 312.065C279.074 311.759 279.328 311.518 279.653 311.344C279.981 311.17 280.362 311.083 280.795 311.085ZM280.804 312.051C280.613 312.051 280.442 312.097 280.293 312.188C280.145 312.278 280.027 312.402 279.94 312.557C279.855 312.712 279.813 312.886 279.815 313.08C279.813 313.273 279.854 313.446 279.938 313.599C280.023 313.753 280.139 313.875 280.287 313.966C280.435 314.055 280.603 314.099 280.793 314.099C280.935 314.099 281.065 314.073 281.185 314.02C281.306 313.967 281.411 313.894 281.5 313.801C281.591 313.706 281.662 313.598 281.713 313.474C281.764 313.349 281.791 313.216 281.793 313.074C281.791 312.886 281.747 312.715 281.662 312.56C281.577 312.404 281.459 312.281 281.31 312.19C281.16 312.098 280.991 312.051 280.804 312.051ZM286.077 311.085C286.376 311.085 286.664 311.135 286.94 311.236C287.219 311.334 287.467 311.494 287.685 311.716C287.904 311.938 288.078 312.231 288.205 312.597C288.333 312.96 288.399 313.408 288.401 313.94C288.399 314.435 288.342 314.876 288.23 315.264C288.12 315.651 287.962 315.979 287.756 316.25C287.549 316.521 287.3 316.727 287.009 316.869C286.719 317.009 286.394 317.08 286.034 317.08C285.646 317.08 285.303 317.005 285.006 316.855C284.708 316.704 284.469 316.498 284.287 316.239C284.107 315.977 283.998 315.684 283.96 315.358H285.173C285.221 315.57 285.32 315.735 285.472 315.852C285.623 315.968 285.811 316.026 286.034 316.026C286.413 316.026 286.701 315.861 286.898 315.531C287.095 315.2 287.194 314.746 287.196 314.17H287.156C287.069 314.341 286.952 314.488 286.804 314.611C286.656 314.732 286.487 314.826 286.295 314.892C286.106 314.958 285.904 314.991 285.69 314.991C285.348 314.991 285.041 314.911 284.77 314.75C284.501 314.589 284.289 314.367 284.134 314.085C283.978 313.801 283.902 313.477 283.903 313.114C283.902 312.72 283.991 312.37 284.173 312.065C284.355 311.759 284.609 311.518 284.935 311.344C285.262 311.17 285.643 311.083 286.077 311.085ZM286.085 312.051C285.894 312.051 285.723 312.097 285.574 312.188C285.426 312.278 285.309 312.402 285.222 312.557C285.136 312.712 285.095 312.886 285.097 313.08C285.095 313.273 285.135 313.446 285.219 313.599C285.304 313.753 285.42 313.875 285.568 313.966C285.716 314.055 285.884 314.099 286.074 314.099C286.216 314.099 286.347 314.073 286.466 314.02C286.587 313.967 286.692 313.894 286.781 313.801C286.872 313.706 286.943 313.598 286.994 313.474C287.045 313.349 287.072 313.216 287.074 313.074C287.072 312.886 287.028 312.715 286.943 312.56C286.858 312.404 286.741 312.281 286.591 312.19C286.441 312.098 286.273 312.051 286.085 312.051Z" fill="#7ADF2B"/>
<path d="M587.714 321L587.559 321.475L587.854 321.572L588.071 321.35L587.714 321ZM591.143 317.5L590.935 317.045L590.85 317.084L590.786 317.15L591.143 317.5ZM603.143 312L603.345 311.543L603.139 311.452L602.935 311.545L603.143 312ZM615.571 317.5L615.369 317.957L615.386 317.965L615.404 317.971L615.571 317.5ZM625.429 321L625.261 321.471L625.525 321.565L625.743 321.389L625.429 321ZM631 316.5L631.314 316.889L631.335 316.872L631.354 316.854L631 316.5ZM641 307C641 306.724 640.776 306.5 640.5 306.5H636C635.724 306.5 635.5 306.724 635.5 307C635.5 307.276 635.724 307.5 636 307.5H640V311.5C640 311.776 640.224 312 640.5 312C640.776 312 641 311.776 641 311.5V307ZM576.845 317.975L587.559 321.475L587.87 320.525L577.155 317.025L576.845 317.975ZM588.071 321.35L591.5 317.85L590.786 317.15L587.357 320.65L588.071 321.35ZM591.351 317.955L603.351 312.455L602.935 311.545L590.935 317.045L591.351 317.955ZM602.941 312.457L615.369 317.957L615.774 317.043L603.345 311.543L602.941 312.457ZM615.404 317.971L625.261 321.471L625.596 320.529L615.739 317.029L615.404 317.971ZM625.743 321.389L631.314 316.889L630.686 316.111L625.114 320.611L625.743 321.389ZM631.354 316.854L640.854 307.354L640.146 306.646L630.646 316.146L631.354 316.854Z" fill="#CCCCCC"/>
<path d="M299.172 319H298.337L301.511 310.273H302.364L305.538 319H304.703L301.967 311.308H301.908L299.172 319ZM299.773 315.655H304.102V316.371H299.773V315.655ZM307.034 319V310.273H309.851C310.47 310.273 310.987 310.392 311.402 310.631C311.82 310.866 312.134 311.188 312.344 311.594C312.557 312 312.663 312.457 312.663 312.966C312.663 313.474 312.558 313.933 312.348 314.342C312.138 314.749 311.825 315.071 311.411 315.31C310.996 315.545 310.48 315.663 309.864 315.663H307.648V314.947H309.842C310.3 314.947 310.679 314.862 310.98 314.692C311.281 314.518 311.506 314.283 311.653 313.984C311.804 313.686 311.879 313.347 311.879 312.966C311.879 312.585 311.804 312.246 311.653 311.947C311.506 311.649 311.28 311.415 310.976 311.244C310.675 311.074 310.293 310.989 309.83 310.989H307.831V319H307.034ZM315.331 310.273V319H314.534V310.273H315.331ZM321.039 310.273L323.766 317.964H323.843L326.57 310.273H327.406L324.231 319H323.379L320.204 310.273H321.039ZM331.462 319.119C331.102 319.116 330.749 319.044 330.406 318.902C330.062 318.757 329.752 318.526 329.477 318.207C329.201 317.886 328.982 317.463 328.82 316.938C328.658 316.412 328.577 315.766 328.577 314.999C328.577 314.286 328.64 313.634 328.765 313.043C328.89 312.449 329.077 311.936 329.327 311.504C329.577 311.07 329.89 310.734 330.265 310.499C330.64 310.26 331.079 310.141 331.582 310.141C332.053 310.141 332.469 310.239 332.83 310.435C333.191 310.631 333.484 310.902 333.708 311.249C333.933 311.595 334.073 311.997 334.13 312.455H333.346C333.266 311.989 333.077 311.607 332.779 311.308C332.481 311.007 332.082 310.857 331.582 310.857C330.866 310.857 330.312 311.189 329.92 311.854C329.528 312.518 329.33 313.463 329.327 314.688H329.383C329.522 314.429 329.701 314.206 329.92 314.018C330.141 313.828 330.393 313.68 330.674 313.575C330.955 313.467 331.251 313.413 331.56 313.413C332.046 313.413 332.491 313.537 332.894 313.784C333.298 314.028 333.62 314.365 333.862 314.794C334.103 315.22 334.224 315.707 334.224 316.256C334.224 316.776 334.109 317.254 333.879 317.692C333.651 318.129 333.33 318.477 332.915 318.736C332.504 318.994 332.019 319.122 331.462 319.119ZM331.462 318.403C331.843 318.403 332.183 318.307 332.481 318.114C332.782 317.92 333.019 317.662 333.192 317.338C333.366 317.011 333.452 316.651 333.452 316.256C333.452 315.861 333.366 315.503 333.192 315.182C333.019 314.861 332.782 314.605 332.481 314.415C332.183 314.224 331.843 314.129 331.462 314.129C331.173 314.129 330.903 314.189 330.653 314.308C330.403 314.425 330.185 314.585 330.001 314.79C329.819 314.991 329.68 315.223 329.583 315.484C329.489 315.746 329.454 316.02 329.477 316.307C329.508 316.707 329.612 317.067 329.788 317.385C329.967 317.7 330.2 317.949 330.487 318.131C330.776 318.312 331.102 318.403 331.462 318.403ZM339.589 319V310.273H342.406C343.025 310.273 343.542 310.385 343.957 310.609C344.374 310.831 344.688 311.139 344.898 311.534C345.112 311.926 345.218 312.376 345.218 312.885C345.218 313.393 345.112 313.842 344.898 314.232C344.688 314.621 344.376 314.925 343.961 315.143C343.546 315.362 343.032 315.472 342.418 315.472H340.019V314.743H342.397C342.852 314.743 343.229 314.668 343.531 314.517C343.835 314.366 344.06 314.152 344.208 313.874C344.359 313.595 344.434 313.266 344.434 312.885C344.434 312.504 344.359 312.172 344.208 311.888C344.058 311.601 343.83 311.379 343.526 311.223C343.225 311.067 342.844 310.989 342.384 310.989H340.386V319H339.589ZM343.437 315.062L345.585 319H344.664L342.538 315.062H343.437ZM349.805 319.119C349.268 319.119 348.788 319.023 348.365 318.83C347.942 318.634 347.607 318.362 347.359 318.016C347.112 317.669 346.982 317.27 346.967 316.818H347.773C347.787 317.136 347.885 317.415 348.067 317.653C348.249 317.889 348.49 318.074 348.791 318.207C349.092 318.338 349.428 318.403 349.797 318.403C350.2 318.403 350.555 318.328 350.862 318.178C351.172 318.027 351.413 317.821 351.587 317.56C351.763 317.295 351.851 316.997 351.851 316.665C351.851 316.312 351.761 316.001 351.582 315.732C351.403 315.462 351.146 315.251 350.811 315.101C350.479 314.95 350.081 314.875 349.618 314.875H349.107V314.159H349.618C349.996 314.159 350.33 314.091 350.619 313.955C350.912 313.815 351.142 313.621 351.31 313.371C351.477 313.121 351.561 312.827 351.561 312.489C351.561 312.168 351.489 311.885 351.344 311.641C351.199 311.396 350.994 311.205 350.73 311.065C350.469 310.926 350.163 310.857 349.814 310.857C349.476 310.857 349.166 310.922 348.885 311.053C348.604 311.183 348.376 311.368 348.203 311.607C348.033 311.845 347.942 312.128 347.93 312.455H347.159C347.17 312 347.295 311.601 347.534 311.257C347.776 310.911 348.095 310.641 348.493 310.447C348.893 310.251 349.337 310.153 349.822 310.153C350.337 310.153 350.781 310.259 351.156 310.469C351.531 310.679 351.821 310.959 352.026 311.308C352.233 311.655 352.337 312.037 352.337 312.455C352.337 312.952 352.202 313.378 351.932 313.733C351.662 314.085 351.298 314.33 350.841 314.466V314.521C351.398 314.632 351.835 314.879 352.153 315.263C352.474 315.643 352.635 316.111 352.635 316.665C352.635 317.131 352.513 317.55 352.268 317.922C352.024 318.291 351.689 318.584 351.263 318.8C350.839 319.013 350.354 319.119 349.805 319.119Z" fill="#CCCCCC"/>
<rect x="264.5" y="338.5" width="389" height="30" rx="3.5" fill="#3A3D41" stroke="#3C3C3C"/>
<path d="M283.5 343C285.297 343 287.063 343.461 288.631 344.339C290.198 345.217 291.514 346.482 292.453 348.014C293.391 349.546 293.921 351.293 293.992 353.088C294.062 354.883 293.671 356.666 292.856 358.267C292.04 359.868 290.827 361.232 289.333 362.23C287.84 363.229 286.115 363.827 284.324 363.968C282.533 364.109 280.736 363.788 279.104 363.036C277.473 362.283 276.061 361.125 275.005 359.672L276.704 358.437C277.549 359.6 278.678 360.527 279.983 361.128C281.288 361.73 282.726 361.987 284.159 361.874C285.592 361.761 286.972 361.283 288.167 360.484C289.362 359.686 290.332 358.594 290.984 357.314C291.637 356.033 291.95 354.606 291.894 353.17C291.837 351.734 291.413 350.336 290.662 349.111C289.911 347.886 288.858 346.873 287.604 346.171C286.35 345.469 284.937 345.1 283.5 345.1V343Z" fill="#F4E345"/>
<path d="M280.986 356.08C280.687 356.078 280.398 356.027 280.119 355.929C279.843 355.83 279.595 355.67 279.375 355.449C279.157 355.227 278.984 354.934 278.855 354.568C278.728 354.203 278.664 353.754 278.662 353.222C278.664 352.729 278.72 352.289 278.83 351.901C278.941 351.512 279.1 351.184 279.307 350.915C279.515 350.644 279.764 350.438 280.054 350.298C280.344 350.156 280.669 350.085 281.028 350.085C281.417 350.085 281.759 350.161 282.057 350.312C282.354 350.464 282.593 350.67 282.773 350.929C282.955 351.188 283.064 351.481 283.102 351.807H281.889C281.842 351.595 281.742 351.431 281.591 351.315C281.439 351.198 281.252 351.139 281.028 351.139C280.65 351.139 280.362 351.305 280.165 351.636C279.97 351.966 279.87 352.419 279.866 352.994H279.906C279.993 352.822 280.111 352.675 280.259 352.554C280.408 352.431 280.578 352.337 280.767 352.273C280.958 352.206 281.16 352.173 281.372 352.173C281.717 352.173 282.024 352.255 282.293 352.418C282.562 352.579 282.774 352.8 282.929 353.082C283.084 353.365 283.162 353.687 283.162 354.051C283.162 354.445 283.07 354.795 282.886 355.102C282.705 355.409 282.45 355.65 282.122 355.824C281.796 355.996 281.418 356.081 280.986 356.08ZM280.98 355.114C281.17 355.114 281.339 355.068 281.489 354.977C281.638 354.886 281.756 354.763 281.841 354.608C281.926 354.453 281.969 354.278 281.969 354.085C281.969 353.892 281.926 353.719 281.841 353.565C281.758 353.412 281.642 353.29 281.494 353.199C281.347 353.108 281.178 353.062 280.989 353.062C280.847 353.062 280.715 353.089 280.594 353.142C280.474 353.195 280.369 353.269 280.278 353.364C280.189 353.458 280.119 353.568 280.068 353.693C280.017 353.816 279.991 353.948 279.991 354.088C279.991 354.276 280.034 354.447 280.119 354.602C280.206 354.758 280.324 354.882 280.472 354.974C280.621 355.067 280.791 355.114 280.98 355.114ZM286.159 356.08C285.758 356.08 285.4 356.006 285.085 355.858C284.773 355.71 284.525 355.507 284.341 355.247C284.157 354.988 284.062 354.69 284.054 354.355H285.247C285.26 354.58 285.355 354.763 285.531 354.903C285.707 355.044 285.917 355.114 286.159 355.114C286.352 355.114 286.523 355.071 286.67 354.986C286.82 354.899 286.937 354.778 287.02 354.625C287.105 354.47 287.148 354.292 287.148 354.091C287.148 353.886 287.104 353.706 287.017 353.551C286.932 353.396 286.813 353.275 286.662 353.188C286.51 353.1 286.337 353.056 286.142 353.054C285.972 353.054 285.806 353.089 285.645 353.159C285.486 353.229 285.362 353.325 285.273 353.446L284.179 353.25L284.455 350.182H288.011V351.188H285.469L285.318 352.645H285.352C285.455 352.501 285.609 352.382 285.815 352.287C286.022 352.192 286.253 352.145 286.509 352.145C286.859 352.145 287.171 352.227 287.446 352.392C287.721 352.557 287.938 352.783 288.097 353.071C288.256 353.357 288.334 353.687 288.332 354.06C288.334 354.452 288.243 354.8 288.06 355.105C287.878 355.408 287.623 355.647 287.295 355.821C286.97 355.993 286.591 356.08 286.159 356.08Z" fill="#F4E345"/>
<path d="M587.714 360L587.559 360.475L587.854 360.572L588.071 360.35L587.714 360ZM591.143 356.5L590.935 356.045L590.85 356.084L590.786 356.15L591.143 356.5ZM603.143 351L603.345 350.543L603.139 350.452L602.935 350.545L603.143 351ZM615.571 356.5L615.369 356.957L615.386 356.965L615.404 356.971L615.571 356.5ZM625.429 360L625.261 360.471L625.525 360.565L625.743 360.389L625.429 360ZM631 355.5L631.314 355.889L631.335 355.872L631.354 355.854L631 355.5ZM641 346C641 345.724 640.776 345.5 640.5 345.5H636C635.724 345.5 635.5 345.724 635.5 346C635.5 346.276 635.724 346.5 636 346.5H640V350.5C640 350.776 640.224 351 640.5 351C640.776 351 641 350.776 641 350.5V346ZM576.845 356.975L587.559 360.475L587.87 359.525L577.155 356.025L576.845 356.975ZM588.071 360.35L591.5 356.85L590.786 356.15L587.357 359.65L588.071 360.35ZM591.351 356.955L603.351 351.455L602.935 350.545L590.935 356.045L591.351 356.955ZM602.941 351.457L615.369 356.957L615.774 356.043L603.345 350.543L602.941 351.457ZM615.404 356.971L625.261 360.471L625.596 359.529L615.739 356.029L615.404 356.971ZM625.743 360.389L631.314 355.889L630.686 355.111L625.114 359.611L625.743 360.389ZM631.354 355.854L640.854 346.354L640.146 345.646L630.646 355.146L631.354 355.854Z" fill="#CCCCCC"/>
<path d="M299.172 358H298.337L301.511 349.273H302.364L305.538 358H304.703L301.967 350.308H301.908L299.172 358ZM299.773 354.655H304.102V355.371H299.773V354.655ZM307.034 358V349.273H309.851C310.47 349.273 310.987 349.392 311.402 349.631C311.82 349.866 312.134 350.188 312.344 350.594C312.557 351 312.663 351.457 312.663 351.966C312.663 352.474 312.558 352.933 312.348 353.342C312.138 353.749 311.825 354.071 311.411 354.31C310.996 354.545 310.48 354.663 309.864 354.663H307.648V353.947H309.842C310.3 353.947 310.679 353.862 310.98 353.692C311.281 353.518 311.506 353.283 311.653 352.984C311.804 352.686 311.879 352.347 311.879 351.966C311.879 351.585 311.804 351.246 311.653 350.947C311.506 350.649 311.28 350.415 310.976 350.244C310.675 350.074 310.293 349.989 309.83 349.989H307.831V358H307.034ZM315.331 349.273V358H314.534V349.273H315.331ZM321.039 349.273L323.766 356.964H323.843L326.57 349.273H327.406L324.231 358H323.379L320.204 349.273H321.039ZM331.266 358.119C330.781 358.119 330.346 358.021 329.962 357.825C329.582 357.626 329.278 357.354 329.05 357.007C328.826 356.661 328.707 356.264 328.692 355.818H329.464C329.489 356.281 329.671 356.662 330.009 356.96C330.347 357.256 330.766 357.403 331.266 357.403C331.656 357.403 332.002 357.311 332.306 357.126C332.61 356.939 332.847 356.683 333.018 356.359C333.191 356.033 333.278 355.665 333.278 355.256C333.275 354.83 333.183 354.455 333.001 354.131C332.819 353.804 332.572 353.548 332.259 353.364C331.95 353.179 331.602 353.087 331.215 353.087C330.923 353.084 330.636 353.132 330.354 353.232C330.073 353.331 329.839 353.459 329.651 353.615L328.854 353.513L329.379 349.273H333.691V349.989H330.048L329.698 352.908H329.741C329.934 352.746 330.168 352.614 330.444 352.511C330.722 352.409 331.016 352.358 331.326 352.358C331.84 352.358 332.302 352.482 332.711 352.729C333.123 352.976 333.448 353.317 333.687 353.751C333.928 354.183 334.049 354.68 334.049 355.243C334.049 355.794 333.928 356.287 333.687 356.722C333.448 357.153 333.119 357.494 332.698 357.744C332.281 357.994 331.803 358.119 331.266 358.119ZM339.425 358V349.273H342.241C342.861 349.273 343.378 349.385 343.793 349.609C344.21 349.831 344.524 350.139 344.734 350.534C344.947 350.926 345.054 351.376 345.054 351.885C345.054 352.393 344.947 352.842 344.734 353.232C344.524 353.621 344.212 353.925 343.797 354.143C343.382 354.362 342.868 354.472 342.254 354.472H339.855V353.743H342.233C342.688 353.743 343.065 353.668 343.366 353.517C343.67 353.366 343.896 353.152 344.044 352.874C344.195 352.595 344.27 352.266 344.27 351.885C344.27 351.504 344.195 351.172 344.044 350.888C343.893 350.601 343.666 350.379 343.362 350.223C343.061 350.067 342.68 349.989 342.22 349.989H340.222V358H339.425ZM343.273 354.062L345.42 358H344.5L342.374 354.062H343.273ZM349.641 358.119C349.104 358.119 348.624 358.023 348.201 357.83C347.778 357.634 347.442 357.362 347.195 357.016C346.948 356.669 346.817 356.27 346.803 355.818H347.609C347.623 356.136 347.721 356.415 347.903 356.653C348.085 356.889 348.326 357.074 348.627 357.207C348.928 357.338 349.263 357.403 349.633 357.403C350.036 357.403 350.391 357.328 350.698 357.178C351.008 357.027 351.249 356.821 351.423 356.56C351.599 356.295 351.687 355.997 351.687 355.665C351.687 355.312 351.597 355.001 351.418 354.732C351.239 354.462 350.982 354.251 350.647 354.101C350.315 353.95 349.917 353.875 349.454 353.875H348.942V353.159H349.454C349.832 353.159 350.165 353.091 350.455 352.955C350.748 352.815 350.978 352.621 351.146 352.371C351.313 352.121 351.397 351.827 351.397 351.489C351.397 351.168 351.325 350.885 351.18 350.641C351.035 350.396 350.83 350.205 350.566 350.065C350.305 349.926 349.999 349.857 349.65 349.857C349.312 349.857 349.002 349.922 348.721 350.053C348.44 350.183 348.212 350.368 348.039 350.607C347.869 350.845 347.778 351.128 347.766 351.455H346.995C347.006 351 347.131 350.601 347.37 350.257C347.612 349.911 347.931 349.641 348.329 349.447C348.729 349.251 349.173 349.153 349.658 349.153C350.173 349.153 350.617 349.259 350.992 349.469C351.367 349.679 351.657 349.959 351.862 350.308C352.069 350.655 352.173 351.037 352.173 351.455C352.173 351.952 352.038 352.378 351.768 352.733C351.498 353.085 351.134 353.33 350.677 353.466V353.521C351.234 353.632 351.671 353.879 351.989 354.263C352.31 354.643 352.471 355.111 352.471 355.665C352.471 356.131 352.349 356.55 352.104 356.922C351.86 357.291 351.525 357.584 351.099 357.8C350.675 358.013 350.19 358.119 349.641 358.119Z" fill="#CCCCCC"/>
<rect x="264.5" y="377.5" width="389" height="30" rx="3.5" fill="#3A3D41" stroke="#3C3C3C"/>
<path d="M283.5 382C286 382 288.418 382.892 290.319 384.516C292.22 386.139 293.48 388.388 293.871 390.857C294.262 393.327 293.759 395.855 292.453 397.986C291.146 400.118 289.122 401.714 286.745 402.486L286.096 400.489C287.998 399.871 289.617 398.594 290.662 396.889C291.707 395.184 292.109 393.161 291.797 391.186C291.484 389.211 290.476 387.412 288.955 386.113C287.435 384.814 285.5 384.1 283.5 384.1V382Z" fill="#CCCCCC"/>
<path d="M587.714 399L587.559 399.475L587.854 399.572L588.071 399.35L587.714 399ZM591.143 395.5L590.935 395.045L590.85 395.084L590.786 395.15L591.143 395.5ZM603.143 390L603.345 389.543L603.139 389.452L602.935 389.545L603.143 390ZM615.571 395.5L615.369 395.957L615.386 395.965L615.404 395.971L615.571 395.5ZM625.429 399L625.261 399.471L625.525 399.565L625.743 399.389L625.429 399ZM631 394.5L631.314 394.889L631.335 394.872L631.354 394.854L631 394.5ZM641 385C641 384.724 640.776 384.5 640.5 384.5H636C635.724 384.5 635.5 384.724 635.5 385C635.5 385.276 635.724 385.5 636 385.5H640V389.5C640 389.776 640.224 390 640.5 390C640.776 390 641 389.776 641 389.5V385ZM576.845 395.975L587.559 399.475L587.87 398.525L577.155 395.025L576.845 395.975ZM588.071 399.35L591.5 395.85L590.786 395.15L587.357 398.65L588.071 399.35ZM591.351 395.955L603.351 390.455L602.935 389.545L590.935 395.045L591.351 395.955ZM602.941 390.457L615.369 395.957L615.774 395.043L603.345 389.543L602.941 390.457ZM615.404 395.971L625.261 399.471L625.596 398.529L615.739 395.029L615.404 395.971ZM625.743 399.389L631.314 394.889L630.686 394.111L625.114 398.611L625.743 399.389ZM631.354 394.854L640.854 385.354L640.146 384.646L630.646 394.146L631.354 394.854Z" fill="#CCCCCC"/>
<rect x="242" y="217" width="436" height="1" fill="#292929"/>
</g>
</g>
</g>
<defs>
<filter id="filter0_d_7488_184100" x="0" y="0" width="632" height="404" filterUnits="userSpaceOnUse" color-interpolation-filters="sRGB">
<feFlood flood-opacity="0" result="BackgroundImageFix"/>
<feColorMatrix in="SourceAlpha" type="matrix" values="0 0 0 0 0 0 0 0 0 0 0 0 0 0 0 0 0 0 127 0" result="hardAlpha"/>
<feOffset dy="2"/>
<feGaussianBlur stdDeviation="8"/>
<feColorMatrix type="matrix" values="0 0 0 0 0 0 0 0 0 0 0 0 0 0 0 0 0 0 0.36 0"/>
<feBlend mode="normal" in2="BackgroundImageFix" result="effect1_dropShadow_7488_184100"/>
<feBlend mode="normal" in="SourceGraphic" in2="effect1_dropShadow_7488_184100" result="shape"/>
</filter>
<filter id="filter1_d_7488_184100" x="54" y="96" width="648" height="368" filterUnits="userSpaceOnUse" color-interpolation-filters="sRGB">
<feFlood flood-opacity="0" result="BackgroundImageFix"/>
<feColorMatrix in="SourceAlpha" type="matrix" values="0 0 0 0 0 0 0 0 0 0 0 0 0 0 0 0 0 0 127 0" result="hardAlpha"/>
<feOffset dy="10"/>
<feGaussianBlur stdDeviation="12"/>
<feColorMatrix type="matrix" values="0 0 0 0 0 0 0 0 0 0 0 0 0 0 0 0 0 0 0.24 0"/>
<feBlend mode="normal" in2="BackgroundImageFix" result="effect1_dropShadow_7488_184100"/>
<feBlend mode="normal" in="SourceGraphic" in2="effect1_dropShadow_7488_184100" result="shape"/>
</filter>
<clipPath id="clip0_7488_184100">
<rect x="16" y="14" width="600" height="372" rx="12" fill="white"/>
</clipPath>
</defs>
</svg>
