<svg width="575" height="421" viewBox="0 0 575 421" fill="none" xmlns="http://www.w3.org/2000/svg">
<g filter="url(#filter0_d_7793_190312)">
<g clip-path="url(#clip0_7793_190312)">
<rect x="18" y="29" width="518" height="372" rx="12" fill="#1E1E1E"/>
<rect x="17.5" y="28.5" width="519" height="168" fill="#1E1E1E"/>
<path d="M34.84 44.92V55H38.648C41.798 55 43.646 53.488 43.646 49.96C43.646 46.516 41.882 44.92 38.62 44.92H34.84ZM38.62 46.544C40.244 46.544 41.28 47.58 41.28 49.96C41.28 52.34 40.272 53.362 38.648 53.362H37.192V46.544H38.62ZM47.2372 46.782V44.92H44.8852V46.782H47.2372ZM47.1532 55V47.72H44.9692V55H47.1532ZM57.452 49.232V47.72H55.926V47.104C55.926 46.516 56.15 46.306 56.682 46.306C56.948 46.306 57.368 46.376 57.816 46.488V44.948C57.382 44.836 56.808 44.71 56.108 44.71C55.408 44.71 54.806 44.892 54.4 45.284C53.462 44.948 52.72 44.85 51.88 44.85C50.368 44.85 49.234 45.536 49.234 47.328V47.72H48.128V49.232H49.234V55H51.418V49.232H53.742V55H55.926V49.232H57.452ZM53.742 47.72H51.418V47.244C51.418 46.656 51.67 46.446 52.454 46.446C52.832 46.446 53.322 46.53 53.77 46.628C53.756 46.81 53.742 46.992 53.742 47.188V47.72ZM70.1504 47.51C69.8844 45.76 68.4984 44.71 66.1464 44.71C63.4724 44.71 62.1004 45.844 62.1004 47.622C62.1004 49.75 63.8364 50.366 65.5164 50.758C66.9584 51.094 68.0364 51.374 68.0364 52.41C68.0364 53.124 67.5184 53.572 66.1604 53.572C64.8304 53.572 64.1164 52.914 63.9624 52.032H61.7364C62.0164 53.964 63.5424 55.21 66.1324 55.21C69.1284 55.21 70.4024 53.768 70.4024 52.144C70.4024 49.932 68.4424 49.148 66.5104 48.728C65.1104 48.42 64.4664 48.168 64.4664 47.342C64.4664 46.726 64.9004 46.32 66.0904 46.32C67.0984 46.32 67.8404 46.754 67.9524 47.51H70.1504ZM73.172 47.72H71.52V57.52H73.704V54.37C74.208 54.888 74.908 55.21 75.706 55.21C77.652 55.21 79.15 53.754 79.15 51.248C79.15 48.84 77.848 47.51 75.902 47.51C74.908 47.51 74.11 47.93 73.592 48.532L73.172 47.72ZM76.952 51.304C76.952 52.886 76.238 53.614 75.258 53.614C74.334 53.614 73.634 53.04 73.634 51.276C73.634 49.806 74.348 49.106 75.328 49.106C76.308 49.106 76.952 49.75 76.952 51.304ZM85.3347 52.886C85.2087 53.362 84.7607 53.684 84.0747 53.684C83.1367 53.684 82.4927 53.166 82.3387 51.892H87.6447C87.6447 48.924 86.2167 47.51 83.8927 47.51C81.6107 47.51 80.1267 48.882 80.1267 51.36C80.1267 53.782 81.6947 55.21 83.9627 55.21C86.1467 55.21 87.2387 54.23 87.5607 52.886H85.3347ZM82.3387 50.618C82.4647 49.372 83.0247 48.882 83.8507 48.882C84.7747 48.882 85.3487 49.4 85.4047 50.618H82.3387ZM93.6026 52.578C93.3646 53.376 92.9166 53.726 92.2726 53.726C91.4746 53.726 90.8166 53.04 90.8166 51.472C90.8166 49.68 91.4326 48.994 92.3566 48.994C92.9166 48.994 93.4206 49.372 93.5886 49.96H95.8846C95.5906 48.504 94.2186 47.51 92.2866 47.51C89.9906 47.51 88.5486 48.966 88.5486 51.43C88.5486 53.852 89.8366 55.21 92.2446 55.21C94.4146 55.21 95.5486 54.076 95.8986 52.578H93.6026ZM96.6664 52.942C96.9044 54.286 98.1644 55.21 100.152 55.21C102.476 55.21 103.568 54.188 103.568 52.746C103.568 51.136 102 50.786 100.67 50.45C99.4384 50.142 99.1584 50.002 99.1584 49.596C99.1584 49.218 99.4384 48.994 100.138 48.994C100.838 48.994 101.244 49.288 101.342 49.736H103.54C103.288 48.35 102.07 47.51 100.194 47.51C98.0524 47.51 96.9744 48.42 96.9744 49.778C96.9744 51.318 98.2204 51.794 99.6204 52.13C100.95 52.452 101.356 52.536 101.356 53.04C101.356 53.474 101.006 53.726 100.138 53.726C99.4524 53.726 98.9624 53.404 98.8644 52.942H96.6664ZM114.677 44.92L112.381 53.166L110.113 44.92H107.691L110.911 55H113.725L116.945 44.92H114.677ZM119.985 46.782V44.92H117.633V46.782H119.985ZM119.901 55V47.72H117.717V55H119.901ZM126.364 52.886C126.238 53.362 125.79 53.684 125.104 53.684C124.166 53.684 123.522 53.166 123.368 51.892H128.674C128.674 48.924 127.246 47.51 124.922 47.51C122.64 47.51 121.156 48.882 121.156 51.36C121.156 53.782 122.724 55.21 124.992 55.21C127.176 55.21 128.268 54.23 128.59 52.886H126.364ZM123.368 50.618C123.494 49.372 124.054 48.882 124.88 48.882C125.804 48.882 126.378 49.4 126.434 50.618H123.368ZM138.916 47.72L137.67 53.222L136.536 47.72H133.904L132.616 53.194L131.482 47.72H129.228L131.188 55H133.834L135.136 49.68L136.284 55H138.986L140.988 47.72H138.916ZM146.667 52.886C146.541 53.362 146.093 53.684 145.407 53.684C144.469 53.684 143.825 53.166 143.671 51.892H148.977C148.977 48.924 147.549 47.51 145.225 47.51C142.943 47.51 141.459 48.882 141.459 51.36C141.459 53.782 143.027 55.21 145.295 55.21C147.479 55.21 148.571 54.23 148.893 52.886H146.667ZM143.671 50.618C143.797 49.372 144.357 48.882 145.183 48.882C146.107 48.882 146.681 49.4 146.737 50.618H143.671ZM152.345 55V51.976C152.345 50.352 153.143 49.498 154.011 49.498C154.389 49.498 154.683 49.554 154.949 49.638V47.608C154.753 47.552 154.431 47.51 154.123 47.51C153.255 47.51 152.611 47.972 152.219 48.826L151.981 47.72H150.161V55H152.345Z" fill="#CCCCCC"/>
<g clip-path="url(#clip1_7793_190312)">
<rect width="242" height="31" transform="translate(34 70)" fill="#252526"/>
<rect width="242" height="31" transform="translate(34 70)" fill="#252526"/>
<path d="M53.658 79.92L50.564 88.656L47.512 79.92H46L49.668 90H51.446L55.058 79.92H53.658ZM60.4399 87.9C60.2299 88.572 59.5579 89.076 58.6759 89.076C57.4579 89.076 56.5479 88.334 56.4359 86.654H61.9799C61.9799 83.714 60.5799 82.51 58.5639 82.51C56.5479 82.51 55.0639 83.826 55.0639 86.36C55.0639 88.922 56.5619 90.21 58.6339 90.21C60.3839 90.21 61.5319 89.23 61.8959 87.9H60.4399ZM56.4919 85.59C56.7019 84.246 57.5139 83.588 58.5919 83.588C59.7119 83.588 60.5099 84.232 60.6079 85.59H56.4919ZM64.9353 90V86.346C64.9353 84.512 65.7473 83.826 66.6713 83.826C66.9933 83.826 67.2593 83.882 67.5253 83.952V82.608C67.3573 82.566 67.0773 82.51 66.7273 82.51C65.9153 82.51 65.2853 82.958 64.8793 83.798L64.6973 82.72H63.5913V90H64.9353ZM68.0216 87.914C68.1476 89.314 69.3376 90.21 71.1576 90.21C73.0896 90.21 74.1956 89.258 74.1956 87.928C74.1956 86.43 73.0756 85.954 71.3816 85.576C69.9816 85.268 69.6876 85.016 69.6876 84.456C69.6876 83.952 70.1356 83.574 71.1436 83.574C72.0676 83.574 72.6136 83.966 72.7676 84.638H74.1396C73.9016 83.308 72.7816 82.51 71.1576 82.51C69.3236 82.51 68.3296 83.336 68.3296 84.582C68.3296 85.66 69.0156 86.304 70.7236 86.682C72.0256 86.976 72.8376 87.172 72.8376 88.026C72.8376 88.656 72.2636 89.146 71.1716 89.146C70.1496 89.146 69.5476 88.782 69.3936 87.914H68.0216ZM77.16 81.502V79.92H75.648V81.502H77.16ZM77.076 90V82.72H75.732V90H77.076ZM78.6205 86.36C78.6205 88.88 80.1745 90.21 82.2045 90.21C84.2625 90.21 85.8025 88.908 85.8025 86.36C85.8025 83.742 84.2065 82.51 82.2185 82.51C80.2445 82.51 78.6205 83.742 78.6205 86.36ZM80.0205 86.36C80.0205 84.54 80.9725 83.602 82.2185 83.602C83.4645 83.602 84.4025 84.512 84.4025 86.36C84.4025 88.166 83.5205 89.118 82.2325 89.118C80.9725 89.118 80.0205 88.166 80.0205 86.36ZM88.6834 90V85.506C88.6834 84.358 89.5234 83.658 90.4894 83.658C91.4834 83.658 92.0434 84.176 92.0434 85.268V90H93.3874V85.254C93.3874 83.476 92.3934 82.51 90.8114 82.51C89.9434 82.51 89.1314 82.902 88.5994 83.644L88.4454 82.72H87.3394V90H88.6834ZM108.384 90L104.254 79.92H102.644L98.5 90H99.998L101.006 87.452H105.808L106.802 90H108.384ZM103.428 81.348L105.346 86.29H101.468L103.428 81.348Z" fill="#606060"/>
</g>
<g clip-path="url(#clip2_7793_190312)">
<rect width="242" height="31" transform="translate(278 70)" fill="#252526"/>
<rect width="242" height="31" transform="translate(278 70)" fill="#252526"/>
<path d="M291.05 79.92V90H297.238V88.726H292.492V79.92H291.05ZM299.853 84.75C299.951 84.022 300.455 83.574 301.491 83.574C302.569 83.574 303.171 84.078 303.171 84.974V85.338L301.043 85.702C299.083 86.038 298.285 86.794 298.285 88.124C298.285 89.314 299.209 90.21 300.805 90.21C301.981 90.21 302.765 89.678 303.241 89.006L303.409 90H304.515V85.03C304.515 83.532 303.451 82.51 301.547 82.51C299.727 82.51 298.565 83.406 298.425 84.75H299.853ZM303.171 86.388V87.326C303.171 88.32 302.149 89.076 301.127 89.076C300.217 89.076 299.713 88.684 299.713 87.984C299.713 87.34 300.063 86.934 301.365 86.71L303.171 86.388ZM309.65 88.922C309.244 89.02 309.062 89.034 308.824 89.034C308.32 89.034 308.054 88.768 308.054 88.222V83.868H309.622V82.72H308.054V80.97H306.794L306.71 82.72H305.632V83.868H306.71V88.194C306.71 89.398 307.368 90.21 308.656 90.21C308.992 90.21 309.286 90.168 309.65 90.07V88.922ZM315.801 87.9C315.591 88.572 314.919 89.076 314.037 89.076C312.819 89.076 311.909 88.334 311.797 86.654H317.341C317.341 83.714 315.941 82.51 313.925 82.51C311.909 82.51 310.425 83.826 310.425 86.36C310.425 88.922 311.923 90.21 313.995 90.21C315.745 90.21 316.893 89.23 317.257 87.9H315.801ZM311.853 85.59C312.063 84.246 312.875 83.588 313.953 83.588C315.073 83.588 315.871 84.232 315.969 85.59H311.853ZM318.393 87.914C318.519 89.314 319.709 90.21 321.529 90.21C323.461 90.21 324.567 89.258 324.567 87.928C324.567 86.43 323.447 85.954 321.753 85.576C320.353 85.268 320.059 85.016 320.059 84.456C320.059 83.952 320.507 83.574 321.515 83.574C322.439 83.574 322.985 83.966 323.139 84.638H324.511C324.273 83.308 323.153 82.51 321.529 82.51C319.695 82.51 318.701 83.336 318.701 84.582C318.701 85.66 319.387 86.304 321.095 86.682C322.397 86.976 323.209 87.172 323.209 88.026C323.209 88.656 322.635 89.146 321.543 89.146C320.521 89.146 319.919 88.782 319.765 87.914H318.393ZM329.351 88.922C328.945 89.02 328.763 89.034 328.525 89.034C328.021 89.034 327.755 88.768 327.755 88.222V83.868H329.323V82.72H327.755V80.97H326.495L326.411 82.72H325.333V83.868H326.411V88.194C326.411 89.398 327.069 90.21 328.357 90.21C328.693 90.21 328.987 90.168 329.351 90.07V88.922ZM341.49 79.92L338.396 88.656L335.344 79.92H333.832L337.5 90H339.278L342.89 79.92H341.49ZM348.272 87.9C348.062 88.572 347.39 89.076 346.508 89.076C345.29 89.076 344.38 88.334 344.268 86.654H349.812C349.812 83.714 348.412 82.51 346.396 82.51C344.38 82.51 342.896 83.826 342.896 86.36C342.896 88.922 344.394 90.21 346.466 90.21C348.216 90.21 349.364 89.23 349.728 87.9H348.272ZM344.324 85.59C344.534 84.246 345.346 83.588 346.424 83.588C347.544 83.588 348.342 84.232 348.44 85.59H344.324ZM352.767 90V86.346C352.767 84.512 353.579 83.826 354.503 83.826C354.825 83.826 355.091 83.882 355.357 83.952V82.608C355.189 82.566 354.909 82.51 354.559 82.51C353.747 82.51 353.117 82.958 352.711 83.798L352.529 82.72H351.423V90H352.767ZM355.854 87.914C355.98 89.314 357.17 90.21 358.99 90.21C360.922 90.21 362.028 89.258 362.028 87.928C362.028 86.43 360.908 85.954 359.214 85.576C357.814 85.268 357.52 85.016 357.52 84.456C357.52 83.952 357.968 83.574 358.976 83.574C359.9 83.574 360.446 83.966 360.6 84.638H361.972C361.734 83.308 360.614 82.51 358.99 82.51C357.156 82.51 356.162 83.336 356.162 84.582C356.162 85.66 356.848 86.304 358.556 86.682C359.858 86.976 360.67 87.172 360.67 88.026C360.67 88.656 360.096 89.146 359.004 89.146C357.982 89.146 357.38 88.782 357.226 87.914H355.854ZM364.992 81.502V79.92H363.48V81.502H364.992ZM364.908 90V82.72H363.564V90H364.908ZM366.453 86.36C366.453 88.88 368.007 90.21 370.037 90.21C372.095 90.21 373.635 88.908 373.635 86.36C373.635 83.742 372.039 82.51 370.051 82.51C368.077 82.51 366.453 83.742 366.453 86.36ZM367.853 86.36C367.853 84.54 368.805 83.602 370.051 83.602C371.297 83.602 372.235 84.512 372.235 86.36C372.235 88.166 371.353 89.118 370.065 89.118C368.805 89.118 367.853 88.166 367.853 86.36ZM376.515 90V85.506C376.515 84.358 377.355 83.658 378.321 83.658C379.315 83.658 379.875 84.176 379.875 85.268V90H381.219V85.254C381.219 83.476 380.225 82.51 378.643 82.51C377.775 82.51 376.963 82.902 376.431 83.644L376.277 82.72H375.171V90H376.515Z" fill="#606060"/>
</g>
<g style="mix-blend-mode:color-dodge">
<rect x="34" y="121" width="242" height="51" fill="#A70425"/>
</g>
<g style="mix-blend-mode:color-dodge">
<rect x="278" y="121" width="242" height="51" fill="#A70425"/>
</g>
<g style="mix-blend-mode:color-dodge">
<rect x="34" y="101" width="242" height="20" fill="#28632B"/>
</g>
<g style="mix-blend-mode:color-dodge">
<rect x="34" y="172" width="242" height="8" fill="#28632B"/>
</g>
<g style="mix-blend-mode:color-dodge">
<rect x="278" y="101" width="242" height="20" fill="#28632B"/>
</g>
<g style="mix-blend-mode:color-dodge">
<rect x="278" y="172" width="242" height="8" fill="#28632B"/>
</g>
<rect x="290" y="126" width="52" height="10" fill="white" fill-opacity="0.1"/>
<rect x="290" y="106" width="52" height="10" fill="white" fill-opacity="0.1"/>
<rect x="46" y="106" width="52" height="10" fill="white" fill-opacity="0.1"/>
<rect x="290" y="140" width="218" height="10" fill="white" fill-opacity="0.1"/>
<rect x="290" y="154" width="218" height="10" fill="white" fill-opacity="0.1"/>
<rect x="17.5" y="28.5" width="519" height="168" stroke="#3A3D41"/>
<path d="M34.84 207.92V218H38.648C41.798 218 43.646 216.488 43.646 212.96C43.646 209.516 41.882 207.92 38.62 207.92H34.84ZM38.62 209.544C40.244 209.544 41.28 210.58 41.28 212.96C41.28 215.34 40.272 216.362 38.648 216.362H37.192V209.544H38.62ZM47.2372 209.782V207.92H44.8852V209.782H47.2372ZM47.1532 218V210.72H44.9692V218H47.1532ZM57.452 212.232V210.72H55.926V210.104C55.926 209.516 56.15 209.306 56.682 209.306C56.948 209.306 57.368 209.376 57.816 209.488V207.948C57.382 207.836 56.808 207.71 56.108 207.71C55.408 207.71 54.806 207.892 54.4 208.284C53.462 207.948 52.72 207.85 51.88 207.85C50.368 207.85 49.234 208.536 49.234 210.328V210.72H48.128V212.232H49.234V218H51.418V212.232H53.742V218H55.926V212.232H57.452ZM53.742 210.72H51.418V210.244C51.418 209.656 51.67 209.446 52.454 209.446C52.832 209.446 53.322 209.53 53.77 209.628C53.756 209.81 53.742 209.992 53.742 210.188V210.72ZM70.1504 210.51C69.8844 208.76 68.4984 207.71 66.1464 207.71C63.4724 207.71 62.1004 208.844 62.1004 210.622C62.1004 212.75 63.8364 213.366 65.5164 213.758C66.9584 214.094 68.0364 214.374 68.0364 215.41C68.0364 216.124 67.5184 216.572 66.1604 216.572C64.8304 216.572 64.1164 215.914 63.9624 215.032H61.7364C62.0164 216.964 63.5424 218.21 66.1324 218.21C69.1284 218.21 70.4024 216.768 70.4024 215.144C70.4024 212.932 68.4424 212.148 66.5104 211.728C65.1104 211.42 64.4664 211.168 64.4664 210.342C64.4664 209.726 64.9004 209.32 66.0904 209.32C67.0984 209.32 67.8404 209.754 67.9524 210.51H70.1504ZM71.45 210.72V215.452C71.45 217.23 72.444 218.21 74.11 218.21C75.048 218.21 75.804 217.846 76.308 217.23L76.518 218H78.324V210.72H76.14V215.088C76.14 216.096 75.552 216.67 74.796 216.67C74.054 216.67 73.634 216.264 73.634 215.536V210.72H71.45ZM82.0438 218V213.45C82.0438 212.708 82.5198 212.05 83.3038 212.05C84.0178 212.05 84.4658 212.428 84.4658 213.212V218H86.6498V213.548C86.6498 212.736 87.0558 212.05 87.9238 212.05C88.6378 212.05 89.0858 212.428 89.0858 213.212V218H91.2698V213.268C91.2698 211.294 90.1638 210.51 88.6098 210.51C87.5598 210.51 86.7338 210.916 86.2018 211.518C85.7258 210.818 84.9278 210.51 83.9898 210.51C82.9958 210.51 82.2678 210.916 81.7638 211.518L81.3998 210.72H79.8598V218H82.0438ZM94.9228 218V213.45C94.9228 212.708 95.3988 212.05 96.1828 212.05C96.8968 212.05 97.3448 212.428 97.3448 213.212V218H99.5288V213.548C99.5288 212.736 99.9348 212.05 100.803 212.05C101.517 212.05 101.965 212.428 101.965 213.212V218H104.149V213.268C104.149 211.294 103.043 210.51 101.489 210.51C100.439 210.51 99.6128 210.916 99.0808 211.518C98.6048 210.818 97.8068 210.51 96.8688 210.51C95.8748 210.51 95.1468 210.916 94.6428 211.518L94.2788 210.72H92.7388V218H94.9228ZM107.718 212.82C107.83 212.288 108.222 211.924 108.922 211.924C109.664 211.924 110.084 212.302 110.084 213.002V213.324L108.278 213.618C106.08 213.982 105.338 214.78 105.338 215.9C105.338 217.384 106.402 218.21 107.886 218.21C109.034 218.21 109.818 217.79 110.294 217.244L110.56 218H112.268V213.184C112.268 211.518 111.008 210.51 108.992 210.51C107.046 210.51 105.828 211.364 105.478 212.82H107.718ZM110.084 214.514V215.312C110.084 216.068 109.496 216.712 108.516 216.712C107.872 216.712 107.522 216.39 107.522 215.802C107.522 215.298 107.816 214.976 108.838 214.766L110.084 214.514ZM115.923 218V214.976C115.923 213.352 116.721 212.498 117.589 212.498C117.967 212.498 118.261 212.554 118.527 212.638V210.608C118.331 210.552 118.009 210.51 117.701 210.51C116.833 210.51 116.189 210.972 115.797 211.826L115.559 210.72H113.739V218H115.923ZM124.273 210.72L122.537 216.404L120.927 210.72H118.603L121.221 218H121.837C121.655 218.826 121.347 219.176 120.843 219.176C120.661 219.176 120.395 219.162 119.947 219.05V220.576C120.339 220.674 120.745 220.73 121.123 220.73C122.453 220.73 123.195 220.044 123.853 218.154L126.457 210.72H124.273Z" fill="white"/>
<path d="M129.75 263C129.75 274.046 120.796 283 109.75 283C98.7043 283 89.75 274.046 89.75 263C89.75 251.954 98.7043 243 109.75 243C120.796 243 129.75 251.954 129.75 263ZM93.75 263C93.75 271.837 100.913 279 109.75 279C118.587 279 125.75 271.837 125.75 263C125.75 254.163 118.587 247 109.75 247C100.913 247 93.75 254.163 93.75 263Z" fill="#303031"/>
<path d="M109.75 243C113.332 243 116.848 243.962 119.931 245.785C123.014 247.608 125.551 250.226 127.276 253.365C129.002 256.504 129.853 260.048 129.74 263.628C129.628 267.208 128.556 270.692 126.637 273.717C124.717 276.741 122.021 279.194 118.83 280.82C115.638 282.446 112.069 283.185 108.494 282.961C104.919 282.736 101.471 281.555 98.5083 279.542C95.5459 277.528 93.1785 274.756 91.6535 271.516L95.2728 269.812C96.4928 272.405 98.3867 274.623 100.757 276.233C103.127 277.844 105.886 278.789 108.745 278.968C111.605 279.148 114.461 278.557 117.014 277.256C119.567 275.955 121.724 273.993 123.259 271.573C124.795 269.154 125.652 266.367 125.742 263.503C125.832 260.639 125.151 257.803 123.771 255.292C122.39 252.781 120.361 250.687 117.895 249.228C115.428 247.77 112.615 247 109.75 247V243Z" fill="#F4E345"/>
<path d="M108.247 257.944V259.571H108.056C107.162 259.585 106.442 259.817 105.896 260.269C105.353 260.72 105.027 261.346 104.918 262.148C105.447 261.611 106.114 261.342 106.921 261.342C107.787 261.342 108.475 261.652 108.985 262.271C109.496 262.891 109.751 263.707 109.751 264.719C109.751 265.366 109.61 265.951 109.327 266.476C109.049 267 108.653 267.408 108.138 267.699C107.627 267.991 107.049 268.137 106.401 268.137C105.353 268.137 104.506 267.772 103.858 267.043C103.216 266.314 102.895 265.341 102.895 264.124V263.413C102.895 262.333 103.097 261.381 103.503 260.556C103.913 259.726 104.499 259.086 105.26 258.635C106.025 258.179 106.912 257.949 107.919 257.944H108.247ZM106.319 262.928C106 262.928 105.711 263.012 105.451 263.181C105.191 263.345 105 263.563 104.877 263.837V264.438C104.877 265.099 105.007 265.617 105.267 265.99C105.526 266.359 105.891 266.544 106.36 266.544C106.784 266.544 107.126 266.378 107.386 266.045C107.65 265.708 107.782 265.272 107.782 264.739C107.782 264.197 107.65 263.759 107.386 263.427C107.121 263.094 106.766 262.928 106.319 262.928ZM117.414 260.692C117.414 261.175 117.293 261.604 117.052 261.978C116.81 262.351 116.478 262.65 116.054 262.873C116.537 263.105 116.92 263.427 117.202 263.837C117.485 264.243 117.626 264.721 117.626 265.272C117.626 266.157 117.325 266.856 116.724 267.371C116.122 267.882 115.304 268.137 114.27 268.137C113.235 268.137 112.415 267.879 111.809 267.364C111.202 266.849 110.899 266.152 110.899 265.272C110.899 264.721 111.041 264.24 111.323 263.83C111.606 263.42 111.986 263.101 112.465 262.873C112.041 262.65 111.708 262.351 111.467 261.978C111.23 261.604 111.111 261.175 111.111 260.692C111.111 259.845 111.394 259.17 111.959 258.669C112.524 258.163 113.292 257.91 114.263 257.91C115.229 257.91 115.994 258.161 116.56 258.662C117.129 259.159 117.414 259.836 117.414 260.692ZM115.644 265.129C115.644 264.696 115.518 264.35 115.268 264.09C115.017 263.83 114.68 263.7 114.256 263.7C113.837 263.7 113.502 263.83 113.251 264.09C113 264.345 112.875 264.691 112.875 265.129C112.875 265.553 112.998 265.895 113.244 266.154C113.49 266.414 113.832 266.544 114.27 266.544C114.698 266.544 115.033 266.419 115.274 266.168C115.521 265.917 115.644 265.571 115.644 265.129ZM115.438 260.788C115.438 260.401 115.336 260.091 115.131 259.858C114.926 259.621 114.636 259.503 114.263 259.503C113.894 259.503 113.606 259.617 113.401 259.845C113.196 260.073 113.094 260.387 113.094 260.788C113.094 261.185 113.196 261.504 113.401 261.745C113.606 261.987 113.896 262.107 114.27 262.107C114.643 262.107 114.93 261.987 115.131 261.745C115.336 261.504 115.438 261.185 115.438 260.788Z" fill="#F4E345"/>
<rect x="141.75" y="249" width="36" height="12" fill="#3A3D41"/>
<rect x="141.75" y="265" width="78" height="12" fill="#292929"/>
<rect x="276.5" y="231" width="1" height="64" fill="#303031"/>
<path d="M374.25 263C374.25 274.046 365.296 283 354.25 283C343.204 283 334.25 274.046 334.25 263C334.25 251.954 343.204 243 354.25 243C365.296 243 374.25 251.954 374.25 263ZM338.25 263C338.25 271.837 345.413 279 354.25 279C363.087 279 370.25 271.837 370.25 263C370.25 254.163 363.087 247 354.25 247C345.413 247 338.25 254.163 338.25 263Z" fill="#303031"/>
<path d="M354.25 243C359.12 243 363.823 244.777 367.476 247.998C371.129 251.219 373.482 255.662 374.092 260.493C374.703 265.325 373.529 270.214 370.792 274.242C368.054 278.27 363.941 281.16 359.224 282.372C354.507 283.583 349.51 283.031 345.17 280.82C340.831 278.609 337.447 274.891 335.654 270.362C333.862 265.834 333.783 260.808 335.432 256.225C337.082 251.643 340.347 247.82 344.615 245.474L346.542 248.979C343.128 250.856 340.516 253.914 339.196 257.58C337.876 261.246 337.939 265.267 339.374 268.89C340.808 272.513 343.515 275.487 346.986 277.256C350.458 279.025 354.455 279.466 358.229 278.497C362.003 277.528 365.293 275.216 367.483 271.993C369.673 268.771 370.612 264.86 370.124 260.995C369.636 257.129 367.754 253.575 364.831 250.998C361.908 248.422 358.146 247 354.25 247V243Z" fill="#52C41A"/>
<path d="M352.009 264.021C351.494 264.527 350.892 264.78 350.204 264.78C349.325 264.78 348.62 264.479 348.092 263.878C347.563 263.272 347.299 262.456 347.299 261.431C347.299 260.779 347.44 260.182 347.723 259.64C348.01 259.093 348.409 258.669 348.919 258.368C349.429 258.063 350.004 257.91 350.642 257.91C351.298 257.91 351.881 258.074 352.392 258.402C352.902 258.73 353.299 259.202 353.581 259.817C353.864 260.433 354.007 261.137 354.012 261.93V262.661C354.012 264.32 353.599 265.623 352.774 266.571C351.95 267.519 350.781 268.025 349.268 268.089L348.782 268.096V266.448L349.22 266.441C350.938 266.364 351.868 265.557 352.009 264.021ZM350.689 263.27C351.008 263.27 351.282 263.188 351.51 263.023C351.742 262.859 351.918 262.661 352.036 262.429V261.615C352.036 260.945 351.909 260.426 351.653 260.057C351.398 259.688 351.056 259.503 350.628 259.503C350.231 259.503 349.906 259.685 349.65 260.05C349.395 260.41 349.268 260.863 349.268 261.41C349.268 261.952 349.391 262.399 349.637 262.75C349.887 263.096 350.238 263.27 350.689 263.27ZM361.914 260.692C361.914 261.175 361.793 261.604 361.552 261.978C361.31 262.351 360.978 262.65 360.554 262.873C361.037 263.105 361.42 263.427 361.702 263.837C361.985 264.243 362.126 264.721 362.126 265.272C362.126 266.157 361.825 266.856 361.224 267.371C360.622 267.882 359.804 268.137 358.77 268.137C357.735 268.137 356.915 267.879 356.309 267.364C355.702 266.849 355.399 266.152 355.399 265.272C355.399 264.721 355.541 264.24 355.823 263.83C356.106 263.42 356.486 263.101 356.965 262.873C356.541 262.65 356.208 262.351 355.967 261.978C355.73 261.604 355.611 261.175 355.611 260.692C355.611 259.845 355.894 259.17 356.459 258.669C357.024 258.163 357.792 257.91 358.763 257.91C359.729 257.91 360.494 258.161 361.06 258.662C361.629 259.159 361.914 259.836 361.914 260.692ZM360.144 265.129C360.144 264.696 360.018 264.35 359.768 264.09C359.517 263.83 359.18 263.7 358.756 263.7C358.337 263.7 358.002 263.83 357.751 264.09C357.5 264.345 357.375 264.691 357.375 265.129C357.375 265.553 357.498 265.895 357.744 266.154C357.99 266.414 358.332 266.544 358.77 266.544C359.198 266.544 359.533 266.419 359.774 266.168C360.021 265.917 360.144 265.571 360.144 265.129ZM359.938 260.788C359.938 260.401 359.836 260.091 359.631 259.858C359.426 259.621 359.136 259.503 358.763 259.503C358.394 259.503 358.106 259.617 357.901 259.845C357.696 260.073 357.594 260.387 357.594 260.788C357.594 261.185 357.696 261.504 357.901 261.745C358.106 261.987 358.396 262.107 358.77 262.107C359.143 262.107 359.43 261.987 359.631 261.745C359.836 261.504 359.938 261.185 359.938 260.788Z" fill="#52C41A"/>
<rect x="386.25" y="249" width="36" height="12" fill="#3A3D41"/>
<rect x="386.25" y="265" width="78" height="12" fill="#292929"/>
<rect x="33.5" y="230.5" width="487" height="65" stroke="#303031"/>
<g clip-path="url(#clip3_7793_190312)">
<rect x="34" y="319" width="110" height="16" rx="2" fill="#771F16"/>
<path d="M42.948 322.36V331H45.984C48.084 331 49.164 330.088 49.164 328.576C49.164 327.424 48.348 326.572 47.376 326.428C48.252 326.212 48.852 325.42 48.852 324.58C48.852 323.2 47.856 322.36 45.972 322.36H42.948ZM46.176 326.836C47.46 326.836 48.18 327.484 48.18 328.576C48.18 329.632 47.484 330.22 46.128 330.22H43.884V326.836H46.176ZM46.068 323.092C47.232 323.092 47.904 323.644 47.904 324.58C47.904 325.456 47.304 326.092 46.14 326.092H43.884V323.092H46.068ZM51.5104 331V327.724C51.5104 326.188 52.2544 325.444 53.1064 325.444C53.3704 325.444 53.5864 325.492 53.8024 325.552V324.664C53.6584 324.628 53.4184 324.58 53.1424 324.58C52.4104 324.58 51.8104 324.988 51.4744 325.828L51.3544 324.76H50.6224V331H51.5104ZM59.0571 329.248C58.8531 329.956 58.1931 330.424 57.3531 330.424C56.2011 330.424 55.3011 329.692 55.2291 328.084H60.1011C60.1011 325.636 58.8891 324.58 57.2331 324.58C55.5651 324.58 54.3171 325.72 54.3171 327.88C54.3171 330.04 55.5891 331.18 57.3171 331.18C58.7331 331.18 59.7051 330.388 60.0171 329.248H59.0571ZM55.2531 327.364C55.3971 325.996 56.2131 325.3 57.2451 325.3C58.3131 325.3 59.1051 325.984 59.1891 327.364H55.2531ZM62.2994 326.44C62.3834 325.744 62.9234 325.288 63.8714 325.288C64.8674 325.288 65.4554 325.792 65.4554 326.62V327.052L63.5954 327.364C61.8794 327.652 61.2194 328.3 61.2194 329.404C61.2194 330.472 62.0474 331.18 63.3434 331.18C64.3994 331.18 65.1074 330.664 65.5034 330.052L65.6114 331H66.3434V326.68C66.3434 325.408 65.4194 324.58 63.9074 324.58C62.4434 324.58 61.4714 325.324 61.3634 326.44H62.2994ZM65.4554 328.744C65.4554 329.716 64.4954 330.424 63.5594 330.424C62.6954 330.424 62.1554 330.04 62.1554 329.32C62.1554 328.672 62.5274 328.264 63.8354 328.036L65.4554 327.76V328.744ZM68.9362 331V327.784L72.0202 331H73.2202L69.8362 327.472L72.8482 324.76H71.6602L68.9362 327.244V322.36H68.0482V331H68.9362ZM74.9473 331V324.76H74.0473V331H74.9473ZM75.0073 323.476V322.36H73.9873V323.476H75.0073ZM77.5729 331V327.136C77.5729 326.02 78.4129 325.336 79.3009 325.336C80.2489 325.336 80.8009 325.864 80.8009 326.86V331H81.6889V326.836C81.6889 325.408 80.8489 324.58 79.5049 324.58C78.7129 324.58 77.9569 324.964 77.5249 325.696L77.4169 324.76H76.6849V331H77.5729ZM83.3157 331.504C83.5317 332.644 84.4677 333.34 86.0157 333.34C87.7557 333.34 88.7637 332.296 88.7637 330.916V324.76H88.0317L87.8877 325.72C87.4917 325.048 86.7837 324.58 85.7877 324.58C84.1917 324.58 83.0397 325.744 83.0397 327.736C83.0397 329.716 84.3117 330.796 85.7397 330.796C86.7357 330.796 87.4557 330.388 87.8637 329.788V330.88C87.8637 331.96 87.1917 332.632 85.9917 332.632C85.0437 332.632 84.4077 332.236 84.2637 331.504H83.3157ZM83.9637 327.748C83.9637 326.104 84.8157 325.336 85.9197 325.336C87.0837 325.336 87.9237 326.14 87.9237 327.748C87.9237 329.308 87.0717 330.04 85.9317 330.04C84.8397 330.04 83.9637 329.224 83.9637 327.748ZM100.446 328.048C100.314 329.428 99.2344 330.376 97.7584 330.376C96.0304 330.376 94.7824 329.032 94.7824 326.716C94.7824 324.244 96.0544 322.972 97.7944 322.972C99.2104 322.972 100.23 323.74 100.446 325.048H101.394C101.202 323.392 99.7624 322.18 97.7944 322.18C95.5024 322.18 93.8224 323.776 93.8224 326.716C93.8224 329.512 95.3824 331.18 97.7464 331.18C99.8584 331.18 101.25 329.728 101.394 328.048H100.446ZM103.694 331V327.172C103.694 326.032 104.522 325.336 105.422 325.336C106.37 325.336 106.922 325.864 106.922 326.86V331H107.81V326.836C107.81 325.408 106.97 324.58 105.626 324.58C104.858 324.58 104.126 324.94 103.694 325.636V322.36H102.806V331H103.694ZM110.241 326.44C110.325 325.744 110.865 325.288 111.813 325.288C112.809 325.288 113.397 325.792 113.397 326.62V327.052L111.537 327.364C109.821 327.652 109.161 328.3 109.161 329.404C109.161 330.472 109.989 331.18 111.285 331.18C112.341 331.18 113.049 330.664 113.445 330.052L113.553 331H114.285V326.68C114.285 325.408 113.361 324.58 111.849 324.58C110.385 324.58 109.413 325.324 109.305 326.44H110.241ZM113.397 328.744C113.397 329.716 112.437 330.424 111.501 330.424C110.637 330.424 110.097 330.04 110.097 329.32C110.097 328.672 110.469 328.264 111.777 328.036L113.397 327.76V328.744ZM116.878 331V327.136C116.878 326.02 117.718 325.336 118.606 325.336C119.554 325.336 120.106 325.864 120.106 326.86V331H120.994V326.836C120.994 325.408 120.154 324.58 118.81 324.58C118.018 324.58 117.262 324.964 116.83 325.696L116.722 324.76H115.99V331H116.878ZM122.62 331.504C122.836 332.644 123.772 333.34 125.32 333.34C127.06 333.34 128.068 332.296 128.068 330.916V324.76H127.336L127.192 325.72C126.796 325.048 126.088 324.58 125.092 324.58C123.496 324.58 122.344 325.744 122.344 327.736C122.344 329.716 123.616 330.796 125.044 330.796C126.04 330.796 126.76 330.388 127.168 329.788V330.88C127.168 331.96 126.496 332.632 125.296 332.632C124.348 332.632 123.712 332.236 123.568 331.504H122.62ZM123.268 327.748C123.268 326.104 124.12 325.336 125.224 325.336C126.388 325.336 127.228 326.14 127.228 327.748C127.228 329.308 126.376 330.04 125.236 330.04C124.144 330.04 123.268 329.224 123.268 327.748ZM134.209 329.248C134.005 329.956 133.345 330.424 132.505 330.424C131.353 330.424 130.453 329.692 130.381 328.084H135.253C135.253 325.636 134.041 324.58 132.385 324.58C130.717 324.58 129.469 325.72 129.469 327.88C129.469 330.04 130.741 331.18 132.469 331.18C133.885 331.18 134.857 330.388 135.169 329.248H134.209ZM130.405 327.364C130.549 325.996 131.365 325.3 132.397 325.3C133.465 325.3 134.257 325.984 134.341 327.364H130.405Z" fill="white"/>
<g clip-path="url(#clip4_7793_190312)">
<path d="M53.2539 358.047L56.125 365.676L58.9893 358.047H61.2246V368H59.502V364.719L59.6729 360.33L56.7334 368H55.4961L52.5635 360.337L52.7344 364.719V368H51.0117V358.047H53.2539ZM66.3721 368.137C65.3193 368.137 64.4648 367.806 63.8086 367.146C63.1569 366.48 62.8311 365.596 62.8311 364.493V364.288C62.8311 363.55 62.9723 362.891 63.2549 362.312C63.542 361.729 63.943 361.276 64.458 360.952C64.973 360.629 65.5472 360.467 66.1807 360.467C67.1878 360.467 67.9648 360.788 68.5117 361.431C69.0632 362.073 69.3389 362.982 69.3389 364.158V364.828H64.5059C64.556 365.439 64.7588 365.922 65.1143 366.277C65.4743 366.633 65.9255 366.811 66.4678 366.811C67.2288 366.811 67.8486 366.503 68.3271 365.888L69.2227 366.742C68.9264 367.184 68.5299 367.528 68.0332 367.774C67.541 368.016 66.9873 368.137 66.3721 368.137ZM66.1738 361.8C65.7181 361.8 65.349 361.959 65.0664 362.278C64.7884 362.597 64.6107 363.042 64.5332 363.611H67.6982V363.488C67.6618 362.932 67.5137 362.513 67.2539 362.23C66.9941 361.943 66.6341 361.8 66.1738 361.8ZM72.7158 358.806V360.604H74.0215V361.834H72.7158V365.963C72.7158 366.245 72.7705 366.451 72.8799 366.578C72.9938 366.701 73.1943 366.763 73.4814 366.763C73.6729 366.763 73.8665 366.74 74.0625 366.694V367.979C73.6842 368.084 73.3197 368.137 72.9688 368.137C71.6927 368.137 71.0547 367.433 71.0547 366.024V361.834H69.8379V360.604H71.0547V358.806H72.7158ZM76.9336 361.41C77.4759 360.781 78.1618 360.467 78.9912 360.467C80.568 360.467 81.3678 361.367 81.3906 363.167V368H79.7295V363.229C79.7295 362.718 79.6178 362.358 79.3945 362.148C79.1758 361.934 78.8522 361.827 78.4238 361.827C77.7585 361.827 77.2617 362.123 76.9336 362.716V368H75.2725V357.5H76.9336V361.41ZM82.7646 364.233C82.7646 363.509 82.9082 362.857 83.1953 362.278C83.4824 361.695 83.8857 361.248 84.4053 360.938C84.9248 360.624 85.5218 360.467 86.1963 360.467C87.1943 360.467 88.0033 360.788 88.623 361.431C89.2474 362.073 89.5846 362.925 89.6348 363.987L89.6416 364.377C89.6416 365.106 89.5003 365.758 89.2178 366.332C88.9398 366.906 88.5387 367.351 88.0146 367.665C87.4951 367.979 86.8936 368.137 86.21 368.137C85.1663 368.137 84.3301 367.79 83.7012 367.098C83.0768 366.4 82.7646 365.473 82.7646 364.315V364.233ZM84.4258 364.377C84.4258 365.138 84.583 365.735 84.8975 366.168C85.2119 366.596 85.6494 366.811 86.21 366.811C86.7705 366.811 87.2057 366.592 87.5156 366.154C87.8301 365.717 87.9873 365.076 87.9873 364.233C87.9873 363.486 87.8255 362.894 87.502 362.456C87.1829 362.019 86.7477 361.8 86.1963 361.8C85.654 361.8 85.2233 362.016 84.9043 362.449C84.5853 362.878 84.4258 363.52 84.4258 364.377ZM90.7354 364.247C90.7354 363.108 90.9997 362.194 91.5283 361.506C92.057 360.813 92.7656 360.467 93.6543 360.467C94.4382 360.467 95.0716 360.74 95.5547 361.287V357.5H97.2158V368H95.7119L95.6299 367.234C95.1331 367.836 94.4701 368.137 93.6406 368.137C92.7747 368.137 92.0729 367.788 91.5352 367.091C91.002 366.394 90.7354 365.446 90.7354 364.247ZM92.3965 364.391C92.3965 365.143 92.54 365.73 92.8271 366.154C93.1188 366.574 93.5312 366.783 94.0645 366.783C94.7435 366.783 95.2402 366.48 95.5547 365.874V362.716C95.2493 362.123 94.7572 361.827 94.0781 361.827C93.5404 361.827 93.1257 362.041 92.834 362.47C92.5423 362.894 92.3965 363.534 92.3965 364.391Z" fill="#606060"/>
<line x1="34" y1="377.99" x2="117" y2="377.99" stroke="#262626" stroke-width="2"/>
<g clip-path="url(#clip5_7793_190312)">
<g clip-path="url(#clip6_7793_190312)">
<path d="M58.088 394.356H54.452V395.34H56.984V396.012C56.984 397.284 55.856 398.172 54.512 398.172C53.096 398.172 51.788 396.996 51.788 394.668C51.788 392.328 52.988 391.2 54.5 391.2C55.772 391.2 56.66 391.836 56.876 392.892H58.076C57.872 391.368 56.468 390.18 54.5 390.18C52.304 390.18 50.54 391.704 50.54 394.668C50.54 397.572 52.22 399.18 54.368 399.18C55.52 399.18 56.48 398.724 57.02 397.968L57.188 399H58.088V394.356ZM64.7994 394.104H60.9834V391.392H65.1474V390.36H59.7594V399H65.1474V397.968H60.9834V395.112H64.7994V394.104ZM72.866 390.36H65.87V391.452H68.738V399H69.962V391.452H72.866V390.36Z" fill="#CCCCCC"/>
</g>
</g>
<rect x="117" y="347" width="1" height="96" fill="#292929"/>
<path d="M128.741 364.302V368H127.012V358.047H130.819C131.931 358.047 132.813 358.336 133.465 358.915C134.121 359.494 134.449 360.259 134.449 361.212C134.449 362.187 134.128 362.946 133.485 363.488C132.847 364.031 131.952 364.302 130.799 364.302H128.741ZM128.741 362.914H130.819C131.435 362.914 131.904 362.771 132.228 362.483C132.551 362.192 132.713 361.772 132.713 361.226C132.713 360.688 132.549 360.259 132.221 359.94C131.893 359.617 131.441 359.451 130.867 359.441H128.741V362.914ZM140.144 368C140.071 367.859 140.007 367.629 139.952 367.31C139.424 367.861 138.776 368.137 138.011 368.137C137.268 368.137 136.662 367.925 136.192 367.501C135.723 367.077 135.488 366.553 135.488 365.929C135.488 365.14 135.78 364.536 136.363 364.117C136.951 363.693 137.79 363.481 138.879 363.481H139.897V362.996C139.897 362.613 139.79 362.308 139.576 362.08C139.362 361.848 139.036 361.731 138.599 361.731C138.22 361.731 137.91 361.827 137.669 362.019C137.427 362.205 137.307 362.445 137.307 362.736H135.646C135.646 362.331 135.78 361.952 136.049 361.602C136.318 361.246 136.682 360.968 137.143 360.768C137.607 360.567 138.125 360.467 138.694 360.467C139.56 360.467 140.251 360.686 140.766 361.123C141.281 361.556 141.545 362.167 141.559 362.955V366.291C141.559 366.956 141.652 367.487 141.839 367.884V368H140.144ZM138.318 366.804C138.646 366.804 138.954 366.724 139.241 366.564C139.533 366.405 139.752 366.191 139.897 365.922V364.527H139.002C138.387 364.527 137.924 364.634 137.614 364.849C137.304 365.063 137.149 365.366 137.149 365.758C137.149 366.077 137.254 366.332 137.464 366.523C137.678 366.71 137.963 366.804 138.318 366.804ZM145.38 358.806V360.604H146.686V361.834H145.38V365.963C145.38 366.245 145.435 366.451 145.544 366.578C145.658 366.701 145.858 366.763 146.146 366.763C146.337 366.763 146.531 366.74 146.727 366.694V367.979C146.348 368.084 145.984 368.137 145.633 368.137C144.357 368.137 143.719 367.433 143.719 366.024V361.834H142.502V360.604H143.719V358.806H145.38ZM149.598 361.41C150.14 360.781 150.826 360.467 151.655 360.467C153.232 360.467 154.032 361.367 154.055 363.167V368H152.394V363.229C152.394 362.718 152.282 362.358 152.059 362.148C151.84 361.934 151.516 361.827 151.088 361.827C150.423 361.827 149.926 362.123 149.598 362.716V368H147.937V357.5H149.598V361.41Z" fill="#606060"/>
<line x1="118" y1="377.99" x2="206" y2="377.99" stroke="#262626" stroke-width="2"/>
<g clip-path="url(#clip7_7793_190312)">
<path d="M126.42 400.26H127.694L131.18 388.71H129.906L126.42 400.26ZM139.151 399V388.92H137.807V392.644C137.331 391.986 136.575 391.51 135.469 391.51C133.523 391.51 132.165 392.798 132.165 395.402C132.165 397.866 133.551 399.21 135.385 399.21C136.519 399.21 137.317 398.692 137.807 397.978L138.045 399H139.151ZM133.565 395.43C133.565 393.526 134.405 392.658 135.679 392.658C137.023 392.658 137.877 393.666 137.877 395.444C137.877 396.97 137.065 398.062 135.679 398.062C134.461 398.062 133.565 397.18 133.565 395.43ZM142.545 390.502V388.92H141.033V390.502H142.545ZM142.461 399V391.72H141.117V399H142.461ZM143.865 396.914C143.991 398.314 145.181 399.21 147.001 399.21C148.933 399.21 150.039 398.258 150.039 396.928C150.039 395.43 148.919 394.954 147.225 394.576C145.825 394.268 145.531 394.016 145.531 393.456C145.531 392.952 145.979 392.574 146.987 392.574C147.911 392.574 148.457 392.966 148.611 393.638H149.983C149.745 392.308 148.625 391.51 147.001 391.51C145.167 391.51 144.173 392.336 144.173 393.582C144.173 394.66 144.859 395.304 146.567 395.682C147.869 395.976 148.681 396.172 148.681 397.026C148.681 397.656 148.107 398.146 147.015 398.146C145.993 398.146 145.391 397.782 145.237 396.914H143.865ZM156.322 396.662C156.182 397.572 155.524 398.076 154.628 398.076C153.494 398.076 152.584 397.236 152.584 395.458C152.584 393.526 153.424 392.644 154.614 392.644C155.468 392.644 156.07 393.078 156.252 393.876H157.736C157.498 392.392 156.238 391.51 154.586 391.51C152.528 391.51 151.156 392.98 151.156 395.416C151.156 397.88 152.668 399.21 154.6 399.21C156.406 399.21 157.596 398.076 157.792 396.662H156.322Z" fill="#CCCCCC"/>
</g>
<rect x="205.5" y="347" width="1" height="96" fill="#292929"/>
<path d="M222.703 359.441H219.6V368H217.884V359.441H214.808V358.047H222.703V359.441ZM225.882 365.621L227.386 360.604H229.156L226.217 369.121C225.766 370.365 225 370.987 223.92 370.987C223.678 370.987 223.412 370.946 223.12 370.864V369.579L223.435 369.6C223.854 369.6 224.168 369.522 224.378 369.367C224.592 369.217 224.761 368.962 224.884 368.602L225.123 367.966L222.525 360.604H224.316L225.882 365.621ZM236.594 364.377C236.594 365.521 236.334 366.435 235.814 367.118C235.295 367.797 234.598 368.137 233.723 368.137C232.911 368.137 232.262 367.87 231.774 367.337V370.844H230.113V360.604H231.645L231.713 361.355C232.201 360.763 232.864 360.467 233.702 360.467C234.604 360.467 235.311 360.804 235.821 361.479C236.336 362.148 236.594 363.08 236.594 364.274V364.377ZM234.939 364.233C234.939 363.495 234.791 362.91 234.495 362.477C234.203 362.044 233.784 361.827 233.237 361.827C232.558 361.827 232.071 362.107 231.774 362.668V365.949C232.075 366.523 232.567 366.811 233.251 366.811C233.78 366.811 234.192 366.599 234.488 366.175C234.789 365.746 234.939 365.099 234.939 364.233ZM241.263 368.137C240.21 368.137 239.355 367.806 238.699 367.146C238.048 366.48 237.722 365.596 237.722 364.493V364.288C237.722 363.55 237.863 362.891 238.146 362.312C238.433 361.729 238.834 361.276 239.349 360.952C239.864 360.629 240.438 360.467 241.071 360.467C242.078 360.467 242.855 360.788 243.402 361.431C243.954 362.073 244.229 362.982 244.229 364.158V364.828H239.396C239.447 365.439 239.649 365.922 240.005 366.277C240.365 366.633 240.816 366.811 241.358 366.811C242.119 366.811 242.739 366.503 243.218 365.888L244.113 366.742C243.817 367.184 243.421 367.528 242.924 367.774C242.432 368.016 241.878 368.137 241.263 368.137ZM241.064 361.8C240.609 361.8 240.24 361.959 239.957 362.278C239.679 362.597 239.501 363.042 239.424 363.611H242.589V363.488C242.552 362.932 242.404 362.513 242.145 362.23C241.885 361.943 241.525 361.8 241.064 361.8Z" fill="#606060"/>
<line x1="206.5" y1="377.99" x2="519.5" y2="377.991" stroke="#262626" stroke-width="2"/>
<g clip-path="url(#clip8_7793_190312)">
<path d="M215.55 388.92V399H219.148C221.682 399 222.998 397.936 222.998 396.158C222.998 394.828 222.102 393.848 221.066 393.666C221.99 393.428 222.69 392.546 222.69 391.594C222.69 389.928 221.5 388.92 219.176 388.92H215.55ZM219.414 394.268C220.8 394.268 221.514 394.926 221.514 396.158C221.514 397.236 220.814 397.838 219.358 397.838H216.978V394.268H219.414ZM219.288 389.998C220.534 389.998 221.248 390.6 221.248 391.594C221.248 392.532 220.604 393.176 219.372 393.176H216.978V389.998H219.288ZM225.957 399V395.346C225.957 393.512 226.769 392.826 227.693 392.826C228.015 392.826 228.281 392.882 228.547 392.952V391.608C228.379 391.566 228.099 391.51 227.749 391.51C226.937 391.51 226.307 391.958 225.901 392.798L225.719 391.72H224.613V399H225.957ZM234.422 396.9C234.212 397.572 233.54 398.076 232.658 398.076C231.44 398.076 230.53 397.334 230.418 395.654H235.962C235.962 392.714 234.562 391.51 232.546 391.51C230.53 391.51 229.046 392.826 229.046 395.36C229.046 397.922 230.544 399.21 232.616 399.21C234.366 399.21 235.514 398.23 235.878 396.9H234.422ZM230.474 394.59C230.684 393.246 231.496 392.588 232.574 392.588C233.694 392.588 234.492 393.232 234.59 394.59H230.474ZM238.722 393.75C238.82 393.022 239.324 392.574 240.36 392.574C241.438 392.574 242.04 393.078 242.04 393.974V394.338L239.912 394.702C237.952 395.038 237.154 395.794 237.154 397.124C237.154 398.314 238.078 399.21 239.674 399.21C240.85 399.21 241.634 398.678 242.11 398.006L242.278 399H243.384V394.03C243.384 392.532 242.32 391.51 240.416 391.51C238.596 391.51 237.434 392.406 237.294 393.75H238.722ZM242.04 395.388V396.326C242.04 397.32 241.018 398.076 239.996 398.076C239.086 398.076 238.582 397.684 238.582 396.984C238.582 396.34 238.932 395.934 240.234 395.71L242.04 395.388ZM246.615 399V395.332L249.849 399H251.641L247.959 394.884L251.235 391.72H249.471L246.615 394.548V388.92H245.271V399H246.615ZM253.972 390.502V388.92H252.46V390.502H253.972ZM253.888 399V391.72H252.544V399H253.888ZM257.197 399V394.506C257.197 393.358 258.037 392.658 259.003 392.658C259.997 392.658 260.557 393.176 260.557 394.268V399H261.901V394.254C261.901 392.476 260.907 391.51 259.325 391.51C258.457 391.51 257.645 391.902 257.113 392.644L256.959 391.72H255.853V399H257.197ZM263.712 399.49C263.95 400.848 265.056 401.73 267.002 401.73C269.158 401.73 270.362 400.498 270.362 398.846V391.72H269.256L269.046 392.686C268.584 392 267.814 391.51 266.68 391.51C264.706 391.51 263.376 392.91 263.376 395.192C263.376 397.516 264.888 398.79 266.596 398.79C267.716 398.79 268.528 398.412 269.018 397.838V398.776C269.018 399.98 268.318 400.666 266.96 400.666C265.896 400.666 265.28 400.218 265.154 399.49H263.712ZM264.776 395.22C264.776 393.484 265.658 392.658 266.89 392.658C268.192 392.658 269.088 393.554 269.088 395.262C269.088 396.732 268.276 397.642 266.89 397.642C265.728 397.642 264.776 396.76 264.776 395.22Z" fill="#CCCCCC"/>
</g>
<rect x="356.5" y="347" width="1" height="96" fill="#292929"/>
<path d="M366.512 368V358.047H369.451C370.331 358.047 371.11 358.243 371.789 358.635C372.473 359.027 373.001 359.583 373.375 360.303C373.749 361.023 373.936 361.848 373.936 362.777V363.276C373.936 364.22 373.746 365.049 373.368 365.765C372.994 366.48 372.459 367.032 371.762 367.419C371.069 367.806 370.274 368 369.376 368H366.512ZM368.241 359.441V366.619H369.369C370.276 366.619 370.971 366.337 371.454 365.771C371.942 365.202 372.19 364.386 372.199 363.324V362.771C372.199 361.69 371.965 360.866 371.495 360.296C371.026 359.726 370.344 359.441 369.451 359.441H368.241ZM378.755 368.137C377.702 368.137 376.848 367.806 376.191 367.146C375.54 366.48 375.214 365.596 375.214 364.493V364.288C375.214 363.55 375.355 362.891 375.638 362.312C375.925 361.729 376.326 361.276 376.841 360.952C377.356 360.629 377.93 360.467 378.563 360.467C379.571 360.467 380.348 360.788 380.895 361.431C381.446 362.073 381.722 362.982 381.722 364.158V364.828H376.889C376.939 365.439 377.142 365.922 377.497 366.277C377.857 366.633 378.308 366.811 378.851 366.811C379.612 366.811 380.231 366.503 380.71 365.888L381.605 366.742C381.309 367.184 380.913 367.528 380.416 367.774C379.924 368.016 379.37 368.137 378.755 368.137ZM378.557 361.8C378.101 361.8 377.732 361.959 377.449 362.278C377.171 362.597 376.993 363.042 376.916 363.611H380.081V363.488C380.045 362.932 379.896 362.513 379.637 362.23C379.377 361.943 379.017 361.8 378.557 361.8ZM387.163 365.99C387.163 365.694 387.04 365.468 386.794 365.313C386.552 365.159 386.149 365.022 385.584 364.903C385.019 364.785 384.547 364.634 384.169 364.452C383.34 364.051 382.925 363.47 382.925 362.709C382.925 362.071 383.194 361.538 383.731 361.109C384.269 360.681 384.953 360.467 385.782 360.467C386.666 360.467 387.38 360.686 387.922 361.123C388.469 361.561 388.742 362.128 388.742 362.825H387.081C387.081 362.506 386.963 362.242 386.726 362.032C386.489 361.818 386.174 361.711 385.782 361.711C385.418 361.711 385.119 361.795 384.887 361.964C384.659 362.132 384.545 362.358 384.545 362.641C384.545 362.896 384.652 363.094 384.866 363.235C385.08 363.377 385.513 363.52 386.165 363.666C386.817 363.807 387.327 363.978 387.696 364.179C388.07 364.375 388.346 364.612 388.523 364.89C388.706 365.168 388.797 365.505 388.797 365.901C388.797 366.567 388.521 367.107 387.97 367.521C387.418 367.932 386.696 368.137 385.803 368.137C385.197 368.137 384.657 368.027 384.183 367.809C383.709 367.59 383.34 367.289 383.075 366.906C382.811 366.523 382.679 366.111 382.679 365.669H384.292C384.315 366.061 384.463 366.364 384.736 366.578C385.01 366.788 385.372 366.893 385.823 366.893C386.261 366.893 386.593 366.811 386.821 366.646C387.049 366.478 387.163 366.259 387.163 365.99ZM393.288 366.811C393.703 366.811 394.047 366.69 394.32 366.448C394.594 366.207 394.74 365.908 394.758 365.553H396.323C396.305 366.013 396.161 366.444 395.893 366.845C395.624 367.241 395.259 367.556 394.799 367.788C394.339 368.021 393.842 368.137 393.309 368.137C392.274 368.137 391.454 367.802 390.848 367.132C390.242 366.462 389.938 365.537 389.938 364.356V364.186C389.938 363.06 390.239 362.16 390.841 361.485C391.442 360.806 392.263 360.467 393.302 360.467C394.181 360.467 394.897 360.724 395.448 361.239C396.004 361.75 396.296 362.422 396.323 363.256H394.758C394.74 362.832 394.594 362.483 394.32 362.21C394.051 361.937 393.707 361.8 393.288 361.8C392.75 361.8 392.336 361.996 392.044 362.388C391.752 362.775 391.604 363.365 391.6 364.158V364.425C391.6 365.227 391.743 365.826 392.03 366.223C392.322 366.615 392.741 366.811 393.288 366.811ZM401.45 362.121C401.231 362.085 401.006 362.066 400.773 362.066C400.012 362.066 399.5 362.358 399.235 362.941V368H397.574V360.604H399.16L399.201 361.431C399.602 360.788 400.158 360.467 400.869 360.467C401.106 360.467 401.302 360.499 401.457 360.562L401.45 362.121ZM404.267 368H402.605V360.604H404.267V368ZM402.503 358.683C402.503 358.427 402.583 358.215 402.742 358.047C402.906 357.878 403.139 357.794 403.439 357.794C403.74 357.794 403.973 357.878 404.137 358.047C404.301 358.215 404.383 358.427 404.383 358.683C404.383 358.933 404.301 359.143 404.137 359.312C403.973 359.476 403.74 359.558 403.439 359.558C403.139 359.558 402.906 359.476 402.742 359.312C402.583 359.143 402.503 358.933 402.503 358.683ZM412.559 364.377C412.559 365.521 412.299 366.435 411.779 367.118C411.26 367.797 410.562 368.137 409.688 368.137C408.876 368.137 408.227 367.87 407.739 367.337V370.844H406.078V360.604H407.609L407.678 361.355C408.165 360.763 408.828 360.467 409.667 360.467C410.569 360.467 411.276 360.804 411.786 361.479C412.301 362.148 412.559 363.08 412.559 364.274V364.377ZM410.904 364.233C410.904 363.495 410.756 362.91 410.46 362.477C410.168 362.044 409.749 361.827 409.202 361.827C408.523 361.827 408.035 362.107 407.739 362.668V365.949C408.04 366.523 408.532 366.811 409.216 366.811C409.744 366.811 410.157 366.599 410.453 366.175C410.754 365.746 410.904 365.099 410.904 364.233ZM416.052 358.806V360.604H417.357V361.834H416.052V365.963C416.052 366.245 416.106 366.451 416.216 366.578C416.33 366.701 416.53 366.763 416.817 366.763C417.009 366.763 417.202 366.74 417.398 366.694V367.979C417.02 368.084 416.656 368.137 416.305 368.137C415.029 368.137 414.391 367.433 414.391 366.024V361.834H413.174V360.604H414.391V358.806H416.052ZM420.399 368H418.738V360.604H420.399V368ZM418.636 358.683C418.636 358.427 418.715 358.215 418.875 358.047C419.039 357.878 419.271 357.794 419.572 357.794C419.873 357.794 420.105 357.878 420.27 358.047C420.434 358.215 420.516 358.427 420.516 358.683C420.516 358.933 420.434 359.143 420.27 359.312C420.105 359.476 419.873 359.558 419.572 359.558C419.271 359.558 419.039 359.476 418.875 359.312C418.715 359.143 418.636 358.933 418.636 358.683ZM421.903 364.233C421.903 363.509 422.047 362.857 422.334 362.278C422.621 361.695 423.024 361.248 423.544 360.938C424.063 360.624 424.66 360.467 425.335 360.467C426.333 360.467 427.142 360.788 427.762 361.431C428.386 362.073 428.723 362.925 428.773 363.987L428.78 364.377C428.78 365.106 428.639 365.758 428.356 366.332C428.078 366.906 427.677 367.351 427.153 367.665C426.634 367.979 426.032 368.137 425.349 368.137C424.305 368.137 423.469 367.79 422.84 367.098C422.215 366.4 421.903 365.473 421.903 364.315V364.233ZM423.564 364.377C423.564 365.138 423.722 365.735 424.036 366.168C424.351 366.596 424.788 366.811 425.349 366.811C425.909 366.811 426.344 366.592 426.654 366.154C426.969 365.717 427.126 365.076 427.126 364.233C427.126 363.486 426.964 362.894 426.641 362.456C426.322 362.019 425.886 361.8 425.335 361.8C424.793 361.8 424.362 362.016 424.043 362.449C423.724 362.878 423.564 363.52 423.564 364.377ZM431.727 360.604L431.774 361.458C432.321 360.797 433.039 360.467 433.928 360.467C435.468 360.467 436.252 361.349 436.279 363.112V368H434.618V363.208C434.618 362.739 434.516 362.392 434.311 362.169C434.11 361.941 433.78 361.827 433.319 361.827C432.649 361.827 432.15 362.13 431.822 362.736V368H430.161V360.604H431.727Z" fill="#606060"/>
<line x1="357.5" y1="377.99" x2="445.5" y2="377.99" stroke="#262626" stroke-width="2"/>
<g clip-path="url(#clip9_7793_190312)">
<path d="M371.94 391.72L371.744 392.602C371.254 391.958 370.47 391.51 369.364 391.51C367.418 391.51 366.06 392.798 366.06 395.402C366.06 397.866 367.446 399.21 369.28 399.21C370.4 399.21 371.212 398.692 371.702 397.992V401.52H373.046V391.72H371.94ZM367.46 395.43C367.46 393.526 368.3 392.658 369.574 392.658C370.918 392.658 371.772 393.666 371.772 395.444C371.772 396.97 370.96 398.062 369.574 398.062C368.356 398.062 367.46 397.18 367.46 395.43ZM374.941 391.72V396.466C374.941 398.328 375.991 399.21 377.489 399.21C378.371 399.21 379.155 398.86 379.673 398.16L379.827 399H380.933V391.72H379.589V396.158C379.589 397.152 379.015 398.062 377.797 398.062C376.859 398.062 376.285 397.572 376.285 396.494V391.72H374.941ZM387.856 396.9C387.646 397.572 386.974 398.076 386.092 398.076C384.874 398.076 383.964 397.334 383.852 395.654H389.396C389.396 392.714 387.996 391.51 385.98 391.51C383.964 391.51 382.48 392.826 382.48 395.36C382.48 397.922 383.978 399.21 386.05 399.21C387.8 399.21 388.948 398.23 389.312 396.9H387.856ZM383.908 394.59C384.118 393.246 384.93 392.588 386.008 392.588C387.128 392.588 387.926 393.232 388.024 394.59H383.908ZM392.351 399V395.346C392.351 393.512 393.163 392.826 394.087 392.826C394.409 392.826 394.675 392.882 394.941 392.952V391.608C394.773 391.566 394.493 391.51 394.143 391.51C393.331 391.51 392.701 391.958 392.295 392.798L392.113 391.72H391.007V399H392.351ZM402.074 391.72H400.73L398.672 397.908L396.614 391.72H395.158L397.832 399H398.266C397.846 400.148 397.636 400.61 396.992 400.61C396.768 400.61 396.572 400.582 396.292 400.512V401.604C396.684 401.702 396.866 401.73 397.16 401.73C398.504 401.73 398.994 400.694 399.54 399.098L402.074 391.72Z" fill="#CCCCCC"/>
</g>
<rect x="445" y="347" width="1" height="96" fill="#292929"/>
<path d="M468.583 365.683H464.728L463.921 368H462.123L465.883 358.047H467.435L471.201 368H469.396L468.583 365.683ZM465.213 364.288H468.098L466.655 360.159L465.213 364.288ZM475.214 366.811C475.629 366.811 475.973 366.69 476.246 366.448C476.52 366.207 476.665 365.908 476.684 365.553H478.249C478.231 366.013 478.087 366.444 477.818 366.845C477.549 367.241 477.185 367.556 476.725 367.788C476.264 368.021 475.768 368.137 475.234 368.137C474.2 368.137 473.38 367.802 472.773 367.132C472.167 366.462 471.864 365.537 471.864 364.356V364.186C471.864 363.06 472.165 362.16 472.767 361.485C473.368 360.806 474.188 360.467 475.228 360.467C476.107 360.467 476.823 360.724 477.374 361.239C477.93 361.75 478.222 362.422 478.249 363.256H476.684C476.665 362.832 476.52 362.483 476.246 362.21C475.977 361.937 475.633 361.8 475.214 361.8C474.676 361.8 474.261 361.996 473.97 362.388C473.678 362.775 473.53 363.365 473.525 364.158V364.425C473.525 365.227 473.669 365.826 473.956 366.223C474.248 366.615 474.667 366.811 475.214 366.811ZM481.585 358.806V360.604H482.891V361.834H481.585V365.963C481.585 366.245 481.64 366.451 481.749 366.578C481.863 366.701 482.063 366.763 482.351 366.763C482.542 366.763 482.736 366.74 482.932 366.694V367.979C482.553 368.084 482.189 368.137 481.838 368.137C480.562 368.137 479.924 367.433 479.924 366.024V361.834H478.707V360.604H479.924V358.806H481.585ZM485.933 368H484.271V360.604H485.933V368ZM484.169 358.683C484.169 358.427 484.249 358.215 484.408 358.047C484.572 357.878 484.805 357.794 485.105 357.794C485.406 357.794 485.639 357.878 485.803 358.047C485.967 358.215 486.049 358.427 486.049 358.683C486.049 358.933 485.967 359.143 485.803 359.312C485.639 359.476 485.406 359.558 485.105 359.558C484.805 359.558 484.572 359.476 484.408 359.312C484.249 359.143 484.169 358.933 484.169 358.683ZM487.437 364.233C487.437 363.509 487.58 362.857 487.867 362.278C488.154 361.695 488.558 361.248 489.077 360.938C489.597 360.624 490.194 360.467 490.868 360.467C491.866 360.467 492.675 360.788 493.295 361.431C493.919 362.073 494.257 362.925 494.307 363.987L494.313 364.377C494.313 365.106 494.172 365.758 493.89 366.332C493.612 366.906 493.211 367.351 492.687 367.665C492.167 367.979 491.565 368.137 490.882 368.137C489.838 368.137 489.002 367.79 488.373 367.098C487.749 366.4 487.437 365.473 487.437 364.315V364.233ZM489.098 364.377C489.098 365.138 489.255 365.735 489.569 366.168C489.884 366.596 490.321 366.811 490.882 366.811C491.442 366.811 491.878 366.592 492.188 366.154C492.502 365.717 492.659 365.076 492.659 364.233C492.659 363.486 492.497 362.894 492.174 362.456C491.855 362.019 491.42 361.8 490.868 361.8C490.326 361.8 489.895 362.016 489.576 362.449C489.257 362.878 489.098 363.52 489.098 364.377ZM497.26 360.604L497.308 361.458C497.854 360.797 498.572 360.467 499.461 360.467C501.001 360.467 501.785 361.349 501.812 363.112V368H500.151V363.208C500.151 362.739 500.049 362.392 499.844 362.169C499.643 361.941 499.313 361.827 498.853 361.827C498.183 361.827 497.684 362.13 497.355 362.736V368H495.694V360.604H497.26Z" fill="#606060"/>
<line y1="-1" x2="73" y2="-1" transform="matrix(1 9.08147e-06 -8.99137e-07 1 446 378.99)" stroke="#292929" stroke-width="2"/>
<g clip-path="url(#clip10_7793_190312)">
<path d="M475.513 396.493C475.513 395.213 475.816 394.04 476.42 392.973C477.06 391.907 477.913 391.071 478.98 390.467C480.047 389.827 481.22 389.507 482.5 389.507C483.78 389.507 484.953 389.827 486.02 390.467C487.087 391.071 487.922 391.907 488.527 392.973C489.167 394.04 489.487 395.213 489.487 396.493H488.527C488.527 395.427 488.242 394.431 487.673 393.507C487.14 392.582 486.411 391.853 485.487 391.32C484.562 390.787 483.567 390.52 482.5 390.52C481.433 390.52 480.438 390.787 479.513 391.32C478.589 391.853 477.86 392.582 477.327 393.507C476.793 394.431 476.527 395.427 476.527 396.493H475.513ZM479.513 396.493C479.513 395.64 479.798 394.929 480.367 394.36C480.936 393.791 481.647 393.507 482.5 393.507C483.353 393.507 484.064 393.791 484.633 394.36C485.202 394.929 485.487 395.64 485.487 396.493C485.487 397.347 485.202 398.058 484.633 398.627C484.064 399.196 483.353 399.48 482.5 399.48C481.647 399.48 480.936 399.196 480.367 398.627C479.798 398.058 479.513 397.347 479.513 396.493ZM480.527 396.493C480.527 397.062 480.722 397.542 481.113 397.933C481.504 398.324 481.967 398.52 482.5 398.52C483.033 398.52 483.496 398.324 483.887 397.933C484.313 397.542 484.527 397.08 484.527 396.547C484.527 395.978 484.313 395.498 483.887 395.107C483.496 394.716 483.033 394.52 482.5 394.52C481.967 394.52 481.504 394.716 481.113 395.107C480.722 395.498 480.527 395.96 480.527 396.493Z" fill="white"/>
</g>
<rect x="126" y="386" width="35" height="17" fill="#292929"/>
<rect x="214" y="386" width="66" height="17" fill="#292929"/>
<rect x="365" y="387" width="66" height="17" fill="#292929"/>
</g>
<rect x="33.5" y="346.5" width="486" height="97" stroke="#292929"/>
</g>
</g>
<rect x="17" y="28" width="520" height="374" rx="13" stroke="#292929" stroke-width="2"/>
</g>
<g filter="url(#filter1_b_7793_190312)">
<rect x="398" y="2" width="175" height="88" rx="12" fill="#333333" fill-opacity="0.96"/>
<rect x="397" y="1" width="177" height="90" rx="13" stroke="#292929" stroke-width="2"/>
</g>
<path d="M415.432 49.05C415.432 48.81 415.375 48.6167 415.262 48.47C415.155 48.3233 414.939 48.1767 414.612 48.03C414.292 47.8833 413.809 47.72 413.162 47.54C412.349 47.3133 411.779 47.0433 411.452 46.73C411.132 46.4167 410.972 46.0067 410.972 45.5C410.972 44.96 411.199 44.5167 411.652 44.17C412.112 43.8233 412.745 43.65 413.552 43.65C414.332 43.65 414.979 43.8233 415.492 44.17C416.012 44.5167 416.315 44.9933 416.402 45.6H415.352C415.299 45.2467 415.119 44.9733 414.812 44.78C414.505 44.5867 414.085 44.49 413.552 44.49C413.032 44.49 412.642 44.58 412.382 44.76C412.122 44.94 411.992 45.1733 411.992 45.46C411.992 45.7533 412.109 45.9867 412.342 46.16C412.575 46.3333 413.089 46.53 413.882 46.75C414.862 47.0233 415.535 47.3267 415.902 47.66C416.269 47.9933 416.452 48.4433 416.452 49.01C416.452 49.5967 416.199 50.1 415.692 50.52C415.185 50.94 414.502 51.15 413.642 51.15C412.862 51.15 412.205 50.9533 411.672 50.56C411.139 50.1667 410.822 49.64 410.722 48.98H411.772C411.832 49.3933 412.022 49.72 412.342 49.96C412.669 50.1933 413.095 50.31 413.622 50.31C414.195 50.31 414.639 50.19 414.952 49.95C415.272 49.71 415.432 49.41 415.432 49.05ZM420.995 49.33H422.045C421.972 49.85 421.729 50.2833 421.315 50.63C420.909 50.9767 420.392 51.15 419.765 51.15C419.045 51.15 418.455 50.9133 417.995 50.44C417.535 49.96 417.305 49.2933 417.305 48.44C417.305 47.58 417.529 46.9 417.975 46.4C418.422 45.9 419.015 45.65 419.755 45.65C420.355 45.65 420.859 45.8 421.265 46.1C421.672 46.4 421.919 46.8133 422.005 47.34H420.945C420.879 47.06 420.742 46.8433 420.535 46.69C420.335 46.5367 420.082 46.46 419.775 46.46C419.329 46.46 418.975 46.63 418.715 46.97C418.455 47.3033 418.325 47.8033 418.325 48.47C418.325 49.0767 418.462 49.54 418.735 49.86C419.009 50.18 419.359 50.34 419.785 50.34C420.112 50.34 420.382 50.2533 420.595 50.08C420.815 49.9 420.949 49.65 420.995 49.33ZM422.842 48.4C422.842 47.5067 423.082 46.8267 423.562 46.36C424.049 45.8867 424.666 45.65 425.412 45.65C426.166 45.65 426.779 45.8867 427.252 46.36C427.732 46.8267 427.972 47.5067 427.972 48.4C427.972 49.28 427.736 49.96 427.262 50.44C426.789 50.9133 426.169 51.15 425.402 51.15C424.649 51.15 424.032 50.91 423.552 50.43C423.079 49.95 422.842 49.2733 422.842 48.4ZM424.282 46.95C423.989 47.29 423.842 47.7733 423.842 48.4C423.842 49.0267 423.989 49.5133 424.282 49.86C424.576 50.2 424.956 50.37 425.422 50.37C425.896 50.37 426.272 50.2 426.552 49.86C426.832 49.52 426.972 49.0333 426.972 48.4C426.972 47.76 426.829 47.2733 426.542 46.94C426.256 46.6 425.879 46.43 425.412 46.43C424.952 46.43 424.576 46.6033 424.282 46.95ZM430.03 51H429.07V45.8H429.86L429.99 46.57C430.283 45.9567 430.723 45.65 431.31 45.65C431.503 45.65 431.693 45.6733 431.88 45.72V46.68C431.653 46.62 431.45 46.59 431.27 46.59C430.91 46.59 430.613 46.7367 430.38 47.03C430.147 47.3233 430.03 47.7767 430.03 48.39V51ZM436.077 49.5H437.117C436.984 49.9933 436.714 50.3933 436.307 50.7C435.9 51 435.394 51.15 434.787 51.15C434.02 51.15 433.404 50.9133 432.937 50.44C432.47 49.9667 432.237 49.2867 432.237 48.4C432.237 47.52 432.467 46.8433 432.927 46.37C433.387 45.89 433.99 45.65 434.737 45.65C435.497 45.65 436.094 45.8933 436.527 46.38C436.96 46.86 437.177 47.6033 437.177 48.61H433.217C433.257 49.19 433.42 49.6233 433.707 49.91C433.994 50.1967 434.364 50.34 434.817 50.34C435.124 50.34 435.39 50.2633 435.617 50.11C435.844 49.95 435.997 49.7467 436.077 49.5ZM434.757 46.42C434.364 46.42 434.034 46.5433 433.767 46.79C433.5 47.03 433.33 47.3833 433.257 47.85H436.197C436.164 47.3767 436.017 47.02 435.757 46.78C435.504 46.54 435.17 46.42 434.757 46.42Z" fill="white"/>
<rect opacity="0.16" x="517" y="18" width="11" height="46" fill="#A0A0A0"/>
<rect opacity="0.16" x="495" y="25" width="11" height="39" fill="#A0A0A0"/>
<rect opacity="0.16" x="473" y="33" width="11" height="31" fill="#A0A0A0"/>
<rect opacity="0.16" x="451" y="42" width="11" height="22" fill="#A0A0A0"/>
<path d="M457 76.8038C461.699 69.7162 468.79 60.4762 476.65 58.7626C486.479 56.62 507.944 71.7461 514.725 66.1719C522.747 59.5774 533.466 43.2986 545 23.9688" stroke="#7ADF2B" stroke-width="1.5" stroke-linecap="round" stroke-linejoin="round"/>
<path d="M415.719 68.8H416.719L414.139 76H412.869L410.249 68.8H411.329L413.509 75.04L415.719 68.8ZM420.563 74.5H421.603C421.47 74.9933 421.2 75.3933 420.793 75.7C420.387 76 419.88 76.15 419.273 76.15C418.507 76.15 417.89 75.9133 417.423 75.44C416.957 74.9667 416.723 74.2867 416.723 73.4C416.723 72.52 416.953 71.8433 417.413 71.37C417.873 70.89 418.477 70.65 419.223 70.65C419.983 70.65 420.58 70.8933 421.013 71.38C421.447 71.86 421.663 72.6033 421.663 73.61H417.703C417.743 74.19 417.907 74.6233 418.193 74.91C418.48 75.1967 418.85 75.34 419.303 75.34C419.61 75.34 419.877 75.2633 420.103 75.11C420.33 74.95 420.483 74.7467 420.563 74.5ZM419.243 71.42C418.85 71.42 418.52 71.5433 418.253 71.79C417.987 72.03 417.817 72.3833 417.743 72.85H420.683C420.65 72.3767 420.503 72.02 420.243 71.78C419.99 71.54 419.657 71.42 419.243 71.42ZM423.774 76H422.814V70.8H423.604L423.734 71.57C424.028 70.9567 424.468 70.65 425.054 70.65C425.248 70.65 425.438 70.6733 425.624 70.72V71.68C425.398 71.62 425.194 71.59 425.014 71.59C424.654 71.59 424.358 71.7367 424.124 72.03C423.891 72.3233 423.774 72.7767 423.774 73.39V76ZM429.419 74.59C429.419 74.47 429.392 74.3667 429.339 74.28C429.292 74.1867 429.232 74.11 429.159 74.05C429.092 73.99 428.982 73.9333 428.829 73.88C428.682 73.8267 428.549 73.7867 428.429 73.76C428.315 73.7267 428.142 73.6833 427.909 73.63C427.302 73.4967 426.865 73.31 426.599 73.07C426.332 72.83 426.199 72.5167 426.199 72.13C426.199 71.6767 426.372 71.3167 426.719 71.05C427.072 70.7833 427.572 70.65 428.219 70.65C428.799 70.65 429.275 70.7867 429.649 71.06C430.029 71.3267 430.262 71.6967 430.349 72.17H429.369C429.255 71.6633 428.869 71.41 428.209 71.41C427.862 71.41 427.602 71.47 427.429 71.59C427.255 71.7033 427.169 71.8533 427.169 72.04C427.169 72.2467 427.249 72.4067 427.409 72.52C427.569 72.6267 427.892 72.7333 428.379 72.84C429.065 72.9933 429.572 73.19 429.899 73.43C430.225 73.6633 430.389 74.0267 430.389 74.52C430.389 75.0067 430.195 75.4 429.809 75.7C429.422 76 428.892 76.15 428.219 76.15C427.572 76.15 427.049 76.0033 426.649 75.71C426.249 75.41 426.025 75.01 425.979 74.51H426.959C427.065 75.0967 427.489 75.39 428.229 75.39C428.609 75.39 428.902 75.3167 429.109 75.17C429.315 75.0167 429.419 74.8233 429.419 74.59ZM432.506 69.93H431.426V68.8H432.506V69.93ZM432.446 76H431.486V70.8H432.446V76ZM433.549 73.4C433.549 72.5067 433.789 71.8267 434.269 71.36C434.756 70.8867 435.373 70.65 436.119 70.65C436.873 70.65 437.486 70.8867 437.959 71.36C438.439 71.8267 438.679 72.5067 438.679 73.4C438.679 74.28 438.443 74.96 437.969 75.44C437.496 75.9133 436.876 76.15 436.109 76.15C435.356 76.15 434.739 75.91 434.259 75.43C433.786 74.95 433.549 74.2733 433.549 73.4ZM434.989 71.95C434.696 72.29 434.549 72.7733 434.549 73.4C434.549 74.0267 434.696 74.5133 434.989 74.86C435.283 75.2 435.663 75.37 436.129 75.37C436.603 75.37 436.979 75.2 437.259 74.86C437.539 74.52 437.679 74.0333 437.679 73.4C437.679 72.76 437.536 72.2733 437.249 71.94C436.963 71.6 436.586 71.43 436.119 71.43C435.659 71.43 435.283 71.6033 434.989 71.95ZM440.737 76H439.777V70.8H440.567L440.677 71.46C441.064 70.92 441.59 70.65 442.257 70.65C442.83 70.65 443.28 70.82 443.607 71.16C443.934 71.5 444.097 71.9833 444.097 72.61V76H443.137V72.62C443.137 71.8533 442.767 71.47 442.027 71.47C441.667 71.47 441.36 71.59 441.107 71.83C440.86 72.07 440.737 72.39 440.737 72.79V76Z" fill="white"/>
<rect opacity="0.16" x="451" y="71" width="99" height="2" fill="#A0A0A0"/>
<defs>
<filter id="filter0_d_7793_190312" x="0" y="13" width="554" height="408" filterUnits="userSpaceOnUse" color-interpolation-filters="sRGB">
<feFlood flood-opacity="0" result="BackgroundImageFix"/>
<feColorMatrix in="SourceAlpha" type="matrix" values="0 0 0 0 0 0 0 0 0 0 0 0 0 0 0 0 0 0 127 0" result="hardAlpha"/>
<feOffset dy="2"/>
<feGaussianBlur stdDeviation="8"/>
<feColorMatrix type="matrix" values="0 0 0 0 0 0 0 0 0 0 0 0 0 0 0 0 0 0 0.36 0"/>
<feBlend mode="normal" in2="BackgroundImageFix" result="effect1_dropShadow_7793_190312"/>
<feBlend mode="normal" in="SourceGraphic" in2="effect1_dropShadow_7793_190312" result="shape"/>
</filter>
<filter id="filter1_b_7793_190312" x="392" y="-4" width="187" height="100" filterUnits="userSpaceOnUse" color-interpolation-filters="sRGB">
<feFlood flood-opacity="0" result="BackgroundImageFix"/>
<feGaussianBlur in="BackgroundImageFix" stdDeviation="2"/>
<feComposite in2="SourceAlpha" operator="in" result="effect1_backgroundBlur_7793_190312"/>
<feBlend mode="normal" in="SourceGraphic" in2="effect1_backgroundBlur_7793_190312" result="shape"/>
</filter>
<clipPath id="clip0_7793_190312">
<rect x="18" y="29" width="518" height="372" rx="12" fill="white"/>
</clipPath>
<clipPath id="clip1_7793_190312">
<rect width="242" height="31" fill="white" transform="translate(34 70)"/>
</clipPath>
<clipPath id="clip2_7793_190312">
<rect width="242" height="31" fill="white" transform="translate(278 70)"/>
</clipPath>
<clipPath id="clip3_7793_190312">
<path d="M18 297C18 295.895 18.8954 295 20 295L533 295C534.105 295 535 295.895 535 297V443H18L18 297Z" fill="white"/>
</clipPath>
<clipPath id="clip4_7793_190312">
<rect x="34" y="347" width="485" height="96" fill="white"/>
</clipPath>
<clipPath id="clip5_7793_190312">
<rect width="83" height="32" fill="white" transform="translate(34 379)"/>
</clipPath>
<clipPath id="clip6_7793_190312">
<rect width="39" height="32" fill="white" transform="translate(42 379)"/>
</clipPath>
<clipPath id="clip7_7793_190312">
<rect width="87.5" height="32" fill="white" transform="translate(118 379)"/>
</clipPath>
<clipPath id="clip8_7793_190312">
<rect width="313" height="32" fill="white" transform="translate(206.5 379)"/>
</clipPath>
<clipPath id="clip9_7793_190312">
<rect width="87.5" height="32" fill="white" transform="translate(357.5 379)"/>
</clipPath>
<clipPath id="clip10_7793_190312">
<rect width="73" height="32" fill="white" transform="translate(446 379)"/>
</clipPath>
</defs>
</svg>
