<svg width="632" height="404" viewBox="0 0 632 404" fill="none" xmlns="http://www.w3.org/2000/svg">
<g filter="url(#filter0_d_7488_184305)">
<g clip-path="url(#clip0_7488_184305)">
<rect x="16" y="14" width="600" height="372" rx="12" fill="#1E1E1E"/>
<path d="M16 26C16 19.3726 21.3726 14 28 14H604C610.627 14 616 19.3726 616 26V38H16V26Z" fill="#3A3D41"/>
<path d="M32 30C34.2092 30 36 28.2092 36 26C36 23.7908 34.2092 22 32 22C29.7908 22 28 23.7908 28 26C28 28.2092 29.7908 30 32 30Z" fill="#EE7773"/>
<path d="M46 30C48.2092 30 50 28.2092 50 26C50 23.7908 48.2092 22 46 22C43.7908 22 42 23.7908 42 26C42 28.2092 43.7908 30 46 30Z" fill="#F3DA92"/>
<path d="M60 30C62.2092 30 64 28.2092 64 26C64 23.7908 62.2092 22 60 22C57.7908 22 56 23.7908 56 26C56 28.2092 57.7908 30 60 30Z" fill="#B9DBC0"/>
<rect x="16" y="38" width="40" height="328" fill="#333333"/>
<rect x="26" y="72" width="20" height="20" rx="10" fill="#606060"/>
<rect x="26" y="104" width="20" height="20" rx="10" fill="#606060"/>
<rect x="26" y="136" width="20" height="20" rx="10" fill="#606060"/>
<rect x="26" y="168" width="20" height="20" rx="10" fill="white"/>
<rect x="16" y="168" width="2" height="20" fill="white"/>
<rect x="56" y="38" width="124" height="328" fill="#292929"/>
<rect x="68" y="82" width="100" height="118" rx="2" fill="#3C3C3C"/>
<rect x="78" y="108" width="80" height="12" fill="#454545"/>
<rect x="78" y="90" width="80" height="12" fill="#606060"/>
<rect x="78" y="126" width="80" height="12" fill="#454545"/>
<rect x="78" y="144" width="80" height="12" fill="#454545"/>
<rect x="78" y="162" width="80" height="12" fill="#454545"/>
<rect x="78" y="180" width="80" height="12" fill="#454545"/>
<rect x="68" y="58" width="100" height="18" rx="2" fill="#3C3C3C"/>
<rect x="68" y="206" width="100" height="18" rx="2" fill="#3C3C3C"/>
<rect x="68" y="230" width="100" height="18" rx="2" fill="#3C3C3C"/>
<rect x="68" y="254" width="100" height="18" rx="2" fill="#3C3C3C"/>
<rect x="68" y="278" width="100" height="18" rx="2" fill="#3C3C3C"/>
<rect x="515" y="73" width="77" height="18" rx="2" fill="#3A3D41"/>
<rect x="258" y="88" width="171" height="6" fill="#292929"/>
<path d="M225.5 58C231.669 58 237.59 60.4255 241.986 64.753C246.382 69.0805 248.9 74.963 248.997 81.1309C249.094 87.2988 246.762 93.2575 242.504 97.7209C238.246 102.184 232.404 104.795 226.238 104.988C220.073 105.182 214.078 102.944 209.548 98.7566C205.018 94.5693 202.317 88.7688 202.026 82.607C201.736 76.4452 203.879 70.4162 207.995 65.8212C212.111 61.2262 217.868 58.4337 224.024 58.0464L224.374 63.5997C219.675 63.8953 215.281 66.0266 212.14 69.5336C208.999 73.0406 207.362 77.6421 207.584 82.3449C207.806 87.0477 209.868 91.4748 213.325 94.6706C216.782 97.8664 221.358 99.5747 226.063 99.4269C230.769 99.279 235.228 97.2868 238.478 93.8802C241.727 90.4735 243.507 85.9258 243.434 81.2183C243.36 76.5108 241.438 72.0212 238.082 68.7183C234.727 65.4155 230.208 63.5643 225.5 63.5643V58Z" fill="#7ADF2B"/>
<path d="M219.591 75.1705C220.189 75.1705 220.765 75.2708 221.318 75.4716C221.875 75.6686 222.371 75.9886 222.807 76.4318C223.246 76.875 223.593 77.4621 223.847 78.1932C224.104 78.9205 224.235 79.8163 224.239 80.8807C224.235 81.8693 224.121 82.7519 223.898 83.5284C223.678 84.3011 223.362 84.9583 222.949 85.5C222.536 86.0417 222.038 86.4545 221.455 86.7386C220.875 87.0189 220.225 87.1591 219.506 87.1591C218.729 87.1591 218.044 87.0095 217.449 86.7102C216.854 86.4072 216.375 85.9962 216.011 85.4773C215.652 84.9545 215.434 84.3674 215.358 83.7159H217.784C217.879 84.1402 218.078 84.4697 218.381 84.7045C218.684 84.9356 219.059 85.0511 219.506 85.0511C220.263 85.0511 220.839 84.7216 221.233 84.0625C221.627 83.3996 221.826 82.4924 221.83 81.3409H221.75C221.576 81.6818 221.341 81.9754 221.045 82.2216C220.75 82.464 220.411 82.6515 220.028 82.7841C219.65 82.9167 219.246 82.983 218.818 82.983C218.133 82.983 217.519 82.822 216.977 82.5C216.439 82.178 216.015 81.7348 215.705 81.1705C215.394 80.6023 215.241 79.9545 215.244 79.2273C215.241 78.4394 215.42 77.7405 215.784 77.1307C216.148 76.517 216.655 76.036 217.307 75.6875C217.962 75.339 218.723 75.1667 219.591 75.1705ZM219.608 77.1023C219.225 77.1023 218.884 77.1932 218.585 77.375C218.29 77.5568 218.055 77.803 217.881 78.1136C217.71 78.4242 217.627 78.7727 217.631 79.1591C217.627 79.5455 217.708 79.892 217.875 80.1989C218.045 80.5057 218.278 80.75 218.574 80.9318C218.869 81.1098 219.206 81.1989 219.585 81.1989C219.869 81.1989 220.131 81.1458 220.369 81.0398C220.612 80.9337 220.822 80.7879 221 80.6023C221.182 80.4129 221.324 80.1951 221.426 79.9489C221.528 79.6989 221.581 79.4318 221.585 79.1477C221.581 78.7727 221.494 78.4299 221.324 78.1193C221.153 77.8087 220.919 77.5625 220.619 77.3807C220.32 77.1951 219.983 77.1023 219.608 77.1023ZM230.153 75.1705C230.752 75.1705 231.328 75.2708 231.881 75.4716C232.438 75.6686 232.934 75.9886 233.369 76.4318C233.809 76.875 234.155 77.4621 234.409 78.1932C234.667 78.9205 234.797 79.8163 234.801 80.8807C234.797 81.8693 234.684 82.7519 234.46 83.5284C234.241 84.3011 233.924 84.9583 233.511 85.5C233.098 86.0417 232.6 86.4545 232.017 86.7386C231.438 87.0189 230.788 87.1591 230.068 87.1591C229.292 87.1591 228.606 87.0095 228.011 86.7102C227.417 86.4072 226.938 85.9962 226.574 85.4773C226.214 84.9545 225.996 84.3674 225.92 83.7159H228.347C228.441 84.1402 228.64 84.4697 228.943 84.7045C229.246 84.9356 229.621 85.0511 230.068 85.0511C230.826 85.0511 231.402 84.7216 231.795 84.0625C232.189 83.3996 232.388 82.4924 232.392 81.3409H232.312C232.138 81.6818 231.903 81.9754 231.608 82.2216C231.313 82.464 230.973 82.6515 230.591 82.7841C230.212 82.9167 229.809 82.983 229.381 82.983C228.695 82.983 228.081 82.822 227.54 82.5C227.002 82.178 226.578 81.7348 226.267 81.1705C225.956 80.6023 225.803 79.9545 225.807 79.2273C225.803 78.4394 225.983 77.7405 226.347 77.1307C226.71 76.517 227.218 76.036 227.869 75.6875C228.525 75.339 229.286 75.1667 230.153 75.1705ZM230.17 77.1023C229.788 77.1023 229.447 77.1932 229.148 77.375C228.852 77.5568 228.617 77.803 228.443 78.1136C228.273 78.4242 228.189 78.7727 228.193 79.1591C228.189 79.5455 228.271 79.892 228.438 80.1989C228.608 80.5057 228.841 80.75 229.136 80.9318C229.432 81.1098 229.769 81.1989 230.148 81.1989C230.432 81.1989 230.693 81.1458 230.932 81.0398C231.174 80.9337 231.384 80.7879 231.562 80.6023C231.744 80.4129 231.886 80.1951 231.989 79.9489C232.091 79.6989 232.144 79.4318 232.148 79.1477C232.144 78.7727 232.057 78.4299 231.886 78.1193C231.716 77.8087 231.481 77.5625 231.182 77.3807C230.883 77.1951 230.545 77.1023 230.17 77.1023Z" fill="#7ADF2B"/>
<rect width="77" height="12" transform="translate(258 70)" fill="#3A3D41"/>
<rect x="180" y="141" width="436" height="1" fill="#292929"/>
<rect x="16" y="366" width="600" height="20" fill="#68217A"/>
<rect x="16" y="366" width="40" height="20" fill="#16825D"/>
<path d="M40.9067 377.547L36.9067 373.6L40.9067 369.6L40.2667 369.013L36 373.28V373.92L40.2667 378.187L40.9067 377.547ZM30.9867 373.6L35.0933 377.707L30.9867 381.76L31.6267 382.4L36 377.973V377.387L31.6267 373.013L30.9867 373.6Z" fill="white"/>
<path d="M71.8933 370.08C72.8533 369.44 73.9022 369.084 75.04 369.013C76.2133 368.942 77.3156 369.173 78.3467 369.707C79.4133 370.204 80.2667 370.933 80.9067 371.893C81.5467 372.853 81.9022 373.92 81.9733 375.093C82.0444 376.231 81.8133 377.333 81.28 378.4C80.7822 379.431 80.0533 380.267 79.0933 380.907C78.1333 381.547 77.0667 381.902 75.8933 381.973C74.7556 382.044 73.6711 381.831 72.64 381.333C71.6089 380.836 70.7556 380.107 70.08 379.147C69.44 378.151 69.0844 377.084 69.0133 375.947C68.9422 374.773 69.1556 373.671 69.6533 372.64C70.1511 371.609 70.8978 370.756 71.8933 370.08ZM72.4267 380.053C73.3511 380.693 74.3822 381.013 75.52 381.013C76.5156 381.013 77.4222 380.764 78.24 380.267C79.0933 379.769 79.7689 379.111 80.2667 378.293C80.7644 377.44 81.0133 376.516 81.0133 375.52C81.0133 374.631 80.8178 373.813 80.4267 373.067C80.0356 372.32 79.5022 371.68 78.8267 371.147C78.1867 370.613 77.44 370.276 76.5867 370.133C75.7333 369.956 74.8978 369.973 74.08 370.187C73.2622 370.4 72.5333 370.791 71.8933 371.36C71.2533 371.929 70.7556 372.622 70.4 373.44C70.08 374.222 69.9378 375.04 69.9733 375.893C70.0444 376.711 70.2933 377.493 70.72 378.24C71.1467 378.987 71.7156 379.591 72.4267 380.053ZM78.2933 372L78.9867 372.693L76.8533 374.88C76.9956 375.2 77.0133 375.538 76.9067 375.893C76.8356 376.249 76.64 376.533 76.32 376.747C76.0356 376.96 75.7156 377.049 75.36 377.013C75.0044 376.978 74.6844 376.836 74.4 376.587C74.1511 376.338 74.0089 376.036 73.9733 375.68C73.9378 375.289 74.0267 374.951 74.24 374.667C74.4533 374.347 74.7378 374.151 75.0933 374.08C75.4489 373.973 75.8044 373.991 76.16 374.133L78.2933 372ZM75.2 375.893C75.3778 376 75.5556 376.018 75.7333 375.947C75.9111 375.876 76 375.751 76 375.573C76 375.36 75.9289 375.218 75.7867 375.147C75.68 375.04 75.5556 375.004 75.4133 375.04C75.2711 375.04 75.1644 375.111 75.0933 375.253C75.0222 375.36 74.9867 375.484 74.9867 375.627C75.0222 375.733 75.0933 375.822 75.2 375.893ZM79.52 373.493L78.72 374.24C78.8978 374.631 78.9867 375.058 78.9867 375.52C78.9867 376.16 78.8267 376.747 78.5067 377.28L79.2533 378.027C79.68 377.351 79.9111 376.604 79.9467 375.787C80.0178 374.969 79.8756 374.204 79.52 373.493ZM76.7467 372.267C76.3556 372.089 75.9467 372 75.52 372C74.88 372 74.2933 372.16 73.76 372.48C73.2267 372.8 72.8 373.227 72.48 373.76C72.16 374.293 72 374.88 72 375.52C72 376.16 72.16 376.747 72.48 377.28L71.7867 378.027C71.2178 377.173 70.9511 376.249 70.9867 375.253C71.0578 374.222 71.4311 373.333 72.1067 372.587C72.7822 371.804 73.6178 371.307 74.6133 371.093C75.6089 370.88 76.5689 371.004 77.4933 371.467L76.7467 372.267Z" fill="white"/>
<path d="M97.472 380L93.932 371.36H92.552L89 380H90.284L91.148 377.816H95.264L96.116 380H97.472ZM93.224 372.584L94.868 376.82H91.544L93.224 372.584ZM98.3727 371.36V380H99.5967V376.916H101.133C103.401 376.916 104.565 375.92 104.565 374.168C104.565 372.344 103.353 371.36 101.181 371.36H98.3727ZM101.205 372.356C102.561 372.356 103.293 373.028 103.293 374.168C103.293 375.296 102.681 375.92 101.157 375.92H99.5967V372.356H101.205ZM105.943 371.36V380H107.167V371.36H105.943ZM112.084 377.576C112.324 379.16 113.728 380.18 115.588 380.18C117.736 380.18 118.96 378.956 118.96 377.612C118.96 376.28 118.276 375.572 115.876 374.9C113.896 374.348 113.608 374.024 113.608 373.352C113.608 372.704 114.16 372.188 115.48 372.188C116.776 372.188 117.508 372.68 117.64 373.52H118.9C118.684 372.056 117.328 371.18 115.48 371.18C113.5 371.18 112.384 372.14 112.384 373.4C112.384 374.588 113.008 375.296 115.012 375.848C117.34 376.484 117.736 376.856 117.736 377.66C117.736 378.476 117.004 379.172 115.564 379.172C114.28 379.172 113.488 378.548 113.344 377.576H112.084ZM124.412 377.996C124.292 378.776 123.728 379.208 122.96 379.208C121.988 379.208 121.208 378.488 121.208 376.964C121.208 375.308 121.928 374.552 122.948 374.552C123.68 374.552 124.196 374.924 124.352 375.608H125.624C125.42 374.336 124.34 373.58 122.924 373.58C121.16 373.58 119.984 374.84 119.984 376.928C119.984 379.04 121.28 380.18 122.936 380.18C124.484 380.18 125.504 379.208 125.672 377.996H124.412ZM126.628 376.88C126.628 379.04 127.96 380.18 129.7 380.18C131.464 380.18 132.784 379.064 132.784 376.88C132.784 374.636 131.416 373.58 129.712 373.58C128.02 373.58 126.628 374.636 126.628 376.88ZM127.828 376.88C127.828 375.32 128.644 374.516 129.712 374.516C130.78 374.516 131.584 375.296 131.584 376.88C131.584 378.428 130.828 379.244 129.724 379.244C128.644 379.244 127.828 378.428 127.828 376.88ZM135.254 380V376.868C135.254 375.296 135.95 374.708 136.742 374.708C137.018 374.708 137.246 374.756 137.474 374.816V373.664C137.33 373.628 137.09 373.58 136.79 373.58C136.094 373.58 135.554 373.964 135.206 374.684L135.05 373.76H134.102V380H135.254ZM142.51 378.2C142.33 378.776 141.754 379.208 140.998 379.208C139.954 379.208 139.174 378.572 139.078 377.132H143.83C143.83 374.612 142.63 373.58 140.902 373.58C139.174 373.58 137.902 374.708 137.902 376.88C137.902 379.076 139.186 380.18 140.962 380.18C142.462 380.18 143.446 379.34 143.758 378.2H142.51ZM139.126 376.22C139.306 375.068 140.002 374.504 140.926 374.504C141.886 374.504 142.57 375.056 142.654 376.22H139.126ZM146.867 380V378.608H145.475V380H146.867ZM146.867 375.152V373.76H145.475V375.152H146.867ZM152.526 378.38C152.802 379.472 153.774 380.18 155.07 380.18C156.738 380.18 158.166 379.148 158.166 375.464C158.166 372.764 157.158 371.42 155.214 371.42C153.618 371.42 152.406 372.536 152.406 374.276C152.406 376.04 153.486 377.096 155.022 377.096C155.694 377.096 156.51 376.82 157.014 376.016C156.894 378.488 156.138 379.244 155.118 379.244C154.41 379.244 153.954 378.92 153.798 378.38H152.526ZM156.906 374.312C156.906 375.284 156.354 376.136 155.226 376.136C154.29 376.136 153.57 375.476 153.57 374.216C153.57 373.052 154.29 372.38 155.214 372.38C156.174 372.38 156.906 373.064 156.906 374.312ZM159.722 378.38C159.998 379.472 160.97 380.18 162.266 380.18C163.934 380.18 165.362 379.148 165.362 375.464C165.362 372.764 164.354 371.42 162.41 371.42C160.814 371.42 159.602 372.536 159.602 374.276C159.602 376.04 160.682 377.096 162.218 377.096C162.89 377.096 163.706 376.82 164.21 376.016C164.09 378.488 163.334 379.244 162.314 379.244C161.606 379.244 161.15 378.92 160.994 378.38H159.722ZM164.102 374.312C164.102 375.284 163.55 376.136 162.422 376.136C161.486 376.136 160.766 375.476 160.766 374.216C160.766 373.052 161.486 372.38 162.41 372.38C163.37 372.38 164.102 373.064 164.102 374.312Z" fill="white"/>
<g clip-path="url(#clip1_7488_184305)">
<path d="M211.256 124.132C211.136 122.548 209.672 121.18 207.596 121.18C205.22 121.18 203.54 122.764 203.54 125.68C203.54 128.56 205.088 130.18 207.5 130.18C209.696 130.18 211.172 128.632 211.268 126.952H210.032C209.96 128.2 208.928 129.148 207.524 129.148C205.904 129.148 204.788 127.912 204.788 125.68C204.788 123.34 205.94 122.2 207.596 122.2C208.928 122.2 209.864 122.956 210.02 124.132H211.256ZM212.222 126.88C212.222 129.04 213.554 130.18 215.294 130.18C217.058 130.18 218.378 129.064 218.378 126.88C218.378 124.636 217.01 123.58 215.306 123.58C213.614 123.58 212.222 124.636 212.222 126.88ZM213.422 126.88C213.422 125.32 214.238 124.516 215.306 124.516C216.374 124.516 217.178 125.296 217.178 126.88C217.178 128.428 216.422 129.244 215.318 129.244C214.238 129.244 213.422 128.428 213.422 126.88ZM220.847 130V126.16C220.847 125.272 221.507 124.564 222.347 124.564C223.139 124.564 223.559 124.948 223.559 125.908V130H224.711V126.196C224.711 125.344 225.287 124.564 226.211 124.564C227.015 124.564 227.423 124.96 227.423 125.908V130H228.575V125.824C228.575 124.336 227.735 123.58 226.463 123.58C225.707 123.58 224.915 123.808 224.435 124.564C224.087 123.916 223.427 123.58 222.599 123.58C221.903 123.58 221.219 123.832 220.763 124.492L220.643 123.76H219.695V130H220.847ZM230.195 123.76V132.16H231.347V129.196C231.743 129.772 232.403 130.18 233.351 130.18C234.995 130.18 236.183 128.992 236.183 126.832C236.183 124.756 235.079 123.58 233.435 123.58C232.475 123.58 231.767 124 231.323 124.576L231.143 123.76H230.195ZM234.983 126.808C234.983 128.452 234.251 129.196 233.171 129.196C232.043 129.196 231.287 128.32 231.287 126.808C231.287 125.32 232.139 124.564 233.171 124.564C234.203 124.564 234.983 125.272 234.983 126.808ZM238.66 121.36H237.508V130H238.66V121.36ZM241.568 122.716V121.36H240.272V122.716H241.568ZM241.496 130V123.76H240.344V130H241.496ZM244.164 125.5C244.248 124.876 244.68 124.492 245.568 124.492C246.492 124.492 247.008 124.924 247.008 125.692V126.004L245.184 126.316C243.504 126.604 242.82 127.252 242.82 128.392C242.82 129.412 243.612 130.18 244.98 130.18C245.988 130.18 246.66 129.724 247.068 129.148L247.212 130H248.16V125.74C248.16 124.456 247.248 123.58 245.616 123.58C244.056 123.58 243.06 124.348 242.94 125.5H244.164ZM247.008 126.904V127.708C247.008 128.56 246.132 129.208 245.256 129.208C244.476 129.208 244.044 128.872 244.044 128.272C244.044 127.72 244.344 127.372 245.46 127.18L247.008 126.904ZM250.93 130V126.148C250.93 125.164 251.65 124.564 252.478 124.564C253.33 124.564 253.81 125.008 253.81 125.944V130H254.962V125.932C254.962 124.408 254.11 123.58 252.754 123.58C252.01 123.58 251.314 123.916 250.858 124.552L250.726 123.76H249.778V130H250.93ZM260.654 127.996C260.534 128.776 259.97 129.208 259.202 129.208C258.23 129.208 257.45 128.488 257.45 126.964C257.45 125.308 258.17 124.552 259.19 124.552C259.922 124.552 260.438 124.924 260.594 125.608H261.866C261.662 124.336 260.582 123.58 259.166 123.58C257.402 123.58 256.226 124.84 256.226 126.928C256.226 129.04 257.522 130.18 259.178 130.18C260.726 130.18 261.746 129.208 261.914 127.996H260.654ZM267.479 128.2C267.299 128.776 266.723 129.208 265.967 129.208C264.923 129.208 264.143 128.572 264.047 127.132H268.799C268.799 124.612 267.599 123.58 265.871 123.58C264.143 123.58 262.871 124.708 262.871 126.88C262.871 129.076 264.155 130.18 265.931 130.18C267.431 130.18 268.415 129.34 268.727 128.2H267.479ZM264.095 126.22C264.275 125.068 264.971 124.504 265.895 124.504C266.855 124.504 267.539 125.056 267.623 126.22H264.095Z" fill="white"/>
<line x1="203" y1="141" x2="270" y2="141" stroke="white" stroke-width="2"/>
<path d="M286.9 121.36V130H289.624C292.156 130 293.956 128.476 293.956 125.68C293.956 122.716 292.252 121.36 289.708 121.36H286.9ZM289.72 122.332C291.568 122.332 292.72 123.412 292.72 125.68C292.72 127.852 291.64 128.992 289.744 128.992H288.124V122.332H289.72ZM296.488 130V126.868C296.488 125.296 297.184 124.708 297.976 124.708C298.252 124.708 298.48 124.756 298.708 124.816V123.664C298.564 123.628 298.324 123.58 298.024 123.58C297.328 123.58 296.788 123.964 296.44 124.684L296.284 123.76H295.336V130H296.488ZM300.837 122.716V121.36H299.541V122.716H300.837ZM300.765 130V123.76H299.613V130H300.765ZM305.533 121.324C305.209 121.24 304.933 121.18 304.513 121.18C303.481 121.18 302.773 121.852 302.773 122.884V123.76H301.849V124.744H302.773V130H303.925V124.744H305.269V123.76H303.925V122.812C303.925 122.428 304.165 122.176 304.585 122.176C304.861 122.176 305.149 122.224 305.533 122.32V121.324ZM309.101 129.076C308.753 129.16 308.597 129.172 308.393 129.172C307.961 129.172 307.733 128.944 307.733 128.476V124.744H309.077V123.76H307.733V122.26H306.653L306.581 123.76H305.657V124.744H306.581V128.452C306.581 129.484 307.145 130.18 308.249 130.18C308.537 130.18 308.789 130.144 309.101 130.06V129.076Z" fill="#8C8C8C"/>
</g>
<path d="M203.989 169H205.267L202.469 161.25H201.174L198.376 169H199.611L200.326 166.905H203.28L203.989 169ZM201.76 162.619H201.851L202.974 165.938H200.632L201.76 162.619ZM206.486 169H207.641V165.579C207.641 164.639 208.184 164.059 209.038 164.059C209.892 164.059 210.3 164.531 210.3 165.498V169H211.455V165.224C211.455 163.833 210.735 163.054 209.43 163.054C208.549 163.054 207.969 163.446 207.684 164.091H207.598V163.167H206.486V169ZM214.699 169.097C215.467 169.097 216.106 168.764 216.455 168.173H216.546V169H217.658V165.009C217.658 163.785 216.831 163.054 215.365 163.054C214.038 163.054 213.093 163.693 212.975 164.676H214.092C214.221 164.252 214.667 164.01 215.311 164.01C216.101 164.01 216.509 164.37 216.509 165.009V165.52L214.924 165.616C213.533 165.702 212.749 166.309 212.749 167.356C212.749 168.42 213.571 169.097 214.699 169.097ZM214.994 168.167C214.366 168.167 213.909 167.851 213.909 167.308C213.909 166.776 214.274 166.492 215.08 166.438L216.509 166.341V166.846C216.509 167.598 215.864 168.167 214.994 168.167ZM219.355 169H220.51V160.879H219.355V169ZM222.825 171.116C224.018 171.116 224.571 170.67 225.07 169.269L227.251 163.167H226.026L224.565 167.84H224.474L223.008 163.167H221.751L223.867 169.016L223.781 169.317C223.583 169.935 223.271 170.166 222.723 170.166C222.616 170.166 222.438 170.16 222.347 170.144V171.089C222.455 171.105 222.729 171.116 222.825 171.116ZM228.298 169H232.928V168.071H229.749V167.979L232.896 163.967V163.167H228.32V164.096H231.516V164.182L228.298 168.243V169ZM238.154 167.437C237.939 167.91 237.461 168.167 236.763 168.167C235.839 168.167 235.243 167.501 235.206 166.443V166.39H239.336V165.992C239.336 164.166 238.353 163.054 236.726 163.054C235.077 163.054 234.029 164.241 234.029 166.094C234.029 167.958 235.055 169.113 236.731 169.113C238.068 169.113 239.014 168.468 239.266 167.437H238.154ZM236.72 163.994C237.574 163.994 238.133 164.612 238.16 165.557H235.206C235.27 164.617 235.866 163.994 236.72 163.994ZM240.722 169H241.876V165.514C241.876 164.692 242.494 164.128 243.37 164.128C243.574 164.128 243.917 164.166 244.014 164.193V163.108C243.891 163.081 243.67 163.065 243.499 163.065C242.736 163.065 242.086 163.479 241.919 164.053H241.833V163.167H240.722V169Z" fill="#606060"/>
<line x1="190" y1="175.99" x2="268" y2="175.99" stroke="#262626" stroke-width="2"/>
<g clip-path="url(#clip2_7488_184305)">
<rect x="198" y="182" width="62" height="13" fill="#292929"/>
<line x1="182" y1="199.496" x2="276" y2="199.496" stroke="#262626"/>
</g>
<g clip-path="url(#clip3_7488_184305)">
<rect x="198" y="205" width="62" height="13" fill="#292929"/>
<line x1="182" y1="222.496" x2="276" y2="222.496" stroke="#262626"/>
</g>
<g clip-path="url(#clip4_7488_184305)">
<rect x="198" y="228" width="62" height="13" fill="#292929"/>
<line x1="182" y1="245.496" x2="276" y2="245.496" stroke="#262626"/>
</g>
<g clip-path="url(#clip5_7488_184305)">
<rect x="198" y="251" width="62" height="13" fill="#292929"/>
<line x1="182" y1="268.496" x2="276" y2="268.496" stroke="#262626"/>
</g>
<g clip-path="url(#clip6_7488_184305)">
<rect x="198" y="274" width="62" height="13" fill="#292929"/>
<line x1="182" y1="291.496" x2="276" y2="291.496" stroke="#262626"/>
</g>
<g clip-path="url(#clip7_7488_184305)">
<rect x="198" y="297" width="62" height="13" fill="#292929"/>
<line x1="182" y1="314.496" x2="276" y2="314.496" stroke="#262626"/>
</g>
<rect x="268.4" y="154" width="1" height="161" fill="#292929"/>
<path d="M278.007 166.932C278.093 168.307 279.248 169.188 280.966 169.188C282.803 169.188 283.953 168.264 283.953 166.798C283.953 165.638 283.297 164.999 281.708 164.617L280.854 164.408C279.844 164.161 279.436 163.838 279.436 163.274C279.436 162.549 280.069 162.082 281.02 162.082C281.922 162.082 282.545 162.533 282.658 163.269H283.829C283.759 161.975 282.61 161.062 281.036 161.062C279.344 161.062 278.216 161.975 278.216 163.339C278.216 164.467 278.855 165.133 280.257 165.471L281.256 165.713C282.282 165.96 282.733 166.336 282.733 166.943C282.733 167.652 282.024 168.162 281.058 168.162C280.021 168.162 279.301 167.684 279.199 166.932H278.007ZM289.238 167.437C289.023 167.91 288.545 168.167 287.847 168.167C286.923 168.167 286.327 167.501 286.289 166.443V166.39H290.419V165.992C290.419 164.166 289.437 163.054 287.809 163.054C286.16 163.054 285.113 164.241 285.113 166.094C285.113 167.958 286.139 169.113 287.814 169.113C289.152 169.113 290.097 168.468 290.35 167.437H289.238ZM287.804 163.994C288.658 163.994 289.216 164.612 289.243 165.557H286.289C286.354 164.617 286.95 163.994 287.804 163.994ZM296.628 163.167H295.404L293.954 167.818H293.862L292.407 163.167H291.171L293.282 169H294.523L296.628 163.167ZM301.409 167.437C301.194 167.91 300.716 168.167 300.018 168.167C299.094 168.167 298.498 167.501 298.46 166.443V166.39H302.59V165.992C302.59 164.166 301.607 163.054 299.98 163.054C298.331 163.054 297.284 164.241 297.284 166.094C297.284 167.958 298.31 169.113 299.985 169.113C301.323 169.113 302.268 168.468 302.521 167.437H301.409ZM299.975 163.994C300.829 163.994 301.387 164.612 301.414 165.557H298.46C298.524 164.617 299.121 163.994 299.975 163.994ZM303.976 169H305.131V165.514C305.131 164.692 305.749 164.128 306.624 164.128C306.828 164.128 307.172 164.166 307.269 164.193V163.108C307.145 163.081 306.925 163.065 306.753 163.065C305.99 163.065 305.34 163.479 305.174 164.053H305.088V163.167H303.976V169ZM308.977 162.125C309.379 162.125 309.707 161.797 309.707 161.4C309.707 160.997 309.379 160.669 308.977 160.669C308.574 160.669 308.246 160.997 308.246 161.4C308.246 161.797 308.574 162.125 308.977 162.125ZM308.402 169H309.551V163.167H308.402V169ZM311.657 161.695V163.183H310.728V164.107H311.657V167.464C311.657 168.586 312.167 169.038 313.451 169.038C313.676 169.038 313.891 169.011 314.079 168.979V168.06C313.918 168.076 313.816 168.087 313.639 168.087C313.064 168.087 312.812 167.813 312.812 167.185V164.107H314.079V163.183H312.812V161.695H311.657ZM316.018 171.116C317.21 171.116 317.764 170.67 318.263 169.269L320.444 163.167H319.219L317.758 167.84H317.667L316.201 163.167H314.944L317.06 169.016L316.974 169.317C316.775 169.935 316.464 170.166 315.916 170.166C315.809 170.166 315.631 170.16 315.54 170.144V171.089C315.647 171.105 315.921 171.116 316.018 171.116Z" fill="#606060"/>
<line x1="269.4" y1="175.99" x2="347.4" y2="175.99" stroke="#262626" stroke-width="2"/>
<g clip-path="url(#clip8_7488_184305)">
<rect x="277.4" y="182" width="13" height="13" rx="6.5" fill="#EB5757"/>
<rect x="294.4" y="182" width="27" height="13" fill="#292929"/>
<line x1="261.4" y1="199.496" x2="355.4" y2="199.496" stroke="#262626"/>
</g>
<g clip-path="url(#clip9_7488_184305)">
<rect x="277.4" y="205" width="13" height="13" rx="6.5" fill="#FAAD14"/>
<rect x="294.4" y="205" width="27" height="13" fill="#292929"/>
<line x1="261.4" y1="222.496" x2="355.4" y2="222.496" stroke="#262626"/>
</g>
<g clip-path="url(#clip10_7488_184305)">
<rect x="277.4" y="228" width="13" height="13" rx="6.5" fill="#00BCEB"/>
<rect x="294.4" y="228" width="27" height="13" fill="#292929"/>
<line x1="261.4" y1="245.496" x2="355.4" y2="245.496" stroke="#262626"/>
</g>
<g clip-path="url(#clip11_7488_184305)">
<rect x="277.4" y="251" width="13" height="13" rx="6.5" fill="#C3C9D2"/>
<rect x="294.4" y="251" width="27" height="13" fill="#292929"/>
<line x1="261.4" y1="268.496" x2="355.4" y2="268.496" stroke="#262626"/>
</g>
<g clip-path="url(#clip12_7488_184305)">
<rect x="277.4" y="274" width="13" height="13" rx="6.5" fill="#007ACC"/>
<rect x="294.4" y="274" width="27" height="13" fill="#292929"/>
<line x1="261.4" y1="291.496" x2="355.4" y2="291.496" stroke="#262626"/>
</g>
<g clip-path="url(#clip13_7488_184305)">
<rect x="277.4" y="297" width="13" height="13" rx="6.5" fill="#00BCEB"/>
<rect x="294.4" y="297" width="27" height="13" fill="#292929"/>
<line x1="261.4" y1="314.496" x2="355.4" y2="314.496" stroke="#262626"/>
</g>
<rect x="347.8" y="154" width="1" height="161" fill="#292929"/>
<path d="M358.975 169V165.756H362.305V164.741H358.975V162.286H362.611V161.25H357.772V169H358.975ZM364.636 162.125C365.039 162.125 365.367 161.797 365.367 161.4C365.367 160.997 365.039 160.669 364.636 160.669C364.233 160.669 363.906 160.997 363.906 161.4C363.906 161.797 364.233 162.125 364.636 162.125ZM364.062 169H365.211V163.167H364.062V169ZM366.908 169H368.063V165.579C368.063 164.639 368.605 164.059 369.459 164.059C370.313 164.059 370.722 164.531 370.722 165.498V169H371.876V165.224C371.876 163.833 371.157 163.054 369.852 163.054C368.971 163.054 368.391 163.446 368.106 164.091H368.02V163.167H366.908V169ZM375.642 169.097C376.447 169.097 377.129 168.715 377.479 168.076H377.57V169H378.676V160.879H377.521V164.091H377.436C377.119 163.452 376.442 163.065 375.642 163.065C374.165 163.065 373.214 164.241 373.214 166.078C373.214 167.926 374.154 169.097 375.642 169.097ZM375.969 164.053C376.936 164.053 377.543 164.837 377.543 166.083C377.543 167.34 376.941 168.108 375.969 168.108C374.992 168.108 374.406 167.351 374.406 166.083C374.406 164.821 374.997 164.053 375.969 164.053ZM381.007 162.125C381.41 162.125 381.738 161.797 381.738 161.4C381.738 160.997 381.41 160.669 381.007 160.669C380.604 160.669 380.277 160.997 380.277 161.4C380.277 161.797 380.604 162.125 381.007 162.125ZM380.433 169H381.582V163.167H380.433V169ZM383.279 169H384.434V165.579C384.434 164.639 384.977 164.059 385.831 164.059C386.685 164.059 387.093 164.531 387.093 165.498V169H388.248V165.224C388.248 163.833 387.528 163.054 386.223 163.054C385.342 163.054 384.762 163.446 384.477 164.091H384.391V163.167H383.279V169ZM392.34 171.229C393.995 171.229 395.042 170.386 395.042 169.059V163.167H393.936V164.096H393.844C393.517 163.462 392.813 163.065 392.007 163.065C390.514 163.065 389.58 164.241 389.58 166.008C389.58 167.759 390.503 168.914 391.997 168.914C392.802 168.914 393.447 168.565 393.801 167.931H393.887V169.054C393.887 169.843 393.318 170.316 392.356 170.316C391.578 170.316 391.089 170.037 390.992 169.596H389.811C389.934 170.579 390.879 171.229 392.34 171.229ZM392.324 167.958C391.331 167.958 390.772 167.201 390.772 166.008C390.772 164.816 391.331 164.053 392.324 164.053C393.307 164.053 393.909 164.816 393.909 166.008C393.909 167.201 393.312 167.958 392.324 167.958ZM396.583 164.8C396.583 165.665 397.099 166.159 398.211 166.417L399.231 166.658C399.817 166.798 400.091 167.034 400.091 167.399C400.091 167.877 399.581 168.21 398.861 168.21C398.163 168.21 397.733 167.926 397.588 167.469H396.433C396.535 168.484 397.443 169.113 398.834 169.113C400.23 169.113 401.256 168.377 401.256 167.292C401.256 166.443 400.735 165.965 399.624 165.708L398.651 165.482C398.018 165.332 397.722 165.106 397.722 164.746C397.722 164.273 398.211 163.957 398.855 163.957C399.511 163.957 399.93 164.241 400.037 164.676H401.144C401.031 163.667 400.171 163.054 398.855 163.054C397.534 163.054 396.583 163.785 396.583 164.8Z" fill="#606060"/>
<line x1="348.8" y1="175.99" x2="426.8" y2="175.99" stroke="#262626" stroke-width="2"/>
<g clip-path="url(#clip14_7488_184305)">
<rect x="356.8" y="182" width="59" height="13" fill="#292929"/>
<line x1="340.8" y1="199.496" x2="434.8" y2="199.496" stroke="#262626"/>
</g>
<g clip-path="url(#clip15_7488_184305)">
<rect x="356.8" y="205" width="59" height="13" fill="#292929"/>
<line x1="340.8" y1="222.496" x2="434.8" y2="222.496" stroke="#262626"/>
</g>
<g clip-path="url(#clip16_7488_184305)">
<rect x="356.8" y="228" width="59" height="13" fill="#292929"/>
<line x1="340.8" y1="245.496" x2="434.8" y2="245.496" stroke="#262626"/>
</g>
<g clip-path="url(#clip17_7488_184305)">
<rect x="356.8" y="251" width="59" height="13" fill="#292929"/>
<line x1="340.8" y1="268.496" x2="434.8" y2="268.496" stroke="#262626"/>
</g>
<g clip-path="url(#clip18_7488_184305)">
<rect x="356.8" y="274" width="59" height="13" fill="#292929"/>
<line x1="340.8" y1="291.496" x2="434.8" y2="291.496" stroke="#262626"/>
</g>
<g clip-path="url(#clip19_7488_184305)">
<rect x="356.8" y="297" width="59" height="13" fill="#292929"/>
<line x1="340.8" y1="314.496" x2="434.8" y2="314.496" stroke="#262626"/>
</g>
<rect x="427.2" y="154" width="1" height="161" fill="#292929"/>
<path d="M438.375 166.019H440.073L441.652 169H443.043L441.303 165.831C442.248 165.514 442.807 164.666 442.807 163.618C442.807 162.173 441.802 161.25 440.239 161.25H437.172V169H438.375V166.019ZM438.375 162.259H440.073C441.002 162.259 441.571 162.78 441.571 163.645C441.571 164.531 441.034 165.031 440.105 165.031H438.375V162.259ZM448.049 167.437C447.834 167.91 447.356 168.167 446.658 168.167C445.734 168.167 445.138 167.501 445.1 166.443V166.39H449.23V165.992C449.23 164.166 448.248 163.054 446.62 163.054C444.971 163.054 443.924 164.241 443.924 166.094C443.924 167.958 444.95 169.113 446.625 169.113C447.963 169.113 448.908 168.468 449.161 167.437H448.049ZM446.615 163.994C447.469 163.994 448.027 164.612 448.054 165.557H445.1C445.165 164.617 445.761 163.994 446.615 163.994ZM455.568 165.042C455.418 163.908 454.532 163.054 453.065 163.054C451.363 163.054 450.326 164.209 450.326 166.062C450.326 167.953 451.368 169.113 453.071 169.113C454.516 169.113 455.418 168.302 455.568 167.152H454.446C454.295 167.786 453.796 168.13 453.065 168.13C452.104 168.13 451.508 167.351 451.508 166.062C451.508 164.8 452.099 164.037 453.065 164.037C453.839 164.037 454.312 164.472 454.446 165.042H455.568ZM459.36 169.113C461.068 169.113 462.116 167.969 462.116 166.083C462.116 164.198 461.063 163.054 459.36 163.054C457.652 163.054 456.6 164.204 456.6 166.083C456.6 167.969 457.647 169.113 459.36 169.113ZM459.36 168.13C458.356 168.13 457.792 167.383 457.792 166.083C457.792 164.784 458.356 164.032 459.36 164.032C460.359 164.032 460.929 164.784 460.929 166.083C460.929 167.378 460.359 168.13 459.36 168.13ZM463.507 169H464.662V165.417C464.662 164.655 465.193 164.059 465.897 164.059C466.584 164.059 467.025 164.472 467.025 165.138V169H468.158V165.31C468.158 164.606 468.647 164.059 469.394 164.059C470.151 164.059 470.527 164.451 470.527 165.256V169H471.682V164.977C471.682 163.763 470.994 163.054 469.812 163.054C469.001 163.054 468.33 163.468 468.035 164.096H467.943C467.686 163.468 467.132 163.054 466.332 163.054C465.553 163.054 464.962 163.441 464.705 164.096H464.619V163.167H463.507V169ZM473.304 169H474.458V165.417C474.458 164.655 474.99 164.059 475.694 164.059C476.381 164.059 476.822 164.472 476.822 165.138V169H477.955V165.31C477.955 164.606 478.444 164.059 479.19 164.059C479.948 164.059 480.324 164.451 480.324 165.256V169H481.479V164.977C481.479 163.763 480.791 163.054 479.609 163.054C478.798 163.054 478.127 163.468 477.832 164.096H477.74C477.482 163.468 476.929 163.054 476.129 163.054C475.35 163.054 474.759 163.441 474.501 164.096H474.416V163.167H473.304V169ZM486.936 167.437C486.721 167.91 486.243 168.167 485.544 168.167C484.621 168.167 484.024 167.501 483.987 166.443V166.39H488.117V165.992C488.117 164.166 487.134 163.054 485.507 163.054C483.858 163.054 482.811 164.241 482.811 166.094C482.811 167.958 483.836 169.113 485.512 169.113C486.85 169.113 487.795 168.468 488.047 167.437H486.936ZM485.501 163.994C486.355 163.994 486.914 164.612 486.941 165.557H483.987C484.051 164.617 484.647 163.994 485.501 163.994ZM489.503 169H490.658V165.579C490.658 164.639 491.2 164.059 492.054 164.059C492.908 164.059 493.316 164.531 493.316 165.498V169H494.471V165.224C494.471 163.833 493.751 163.054 492.446 163.054C491.565 163.054 490.985 163.446 490.701 164.091H490.615V163.167H489.503V169ZM498.236 169.097C499.042 169.097 499.724 168.715 500.073 168.076H500.165V169H501.271V160.879H500.116V164.091H500.03C499.713 163.452 499.037 163.065 498.236 163.065C496.759 163.065 495.809 164.241 495.809 166.078C495.809 167.926 496.749 169.097 498.236 169.097ZM498.564 164.053C499.531 164.053 500.138 164.837 500.138 166.083C500.138 167.34 499.536 168.108 498.564 168.108C497.586 168.108 497.001 167.351 497.001 166.083C497.001 164.821 497.592 164.053 498.564 164.053Z" fill="#606060"/>
<line x1="428.2" y1="175.99" x2="506.2" y2="175.99" stroke="#262626" stroke-width="2"/>
<g clip-path="url(#clip20_7488_184305)">
<rect x="436.2" y="182" width="60" height="13" fill="#292929"/>
<line x1="420.2" y1="199.496" x2="514.2" y2="199.496" stroke="#262626"/>
</g>
<g clip-path="url(#clip21_7488_184305)">
<rect x="436.2" y="205" width="60" height="13" fill="#292929"/>
<line x1="420.2" y1="222.496" x2="514.2" y2="222.496" stroke="#262626"/>
</g>
<g clip-path="url(#clip22_7488_184305)">
<rect x="436.2" y="228" width="60" height="13" fill="#292929"/>
<line x1="420.2" y1="245.496" x2="514.2" y2="245.496" stroke="#262626"/>
</g>
<g clip-path="url(#clip23_7488_184305)">
<rect x="436.2" y="251" width="60" height="13" fill="#292929"/>
<line x1="420.2" y1="268.496" x2="514.2" y2="268.496" stroke="#262626"/>
</g>
<g clip-path="url(#clip24_7488_184305)">
<rect x="436.2" y="274" width="60" height="13" fill="#292929"/>
<line x1="420.2" y1="291.496" x2="514.2" y2="291.496" stroke="#262626"/>
</g>
<g clip-path="url(#clip25_7488_184305)">
<rect x="436.2" y="297" width="60" height="13" fill="#292929"/>
<line x1="420.2" y1="314.496" x2="514.2" y2="314.496" stroke="#262626"/>
</g>
<rect x="506.6" y="154" width="1" height="161" fill="#292929"/>
<path d="M521.589 169H522.867L520.069 161.25H518.774L515.976 169H517.211L517.926 166.905H520.88L521.589 169ZM519.36 162.619H519.451L520.574 165.938H518.232L519.36 162.619ZM524.317 169H525.472V164.107H526.761V163.183H525.456V162.608C525.456 162.018 525.719 161.722 526.364 161.722C526.546 161.722 526.702 161.733 526.81 161.749V160.879C526.611 160.847 526.385 160.825 526.122 160.825C524.908 160.825 524.317 161.395 524.317 162.555V163.183H523.356V164.107H524.317V169ZM528.507 169H529.662V164.107H530.951V163.183H529.646V162.608C529.646 162.018 529.909 161.722 530.553 161.722C530.736 161.722 530.892 161.733 530.999 161.749V160.879C530.8 160.847 530.575 160.825 530.312 160.825C529.098 160.825 528.507 161.395 528.507 162.555V163.183H527.545V164.107H528.507V169ZM535.871 167.437C535.656 167.91 535.178 168.167 534.479 168.167C533.556 168.167 532.959 167.501 532.922 166.443V166.39H537.052V165.992C537.052 164.166 536.069 163.054 534.442 163.054C532.793 163.054 531.746 164.241 531.746 166.094C531.746 167.958 532.771 169.113 534.447 169.113C535.785 169.113 536.73 168.468 536.982 167.437H535.871ZM534.437 163.994C535.291 163.994 535.849 164.612 535.876 165.557H532.922C532.986 164.617 533.583 163.994 534.437 163.994ZM543.39 165.042C543.24 163.908 542.354 163.054 540.887 163.054C539.185 163.054 538.148 164.209 538.148 166.062C538.148 167.953 539.19 169.113 540.893 169.113C542.337 169.113 543.24 168.302 543.39 167.152H542.268C542.117 167.786 541.618 168.13 540.887 168.13C539.926 168.13 539.33 167.351 539.33 166.062C539.33 164.8 539.92 164.037 540.887 164.037C541.661 164.037 542.133 164.472 542.268 165.042H543.39ZM545.206 161.695V163.183H544.276V164.107H545.206V167.464C545.206 168.586 545.716 169.038 547 169.038C547.225 169.038 547.44 169.011 547.628 168.979V168.06C547.467 168.076 547.365 168.087 547.188 168.087C546.613 168.087 546.36 167.813 546.36 167.185V164.107H547.628V163.183H546.36V161.695H545.206ZM552.757 167.437C552.542 167.91 552.064 168.167 551.366 168.167C550.442 168.167 549.846 167.501 549.809 166.443V166.39H553.939V165.992C553.939 164.166 552.956 163.054 551.329 163.054C549.68 163.054 548.632 164.241 548.632 166.094C548.632 167.958 549.658 169.113 551.334 169.113C552.671 169.113 553.617 168.468 553.869 167.437H552.757ZM551.323 163.994C552.177 163.994 552.736 164.612 552.763 165.557H549.809C549.873 164.617 550.469 163.994 551.323 163.994ZM557.462 169.097C558.268 169.097 558.95 168.715 559.299 168.076H559.391V169H560.497V160.879H559.342V164.091H559.256C558.939 163.452 558.263 163.065 557.462 163.065C555.985 163.065 555.035 164.241 555.035 166.078C555.035 167.926 555.975 169.097 557.462 169.097ZM557.79 164.053C558.757 164.053 559.364 164.837 559.364 166.083C559.364 167.34 558.762 168.108 557.79 168.108C556.812 168.108 556.227 167.351 556.227 166.083C556.227 164.821 556.818 164.053 557.79 164.053ZM566.577 169V161.25H565.374V169H566.577ZM568.795 161.695V163.183H567.866V164.107H568.795V167.464C568.795 168.586 569.306 169.038 570.589 169.038C570.815 169.038 571.03 169.011 571.218 168.979V168.06C571.057 168.076 570.955 168.087 570.777 168.087C570.203 168.087 569.95 167.813 569.95 167.185V164.107H571.218V163.183H569.95V161.695H568.795ZM576.347 167.437C576.132 167.91 575.654 168.167 574.956 168.167C574.032 168.167 573.436 167.501 573.398 166.443V166.39H577.529V165.992C577.529 164.166 576.546 163.054 574.918 163.054C573.27 163.054 572.222 164.241 572.222 166.094C572.222 167.958 573.248 169.113 574.924 169.113C576.261 169.113 577.207 168.468 577.459 167.437H576.347ZM574.913 163.994C575.767 163.994 576.326 164.612 576.353 165.557H573.398C573.463 164.617 574.059 163.994 574.913 163.994ZM578.915 169H580.069V165.417C580.069 164.655 580.601 164.059 581.305 164.059C581.992 164.059 582.433 164.472 582.433 165.138V169H583.566V165.31C583.566 164.606 584.055 164.059 584.801 164.059C585.559 164.059 585.935 164.451 585.935 165.256V169H587.089V164.977C587.089 163.763 586.402 163.054 585.22 163.054C584.409 163.054 583.738 163.468 583.442 164.096H583.351C583.093 163.468 582.54 163.054 581.74 163.054C580.961 163.054 580.37 163.441 580.112 164.096H580.026V163.167H578.915V169ZM588.577 164.8C588.577 165.665 589.093 166.159 590.205 166.417L591.225 166.658C591.811 166.798 592.084 167.034 592.084 167.399C592.084 167.877 591.574 168.21 590.854 168.21C590.156 168.21 589.727 167.926 589.582 167.469H588.427C588.529 168.484 589.437 169.113 590.828 169.113C592.224 169.113 593.25 168.377 593.25 167.292C593.25 166.443 592.729 165.965 591.617 165.708L590.645 165.482C590.011 165.332 589.716 165.106 589.716 164.746C589.716 164.273 590.205 163.957 590.849 163.957C591.504 163.957 591.923 164.241 592.031 164.676H593.137C593.024 163.667 592.165 163.054 590.849 163.054C589.528 163.054 588.577 163.785 588.577 164.8Z" fill="#606060"/>
<line x1="507.6" y1="175.99" x2="604.6" y2="175.991" stroke="#262626" stroke-width="2"/>
<g clip-path="url(#clip26_7488_184305)">
<rect x="515.6" y="182" width="72" height="13" fill="#292929"/>
<line x1="499.6" y1="199.496" x2="612.6" y2="199.496" stroke="#262626"/>
</g>
<g clip-path="url(#clip27_7488_184305)">
<rect x="515.6" y="205" width="72" height="13" fill="#292929"/>
<line x1="499.6" y1="222.496" x2="612.6" y2="222.496" stroke="#262626"/>
</g>
<g clip-path="url(#clip28_7488_184305)">
<rect x="515.6" y="228" width="72" height="13" fill="#292929"/>
<line x1="499.6" y1="245.496" x2="612.6" y2="245.496" stroke="#262626"/>
</g>
<g clip-path="url(#clip29_7488_184305)">
<rect x="515.6" y="251" width="72" height="13" fill="#292929"/>
<line x1="499.6" y1="268.496" x2="612.6" y2="268.496" stroke="#262626"/>
</g>
<g clip-path="url(#clip30_7488_184305)">
<rect x="515.6" y="274" width="72" height="13" fill="#292929"/>
<line x1="499.6" y1="291.496" x2="612.6" y2="291.496" stroke="#262626"/>
</g>
<g clip-path="url(#clip31_7488_184305)">
<rect x="515.6" y="297" width="72" height="13" fill="#292929"/>
<line x1="499.6" y1="314.496" x2="612.6" y2="314.496" stroke="#262626"/>
</g>
<rect x="189.5" y="153.5" width="416" height="162" stroke="#292929"/>
</g>
</g>
<defs>
<filter id="filter0_d_7488_184305" x="0" y="0" width="632" height="404" filterUnits="userSpaceOnUse" color-interpolation-filters="sRGB">
<feFlood flood-opacity="0" result="BackgroundImageFix"/>
<feColorMatrix in="SourceAlpha" type="matrix" values="0 0 0 0 0 0 0 0 0 0 0 0 0 0 0 0 0 0 127 0" result="hardAlpha"/>
<feOffset dy="2"/>
<feGaussianBlur stdDeviation="8"/>
<feColorMatrix type="matrix" values="0 0 0 0 0 0 0 0 0 0 0 0 0 0 0 0 0 0 0.36 0"/>
<feBlend mode="normal" in2="BackgroundImageFix" result="effect1_dropShadow_7488_184305"/>
<feBlend mode="normal" in="SourceGraphic" in2="effect1_dropShadow_7488_184305" result="shape"/>
</filter>
<clipPath id="clip0_7488_184305">
<rect x="16" y="14" width="600" height="372" rx="12" fill="white"/>
</clipPath>
<clipPath id="clip1_7488_184305">
<rect width="107" height="38" fill="white" transform="translate(203 107)"/>
</clipPath>
<clipPath id="clip2_7488_184305">
<rect width="78.4" height="23" fill="white" transform="translate(190 177)"/>
</clipPath>
<clipPath id="clip3_7488_184305">
<rect width="78.4" height="23" fill="white" transform="translate(190 200)"/>
</clipPath>
<clipPath id="clip4_7488_184305">
<rect width="78.4" height="23" fill="white" transform="translate(190 223)"/>
</clipPath>
<clipPath id="clip5_7488_184305">
<rect width="78.4" height="23" fill="white" transform="translate(190 246)"/>
</clipPath>
<clipPath id="clip6_7488_184305">
<rect width="78.4" height="23" fill="white" transform="translate(190 269)"/>
</clipPath>
<clipPath id="clip7_7488_184305">
<rect width="78.4" height="23" fill="white" transform="translate(190 292)"/>
</clipPath>
<clipPath id="clip8_7488_184305">
<rect width="78.4" height="23" fill="white" transform="translate(269.4 177)"/>
</clipPath>
<clipPath id="clip9_7488_184305">
<rect width="78.4" height="23" fill="white" transform="translate(269.4 200)"/>
</clipPath>
<clipPath id="clip10_7488_184305">
<rect width="78.4" height="23" fill="white" transform="translate(269.4 223)"/>
</clipPath>
<clipPath id="clip11_7488_184305">
<rect width="78.4" height="23" fill="white" transform="translate(269.4 246)"/>
</clipPath>
<clipPath id="clip12_7488_184305">
<rect width="78.4" height="23" fill="white" transform="translate(269.4 269)"/>
</clipPath>
<clipPath id="clip13_7488_184305">
<rect width="78.4" height="23" fill="white" transform="translate(269.4 292)"/>
</clipPath>
<clipPath id="clip14_7488_184305">
<rect width="78.4" height="23" fill="white" transform="translate(348.8 177)"/>
</clipPath>
<clipPath id="clip15_7488_184305">
<rect width="78.4" height="23" fill="white" transform="translate(348.8 200)"/>
</clipPath>
<clipPath id="clip16_7488_184305">
<rect width="78.4" height="23" fill="white" transform="translate(348.8 223)"/>
</clipPath>
<clipPath id="clip17_7488_184305">
<rect width="78.4" height="23" fill="white" transform="translate(348.8 246)"/>
</clipPath>
<clipPath id="clip18_7488_184305">
<rect width="78.4" height="23" fill="white" transform="translate(348.8 269)"/>
</clipPath>
<clipPath id="clip19_7488_184305">
<rect width="78.4" height="23" fill="white" transform="translate(348.8 292)"/>
</clipPath>
<clipPath id="clip20_7488_184305">
<rect width="78.4" height="23" fill="white" transform="translate(428.2 177)"/>
</clipPath>
<clipPath id="clip21_7488_184305">
<rect width="78.4" height="23" fill="white" transform="translate(428.2 200)"/>
</clipPath>
<clipPath id="clip22_7488_184305">
<rect width="78.4" height="23" fill="white" transform="translate(428.2 223)"/>
</clipPath>
<clipPath id="clip23_7488_184305">
<rect width="78.4" height="23" fill="white" transform="translate(428.2 246)"/>
</clipPath>
<clipPath id="clip24_7488_184305">
<rect width="78.4" height="23" fill="white" transform="translate(428.2 269)"/>
</clipPath>
<clipPath id="clip25_7488_184305">
<rect width="78.4" height="23" fill="white" transform="translate(428.2 292)"/>
</clipPath>
<clipPath id="clip26_7488_184305">
<rect width="97.4" height="23" fill="white" transform="translate(507.6 177)"/>
</clipPath>
<clipPath id="clip27_7488_184305">
<rect width="97.4" height="23" fill="white" transform="translate(507.6 200)"/>
</clipPath>
<clipPath id="clip28_7488_184305">
<rect width="97.4" height="23" fill="white" transform="translate(507.6 223)"/>
</clipPath>
<clipPath id="clip29_7488_184305">
<rect width="97.4" height="23" fill="white" transform="translate(507.6 246)"/>
</clipPath>
<clipPath id="clip30_7488_184305">
<rect width="97.4" height="23" fill="white" transform="translate(507.6 269)"/>
</clipPath>
<clipPath id="clip31_7488_184305">
<rect width="97.4" height="23" fill="white" transform="translate(507.6 292)"/>
</clipPath>
</defs>
</svg>
