<svg width="94" height="94" viewBox="0 0 94 94" fill="none" xmlns="http://www.w3.org/2000/svg">
<path fill-rule="evenodd" clip-rule="evenodd" d="M0 35.1293C0 35.4225 0.239161 35.6572 0.528569 35.704C3.1902 36.1339 6.2445 39.6359 6.2445 42.0953L6.99002 49.5866C6.99002 57.4622 14.5442 58.497 21.15 58.5082L21.188 58.509H21.2621L60.8282 58.4829C61.0503 58.664 61.2859 58.8415 61.514 59.0122L61.5332 59.0266C61.8854 59.2919 62.2175 59.5419 62.4474 59.7719L70.1053 67.4298C70.2746 68.3676 70.7219 69.266 71.4473 69.9906L85.7276 84.2717C87.6204 86.1638 90.6882 86.1638 92.5804 84.2717C94.4732 82.3788 94.4732 79.311 92.5804 77.4182L78.3 63.1378C77.6857 62.5235 76.9477 62.1083 76.1656 61.8928L72.7691 58.4963C79.0888 58.3636 85.8409 57.0321 85.8409 49.5866L86.5864 42.0953C86.5864 39.6359 89.6408 36.1339 92.3023 35.704C92.5923 35.6572 92.8308 35.4225 92.8308 35.1293C92.8308 34.8362 92.5923 34.6014 92.3023 34.5547C89.6408 34.1247 86.5864 30.6227 86.5864 28.1632L85.8409 20.6723C85.8409 12.752 78.2009 11.75 71.5688 11.75L71.5703 11.7515H21.2611L21.2621 11.75C14.63 11.75 6.99002 12.752 6.99002 20.6723L6.2445 28.1632C6.2445 30.6227 3.1902 34.1247 0.528569 34.5547C0.239161 34.6014 0 34.8362 0 35.1293ZM73.0576 56.1293L73.0598 56.1248C75.8272 56.0771 79.9543 53.1651 79.9543 49.8252L80.6998 42.1908C80.6998 37.7535 82.5129 36.0358 85.1849 35.1293C82.5129 34.2227 80.6998 32.5051 80.6998 28.0678L79.9543 20.4337C79.9543 17.1256 75.9054 14.1822 73.1396 14.0802V14.0808L19.7676 14.0809L19.7693 14.078C17.002 14.1269 12.8765 17.0945 12.8765 20.4337L12.131 28.0678C12.131 32.5051 10.3179 34.2227 7.64607 35.1293C10.3179 36.0358 12.131 37.7535 12.131 42.1908L12.8765 49.8252C12.8765 53.1651 17.0038 56.0771 19.771 56.1248L19.7736 56.1293H73.0576ZM42.3996 43.6876L35.8599 25.4374H31.1199L24.631 43.6876H28.8387L30.1314 39.5053H36.6203L37.9131 43.6876H42.3996ZM33.4012 28.9354L35.7839 36.7171H30.9932L33.4012 28.9354ZM43.9248 43.6876V25.4374H50.5153C56.0664 25.4374 58.3984 27.4145 58.3984 31.5208C58.3984 35.7032 55.8383 37.5789 50.6674 37.5789H48.1833V43.6876H43.9248ZM54.0133 31.5208C54.0133 29.2649 52.7966 28.3524 50.566 28.3524H48.1833V34.6639H50.7181C52.8473 34.6639 54.0133 33.5993 54.0133 31.5208ZM60.8068 43.6876V25.4374H65.0652V43.6876H60.8068Z" fill="black"/>
</svg>
