<svg width="240" height="76" viewBox="0 0 240 76" fill="none" xmlns="http://www.w3.org/2000/svg">
<path fill-rule="evenodd" clip-rule="evenodd" d="M0 24.0305C0 24.3318 0.24844 24.5731 0.54917 24.6211C3.315 25.0631 6.48871 28.6626 6.48871 31.1906L7.26338 38.8903C7.26338 46.9853 15.1131 48.0489 21.9773 48.0611H22.0167H22.0938L63.2075 48.0343C63.4383 48.2205 63.6831 48.4029 63.9202 48.5791L63.927 48.5842L63.9272 48.5843L63.9273 48.5844C64.2981 48.8599 64.6484 49.1201 64.8901 49.3592L72.8476 57.2304C73.0234 58.1952 73.4882 59.1178 74.242 59.8626L89.081 74.5414C91.0479 76.4862 94.2357 76.4862 96.2026 74.5414C98.1687 72.5958 98.1687 69.4426 96.2026 67.497L81.3629 52.819C80.7245 52.1875 79.9576 51.7607 79.1449 51.5393L75.6163 48.0489C82.1825 47.9125 89.1995 46.5439 89.1995 38.8903L89.9742 31.1906C89.9742 28.6626 93.1473 25.0631 95.9136 24.6211C96.2142 24.5731 96.4629 24.3318 96.4629 24.0305C96.4629 23.7292 96.2142 23.4879 95.9136 23.4398C93.1473 22.9979 89.9742 19.3983 89.9742 16.8704L89.1995 9.17081C89.1995 1.02988 81.2606 0 74.3691 0L74.3698 0.00161064H22.0927L22.0938 0C15.2023 0 7.26338 1.02988 7.26338 9.17081L6.48871 16.8704C6.48871 19.3983 3.315 22.9979 0.54917 23.4398C0.24844 23.4879 0 23.7292 0 24.0305ZM75.9153 45.6152L75.9184 45.6106C78.794 45.5615 83.0826 42.5685 83.0826 39.1355L83.8573 31.2886C83.8573 26.7278 85.7413 24.9622 88.5178 24.0305C85.7413 23.0987 83.8573 21.3332 83.8573 16.7723L83.0826 8.9256C83.0826 5.52532 78.8746 2.49998 76.0005 2.39508L76.0013 2.39577H20.5408L20.5426 2.39285C17.6671 2.4432 13.3802 5.49337 13.3802 8.9256L12.6056 16.7723C12.6056 21.3332 10.7216 23.0987 7.9451 24.0305C10.7216 24.9622 12.6056 26.7278 12.6056 31.2886L13.3802 39.1355C13.3802 42.5685 17.6689 45.5615 20.5445 45.6106L20.547 45.6152H75.9153ZM44.0582 32.8273L37.2627 14.0689H32.3373L25.5945 32.8273H29.9668L31.3101 28.5286H38.0529L39.3961 32.8273H44.0582ZM34.7078 17.6642L37.1837 25.6627H32.2056L34.7078 17.6642ZM45.6432 32.8273V14.0689H52.4913C58.2596 14.0689 60.6828 16.101 60.6828 20.3216C60.6828 24.6205 58.0225 26.5485 52.6494 26.5485H50.0681V32.8273H45.6432ZM56.1261 20.3216C56.1261 18.0029 54.8619 17.065 52.544 17.065H50.0681V23.5523H52.7021C54.9145 23.5523 56.1261 22.4581 56.1261 20.3216ZM63.1851 32.8273V14.0689H67.6108V32.8273H63.1851ZM109.76 9.63074V37.2167H112.781V9.63074H109.76ZM121.586 24.8797V37.2166H118.719V17.2935H121.082L121.431 20.282C122.825 17.9448 125.266 16.7188 127.822 16.7188C132.16 16.7188 134.872 19.3625 134.872 23.9218V37.2166H132.005V23.9984C132.005 20.8184 130.223 19.1326 127.163 19.1326C124.297 19.1326 121.586 21.3165 121.586 24.8797ZM138.845 31.7378C139.232 35.3776 142.331 37.7914 147.211 37.7914C152.363 37.7914 155.345 35.1094 155.345 31.6995C155.345 27.9448 152.634 26.4888 147.676 25.4927C143.609 24.6881 142.525 23.8069 142.525 21.9295C142.525 20.3203 143.958 18.9793 147.095 18.9793C150 18.9793 151.898 20.3586 152.286 22.3893H155.229C154.61 18.9027 151.511 16.7188 147.173 16.7188C142.176 16.7188 139.581 19.0176 139.581 22.1977C139.581 25.2245 141.789 26.9486 146.166 27.8298C150.271 28.6344 152.402 29.439 152.402 31.8911C152.402 33.8451 150.62 35.4925 147.25 35.4925C144.113 35.4925 142.176 34.1899 141.789 31.7378H138.845ZM162.701 17.2935V37.2167H159.796V17.2935H162.701ZM162.895 9.63074V13.1939H159.602V9.63074H162.895ZM168.039 38.8258C168.736 42.4657 171.757 44.6879 176.754 44.6879C182.37 44.6879 185.624 41.3545 185.624 36.9485V17.2935H183.261L182.796 20.3586C181.518 18.213 179.233 16.7188 176.018 16.7188C170.866 16.7188 167.148 20.4352 167.148 26.7954C167.148 33.1171 171.254 36.5653 175.863 36.5653C179.078 36.5653 181.402 35.2626 182.719 33.347V36.8335C182.719 40.2818 180.55 42.4273 176.676 42.4273C173.616 42.4273 171.563 41.163 171.099 38.8258H168.039ZM170.13 26.8337C170.13 21.5847 172.88 19.1326 176.444 19.1326C180.201 19.1326 182.912 21.6996 182.912 26.8337C182.912 31.8145 180.162 34.1515 176.483 34.1515C172.958 34.1515 170.13 31.5463 170.13 26.8337ZM194.174 24.9946V37.2167H191.308V9.63074H194.174V20.0904C195.568 17.8682 197.931 16.7188 200.41 16.7188C204.748 16.7188 207.46 19.3625 207.46 23.9218V37.2167H204.593V23.9984C204.593 20.8184 202.812 19.1326 199.752 19.1326C196.847 19.1326 194.174 21.3548 194.174 24.9946ZM221.194 19.7456V17.2935H216.662V12.5043H213.99L213.796 17.2935H210.852V19.7456H213.796V32.734C213.796 35.8757 215.539 37.7913 218.754 37.7913C219.645 37.7913 220.458 37.6764 221.426 37.4082V34.9944C220.342 35.2626 219.761 35.3009 219.064 35.3009C217.553 35.3009 216.662 34.4964 216.662 32.8106V19.7456H221.194ZM231.866 37.7914C226.986 37.7914 223.887 35.3776 223.5 31.7378H226.443C226.831 34.1899 228.767 35.4925 231.905 35.4925C235.275 35.4925 237.056 33.8451 237.056 31.8911C237.056 29.439 234.926 28.6344 230.82 27.8298C226.443 26.9486 224.235 25.2245 224.235 22.1977C224.235 19.0176 226.831 16.7188 231.827 16.7188C236.165 16.7188 239.264 18.9027 239.884 22.3893H236.94C236.553 20.3586 234.655 18.9793 231.75 18.9793C228.612 18.9793 227.179 20.3203 227.179 21.9295C227.179 23.8069 228.264 24.6881 232.331 25.4927C237.289 26.4888 240 27.9448 240 31.6995C240 35.1094 237.018 37.7914 231.866 37.7914Z" fill="white"/>
</svg>
