<svg width="240" height="76" viewBox="0 0 240 76" fill="none" xmlns="http://www.w3.org/2000/svg">
<path fill-rule="evenodd" clip-rule="evenodd" d="M0 24.0305C0 24.3318 0.24844 24.5731 0.54917 24.6211C3.315 25.0631 6.48871 28.6626 6.48871 31.1906L7.26338 38.8903C7.26338 46.9853 15.1131 48.0489 21.9773 48.0611H22.0167H22.0938L63.2075 48.0343C63.4383 48.2205 63.6831 48.4029 63.9202 48.5791L63.927 48.5842L63.9272 48.5843L63.9273 48.5844C64.2981 48.8599 64.6484 49.1201 64.8901 49.3592L72.8476 57.2304C73.0234 58.1952 73.4882 59.1178 74.242 59.8626L89.081 74.5414C91.0479 76.4862 94.2357 76.4862 96.2026 74.5414C98.1687 72.5958 98.1687 69.4426 96.2026 67.497L81.3629 52.819C80.7245 52.1875 79.9576 51.7607 79.1449 51.5393L75.6163 48.0489C82.1825 47.9125 89.1995 46.5439 89.1995 38.8903L89.9742 31.1906C89.9742 28.6626 93.1473 25.0631 95.9136 24.6211C96.2142 24.5731 96.4629 24.3318 96.4629 24.0305C96.4629 23.7292 96.2142 23.4879 95.9136 23.4398C93.1473 22.9979 89.9742 19.3983 89.9742 16.8704L89.1995 9.17081C89.1995 1.02988 81.2606 0 74.3691 0L74.3698 0.00161064H22.0927L22.0938 0C15.2023 0 7.26338 1.02988 7.26338 9.17081L6.48871 16.8704C6.48871 19.3983 3.315 22.9979 0.54917 23.4398C0.24844 23.4879 0 23.7292 0 24.0305ZM75.9153 45.6152L75.9184 45.6106C78.794 45.5615 83.0826 42.5685 83.0826 39.1355L83.8573 31.2886C83.8573 26.7278 85.7413 24.9622 88.5178 24.0305C85.7413 23.0987 83.8573 21.3332 83.8573 16.7723L83.0826 8.9256C83.0826 5.52532 78.8746 2.49998 76.0005 2.39508L76.0013 2.39577H20.5408L20.5426 2.39285C17.6671 2.4432 13.3802 5.49337 13.3802 8.9256L12.6056 16.7723C12.6056 21.3332 10.7216 23.0987 7.9451 24.0305C10.7216 24.9622 12.6056 26.7278 12.6056 31.2886L13.3802 39.1355C13.3802 42.5685 17.6689 45.5615 20.5445 45.6106L20.547 45.6152H75.9153ZM44.0582 32.8272L37.2627 14.0688H32.3373L25.5945 32.8272H29.9668L31.3101 28.5284H38.0529L39.3961 32.8272H44.0582ZM34.7078 17.6641L37.1837 25.6626H32.2056L34.7078 17.6641ZM45.6432 32.8272V14.0688H52.4913C58.2596 14.0688 60.6828 16.1009 60.6828 20.3215C60.6828 24.6204 58.0225 26.5484 52.6494 26.5484H50.0681V32.8272H45.6432ZM56.1261 20.3215C56.1261 18.0028 54.8619 17.0649 52.544 17.0649H50.0681V23.5522H52.7021C54.9145 23.5522 56.1261 22.458 56.1261 20.3215ZM63.1851 32.8272V14.0688H67.6108V32.8272H63.1851ZM109.76 9.63085V37.2168H112.781V9.63085H109.76ZM121.586 24.8796V37.2166H118.719V17.2934H121.082L121.431 20.2819C122.825 17.9448 125.266 16.7187 127.822 16.7187C132.16 16.7187 134.872 19.3624 134.872 23.9217V37.2166H132.005V23.9984C132.005 20.8183 130.223 19.1325 127.163 19.1325C124.297 19.1325 121.586 21.3164 121.586 24.8796ZM138.845 31.7378C139.232 35.3775 142.331 37.7913 147.211 37.7913C152.363 37.7913 155.345 35.1093 155.345 31.6995C155.345 27.9447 152.634 26.4888 147.676 25.4926C143.609 24.688 142.525 23.8068 142.525 21.9294C142.525 20.3202 143.958 18.9793 147.095 18.9793C150 18.9793 151.898 20.3586 152.286 22.3892H155.229C154.61 18.9026 151.511 16.7187 147.173 16.7187C142.176 16.7187 139.581 19.0176 139.581 22.1976C139.581 25.2244 141.789 26.9485 146.166 27.8298C150.271 28.6343 152.402 29.4389 152.402 31.891C152.402 33.845 150.62 35.4925 147.25 35.4925C144.113 35.4925 142.176 34.1898 141.789 31.7378H138.845ZM162.701 17.2936V37.2168H159.796V17.2936H162.701ZM162.895 9.63085V13.194H159.602V9.63085H162.895ZM168.039 38.8258C168.736 42.4656 171.757 44.6878 176.754 44.6878C182.37 44.6878 185.624 41.3545 185.624 36.9484V17.2934H183.261L182.796 20.3586C181.518 18.213 179.233 16.7187 176.018 16.7187C170.866 16.7187 167.148 20.4352 167.148 26.7953C167.148 33.1171 171.254 36.5652 175.863 36.5652C179.078 36.5652 181.402 35.2626 182.719 33.347V36.8334C182.719 40.2817 180.55 42.4273 176.676 42.4273C173.616 42.4273 171.563 41.1629 171.099 38.8258H168.039ZM170.13 26.8336C170.13 21.5846 172.88 19.1325 176.444 19.1325C180.201 19.1325 182.912 21.6995 182.912 26.8336C182.912 31.8144 180.162 34.1515 176.483 34.1515C172.958 34.1515 170.13 31.5462 170.13 26.8336ZM194.174 24.9947V37.2168H191.308V9.63085H194.174V20.0905C195.568 17.8683 197.931 16.7189 200.41 16.7189C204.748 16.7189 207.46 19.3626 207.46 23.9219V37.2168H204.593V23.9985C204.593 20.8185 202.812 19.1327 199.752 19.1327C196.847 19.1327 194.174 21.3549 194.174 24.9947ZM221.194 19.7455V17.2934H216.662V12.5042H213.99L213.796 17.2934H210.852V19.7455H213.796V32.7339C213.796 35.8756 215.539 37.7913 218.754 37.7913C219.645 37.7913 220.458 37.6763 221.426 37.4081V34.9943C220.342 35.2625 219.761 35.3008 219.064 35.3008C217.553 35.3008 216.662 34.4963 216.662 32.8105V19.7455H221.194ZM231.866 37.7913C226.986 37.7913 223.887 35.3775 223.5 31.7378H226.443C226.831 34.1898 228.767 35.4925 231.905 35.4925C235.275 35.4925 237.056 33.845 237.056 31.891C237.056 29.4389 234.926 28.6343 230.82 27.8298C226.443 26.9485 224.235 25.2244 224.235 22.1976C224.235 19.0176 226.831 16.7187 231.827 16.7187C236.165 16.7187 239.264 18.9026 239.884 22.3892H236.94C236.553 20.3586 234.655 18.9793 231.75 18.9793C228.612 18.9793 227.179 20.3202 227.179 21.9294C227.179 23.8068 228.264 24.688 232.331 25.4926C237.289 26.4888 240 27.9447 240 31.6995C240 35.1093 237.018 37.7913 231.866 37.7913Z" fill="black"/>
</svg>
