<svg width="17" height="17" viewBox="0 0 17 17" fill="none" xmlns="http://www.w3.org/2000/svg">
<path d="M8.4 0.266667C6.93333 0.266667 5.57778 0.644444 4.33333 1.4C3.08889 2.11111 2.08889 3.08889 1.33333 4.33333C0.622222 5.57778 0.266667 6.93333 0.266667 8.4C0.266667 9.86667 0.622222 11.2222 1.33333 12.4667C2.08889 13.7111 3.08889 14.6889 4.33333 15.4C5.57778 16.1111 6.93333 16.4667 8.4 16.4667C9.86667 16.4667 11.2222 16.1111 12.4667 15.4C13.7111 14.6889 14.6889 13.7111 15.4 12.4667C16.1556 11.2222 16.5333 9.86667 16.5333 8.4C16.5333 6.93333 16.1556 5.57778 15.4 4.33333C14.6889 3.08889 13.7111 2.11111 12.4667 1.4C11.2222 0.644444 9.86667 0.266667 8.4 0.266667ZM8.4 15.2667C7.15556 15.2667 6 14.9556 4.93333 14.3333C3.86667 13.7111 3.02222 12.8889 2.4 11.8667C1.77778 10.8 1.46667 9.64444 1.46667 8.4C1.51111 7.15556 1.82222 6 2.4 4.93333C3.02222 3.86667 3.86667 3.02222 4.93333 2.4C6 1.77778 7.15556 1.46667 8.4 1.46667C9.64444 1.46667 10.7778 1.77778 11.8 2.4C12.8667 3.02222 13.7111 3.86667 14.3333 4.93333C14.9556 6 15.2667 7.15556 15.2667 8.4C15.2667 9.64444 14.9556 10.8 14.3333 11.8667C13.7111 12.8889 12.8667 13.7111 11.8 14.3333C10.7778 14.9556 9.64444 15.2667 8.4 15.2667ZM10.3333 4.73333C10.1111 4.51111 9.82222 4.33333 9.46667 4.2C9.15556 4.06667 8.8 4 8.4 4C8.04444 4 7.68889 4.06667 7.33333 4.2C7.02222 4.33333 6.75556 4.53333 6.53333 4.8C6.31111 5.02222 6.15556 5.28889 6.06667 5.6C5.97778 5.86667 5.91111 6.15556 5.86667 6.46667H7.4C7.4 6.24444 7.44444 6.06667 7.53333 5.93333C7.66667 5.75556 7.8 5.64444 7.93333 5.6C8.11111 5.51111 8.26667 5.46667 8.4 5.46667C8.53333 5.46667 8.64444 5.48889 8.73333 5.53333C8.86667 5.53333 8.97778 5.57778 9.06667 5.66667C9.15556 5.71111 9.22222 5.8 9.26667 5.93333C9.31111 6.02222 9.33333 6.15556 9.33333 6.33333C9.33333 6.51111 9.28889 6.71111 9.2 6.93333C9.11111 7.11111 9 7.28889 8.86667 7.46667L7.93333 8.53333C7.8 8.71111 7.68889 8.91111 7.6 9.13333C7.51111 9.31111 7.48889 9.51111 7.53333 9.73333V10.5333H9V9.93333C9 9.75556 9.04444 9.57778 9.13333 9.4C9.22222 9.22222 9.33333 9.04444 9.46667 8.86667L9.93333 8.33333C10.1111 8.15556 10.2667 7.95556 10.4 7.73333C10.5333 7.51111 10.6444 7.28889 10.7333 7.06667C10.8222 6.8 10.8667 6.53333 10.8667 6.26667C10.8667 5.95556 10.8222 5.66667 10.7333 5.4C10.6444 5.13333 10.5111 4.91111 10.3333 4.73333ZM7.53333 11.2667H8.93333V12.7333H7.53333V11.2667Z" fill="#CCCCCC"/>
</svg>
