<svg width="17" height="17" viewBox="0 0 17 17" fill="none" xmlns="http://www.w3.org/2000/svg">
<path d="M8.40018 0C6.93351 0 5.57796 0.377778 4.33351 1.13333C3.08907 1.84444 2.08907 2.82222 1.33351 4.06667C0.622401 5.31111 0.266846 6.66667 0.266846 8.13333C0.266846 9.6 0.622401 10.9556 1.33351 12.2C2.08907 13.4444 3.08907 14.4222 4.33351 15.1333C5.57796 15.8444 6.93351 16.2 8.40018 16.2C9.86685 16.2 11.2224 15.8444 12.4668 15.1333C13.7113 14.4222 14.6891 13.4444 15.4002 12.2C16.1557 10.9556 16.5335 9.6 16.5335 8.13333C16.5335 6.66667 16.1557 5.31111 15.4002 4.06667C14.6891 2.82222 13.7113 1.84444 12.4668 1.13333C11.2224 0.377778 9.86685 0 8.40018 0ZM8.40018 15C7.15573 15 6.00018 14.6889 4.93351 14.0667C3.86685 13.4444 3.0224 12.6222 2.40018 11.6C1.77796 10.5333 1.46685 9.37778 1.46685 8.13333C1.51129 6.88889 1.8224 5.73333 2.40018 4.66667C3.0224 3.6 3.86685 2.75555 4.93351 2.13333C6.00018 1.51111 7.15573 1.2 8.40018 1.2C9.64462 1.2 10.778 1.51111 11.8002 2.13333C12.8668 2.75555 13.7113 3.6 14.3335 4.66667C14.9557 5.73333 15.2668 6.88889 15.2668 8.13333C15.2668 9.37778 14.9557 10.5333 14.3335 11.6C13.7113 12.6222 12.8668 13.4444 11.8002 14.0667C10.778 14.6889 9.64462 15 8.40018 15ZM10.3335 4.46667C10.1113 4.24444 9.8224 4.06667 9.46685 3.93333C9.15573 3.8 8.80018 3.73333 8.40018 3.73333C8.04462 3.73333 7.68907 3.8 7.33351 3.93333C7.0224 4.06667 6.75573 4.26667 6.53351 4.53333C6.31129 4.75556 6.15573 5.02222 6.06685 5.33333C5.97796 5.6 5.91129 5.88889 5.86685 6.2H7.40018C7.40018 5.97778 7.44462 5.8 7.53351 5.66667C7.66685 5.48889 7.80018 5.37778 7.93351 5.33333C8.11129 5.24444 8.26685 5.2 8.40018 5.2C8.53351 5.2 8.64462 5.22222 8.73351 5.26667C8.86685 5.26667 8.97796 5.31111 9.06685 5.4C9.15573 5.44444 9.2224 5.53333 9.26685 5.66667C9.31129 5.75555 9.33351 5.88889 9.33351 6.06667C9.33351 6.24444 9.28907 6.44444 9.20018 6.66667C9.11129 6.84444 9.00018 7.02222 8.86685 7.2L7.93351 8.26667C7.80018 8.44444 7.68907 8.64444 7.60018 8.86667C7.51129 9.04444 7.48907 9.24444 7.53351 9.46667V10.2667H9.00018V9.66667C9.00018 9.48889 9.04462 9.31111 9.13351 9.13333C9.2224 8.95556 9.33351 8.77778 9.46685 8.6L9.93351 8.06667C10.1113 7.88889 10.2668 7.68889 10.4002 7.46667C10.5335 7.24444 10.6446 7.02222 10.7335 6.8C10.8224 6.53333 10.8668 6.26667 10.8668 6C10.8668 5.68889 10.8224 5.4 10.7335 5.13333C10.6446 4.86667 10.5113 4.64444 10.3335 4.46667ZM7.53351 11H8.93351V12.4667H7.53351V11Z" fill="#606060"/>
</svg>
