<svg width="17" height="17" viewBox="0 0 17 17" fill="none" xmlns="http://www.w3.org/2000/svg">
<path d="M8.13352 0C6.66685 0 5.31129 0.377778 4.06685 1.13333C2.82241 1.84444 1.82241 2.82222 1.06685 4.06667C0.355739 5.31111 0.000183105 6.66667 0.000183105 8.13333C0.000183105 9.6 0.355739 10.9556 1.06685 12.2C1.82241 13.4444 2.82241 14.4222 4.06685 15.1333C5.31129 15.8444 6.66685 16.2 8.13352 16.2C9.60018 16.2 10.9557 15.8444 12.2002 15.1333C13.4446 14.4222 14.4224 13.4444 15.1335 12.2C15.8891 10.9556 16.2668 9.6 16.2668 8.13333C16.2668 6.66667 15.8891 5.31111 15.1335 4.06667C14.4224 2.82222 13.4446 1.84444 12.2002 1.13333C10.9557 0.377778 9.60018 0 8.13352 0ZM8.13352 15C6.88907 15 5.73352 14.6889 4.66685 14.0667C3.60018 13.4444 2.75574 12.6222 2.13352 11.6C1.51129 10.5333 1.20018 9.37778 1.20018 8.13333C1.24463 6.88889 1.55574 5.73333 2.13352 4.66667C2.75574 3.6 3.60018 2.75555 4.66685 2.13333C5.73352 1.51111 6.88907 1.2 8.13352 1.2C9.37796 1.2 10.5113 1.51111 11.5335 2.13333C12.6002 2.75555 13.4446 3.6 14.0669 4.66667C14.6891 5.73333 15.0002 6.88889 15.0002 8.13333C15.0002 9.37778 14.6891 10.5333 14.0669 11.6C13.4446 12.6222 12.6002 13.4444 11.5335 14.0667C10.5113 14.6889 9.37796 15 8.13352 15ZM10.0668 4.46667C9.84463 4.24444 9.55574 4.06667 9.20018 3.93333C8.88907 3.8 8.53352 3.73333 8.13352 3.73333C7.77796 3.73333 7.42241 3.8 7.06685 3.93333C6.75574 4.06667 6.48907 4.26667 6.26685 4.53333C6.04463 4.75556 5.88907 5.02222 5.80018 5.33333C5.71129 5.6 5.64463 5.88889 5.60018 6.2H7.13352C7.13352 5.97778 7.17796 5.8 7.26685 5.66667C7.40018 5.48889 7.53352 5.37778 7.66685 5.33333C7.84463 5.24444 8.00018 5.2 8.13352 5.2C8.26685 5.2 8.37796 5.22222 8.46685 5.26667C8.60018 5.26667 8.71129 5.31111 8.80018 5.4C8.88907 5.44444 8.95574 5.53333 9.00018 5.66667C9.04463 5.75555 9.06685 5.88889 9.06685 6.06667C9.06685 6.24444 9.02241 6.44444 8.93352 6.66667C8.84463 6.84444 8.73352 7.02222 8.60018 7.2L7.66685 8.26667C7.53352 8.44444 7.42241 8.64444 7.33352 8.86667C7.24463 9.04444 7.22241 9.24444 7.26685 9.46667V10.2667H8.73352V9.66667C8.73352 9.48889 8.77796 9.31111 8.86685 9.13333C8.95574 8.95556 9.06685 8.77778 9.20018 8.6L9.66685 8.06667C9.84463 7.88889 10.0002 7.68889 10.1335 7.46667C10.2669 7.24444 10.378 7.02222 10.4669 6.8C10.5557 6.53333 10.6002 6.26667 10.6002 6C10.6002 5.68889 10.5557 5.4 10.4669 5.13333C10.378 4.86667 10.2446 4.64444 10.0668 4.46667ZM7.26685 11H8.66685V12.4667H7.26685V11Z" fill="#CCCCCC"/>
</svg>
