<svg width="28" height="25" viewBox="0 0 28 25" fill="none" xmlns="http://www.w3.org/2000/svg">
<path d="M14 5.72644C10.1344 5.72644 7 8.86082 7 12.7264C7 16.5921 10.1344 19.7264 14 19.7264C17.8656 19.7264 21 16.5921 21 12.7264C21 8.86082 17.8656 5.72644 14 5.72644ZM14.5 16.1014C14.5 16.1702 14.4438 16.2264 14.375 16.2264H13.625C13.5562 16.2264 13.5 16.1702 13.5 16.1014V11.8514C13.5 11.7827 13.5562 11.7264 13.625 11.7264H14.375C14.4438 11.7264 14.5 11.7827 14.5 11.8514V16.1014ZM14 10.7264C13.8037 10.7224 13.6169 10.6417 13.4795 10.5014C13.3421 10.3612 13.2652 10.1727 13.2652 9.97644C13.2652 9.78014 13.3421 9.59166 13.4795 9.45144C13.6169 9.31122 13.8037 9.23045 14 9.22644C14.1963 9.23045 14.3831 9.31122 14.5205 9.45144C14.6579 9.59166 14.7348 9.78014 14.7348 9.97644C14.7348 10.1727 14.6579 10.3612 14.5205 10.5014C14.3831 10.6417 14.1963 10.7224 14 10.7264Z" fill="#F0AD42"/>
</svg>
