<svg width="28" height="25" viewBox="0 0 28 25" fill="none" xmlns="http://www.w3.org/2000/svg">
<path d="M20.9327 18.1014L14.4327 6.85144C14.3358 6.68425 14.1687 6.60144 13.9999 6.60144C13.8312 6.60144 13.6624 6.68425 13.5671 6.85144L7.0671 18.1014C6.87491 18.4358 7.11553 18.8514 7.49991 18.8514H20.4999C20.8843 18.8514 21.1249 18.4358 20.9327 18.1014ZM13.4999 11.2264C13.4999 11.1577 13.5562 11.1014 13.6249 11.1014H14.3749C14.4437 11.1014 14.4999 11.1577 14.4999 11.2264V14.1014C14.4999 14.1702 14.4437 14.2264 14.3749 14.2264H13.6249C13.5562 14.2264 13.4999 14.1702 13.4999 14.1014V11.2264ZM13.9999 16.7264C13.8036 16.7224 13.6168 16.6417 13.4794 16.5014C13.342 16.3612 13.2651 16.1727 13.2651 15.9764C13.2651 15.7801 13.342 15.5917 13.4794 15.4514C13.6168 15.3112 13.8036 15.2304 13.9999 15.2264C14.1962 15.2304 14.383 15.3112 14.5204 15.4514C14.6578 15.5917 14.7348 15.7801 14.7348 15.9764C14.7348 16.1727 14.6578 16.3612 14.5204 16.5014C14.383 16.6417 14.1962 16.7224 13.9999 16.7264V16.7264Z" fill="#D0392A"/>
</svg>
